<?xml version="1.0" encoding="UTF-8" standalone="no"?>
<!DOCTYPE svg PUBLIC "-//W3C//DTD SVG 1.1//EN"
 "http://www.w3.org/Graphics/SVG/1.1/DTD/svg11.dtd">
<!-- Generated by graphviz version 13.1.2 (20250809.0930)
 -->
<!-- Title: install Pages: 1 -->
<svg width="853pt" height="1202pt"
 viewBox="0.00 0.00 853.00 1202.00" xmlns="http://www.w3.org/2000/svg" xmlns:xlink="http://www.w3.org/1999/xlink">
<g id="graph0" class="graph" transform="scale(1 1) rotate(0) translate(4 1198.24)">
<title>install</title>
<polygon fill="white" stroke="none" points="-4,4 -4,-1198.24 848.5,-1198.24 848.5,4 -4,4"/>
<text xml:space="preserve" text-anchor="middle" x="422.25" y="-1179.79" font-family="Helvetica,sans-Serif" font-size="11.00">Install: start to done</text>
<!-- start -->
<g id="node1" class="node">
<title>start</title>
<ellipse fill="none" stroke="black" cx="165.75" cy="-1148" rx="73.89" ry="24.75"/>
<text xml:space="preserve" text-anchor="middle" x="165.75" y="-1151.05" font-family="Helvetica,sans-Serif" font-size="11.00">Start: a harness</text>
<text xml:space="preserve" text-anchor="middle" x="165.75" y="-1137.55" font-family="Helvetica,sans-Serif" font-size="11.00">with no Cairn</text>
</g>
<!-- prereq -->
<g id="node2" class="node">
<title>prereq</title>
<path fill="none" stroke="black" d="M154.65,-1081.68C154.65,-1081.68 91.85,-1055.82 91.85,-1055.82 86.3,-1053.53 86.3,-1048.96 91.85,-1046.68 91.85,-1046.68 154.65,-1020.82 154.65,-1020.82 160.2,-1018.53 171.3,-1018.53 176.85,-1020.82 176.85,-1020.82 239.65,-1046.68 239.65,-1046.68 245.2,-1048.96 245.2,-1053.53 239.65,-1055.82 239.65,-1055.82 176.85,-1081.68 176.85,-1081.68 171.3,-1083.96 160.2,-1083.96 154.65,-1081.68"/>
<text xml:space="preserve" text-anchor="middle" x="165.75" y="-1054.3" font-family="Helvetica,sans-Serif" font-size="11.00">node and git</text>
<text xml:space="preserve" text-anchor="middle" x="165.75" y="-1040.8" font-family="Helvetica,sans-Serif" font-size="11.00">available?</text>
</g>
<!-- start&#45;&gt;prereq -->
<g id="edge1" class="edge">
<title>start&#45;&gt;prereq</title>
<path fill="none" stroke="black" d="M165.75,-1123.09C165.75,-1115.39 165.75,-1106.58 165.75,-1097.85"/>
<polygon fill="black" stroke="black" points="169.25,-1098.04 165.75,-1088.04 162.25,-1098.04 169.25,-1098.04"/>
</g>
<!-- missing -->
<g id="node3" class="node">
<title>missing</title>
<ellipse fill="none" stroke="black" cx="107.75" cy="-942.75" rx="90.33" ry="24.75"/>
<text xml:space="preserve" text-anchor="middle" x="107.75" y="-945.8" font-family="Helvetica,sans-Serif" font-size="11.00">Stop: name the</text>
<text xml:space="preserve" text-anchor="middle" x="107.75" y="-932.3" font-family="Helvetica,sans-Serif" font-size="11.00">missing prerequisite</text>
</g>
<!-- prereq&#45;&gt;missing -->
<g id="edge2" class="edge">
<title>prereq&#45;&gt;missing</title>
<path fill="none" stroke="black" d="M150.51,-1022.27C143.06,-1008.58 134.02,-991.99 126.18,-977.6"/>
<polygon fill="black" stroke="black" points="129.31,-976.01 121.45,-968.9 123.16,-979.36 129.31,-976.01"/>
<text xml:space="preserve" text-anchor="middle" x="142.75" y="-988.75" font-family="Helvetica,sans-Serif" font-size="10.00">no</text>
</g>
<!-- harness -->
<g id="node4" class="node">
<title>harness</title>
<path fill="none" stroke="black" d="M294.98,-958.42C294.98,-958.42 227.72,-945.08 227.72,-945.08 221.83,-943.92 221.83,-941.58 227.72,-940.42 227.72,-940.42 294.98,-927.08 294.98,-927.08 300.86,-925.92 312.64,-925.92 318.52,-927.08 318.52,-927.08 385.78,-940.42 385.78,-940.42 391.67,-941.58 391.67,-943.92 385.78,-945.08 385.78,-945.08 318.52,-958.42 318.52,-958.42 312.64,-959.58 300.86,-959.58 294.98,-958.42"/>
<text xml:space="preserve" text-anchor="middle" x="306.75" y="-939.05" font-family="Helvetica,sans-Serif" font-size="11.00">Which harness?</text>
</g>
<!-- prereq&#45;&gt;harness -->
<g id="edge3" class="edge">
<title>prereq&#45;&gt;harness</title>
<path fill="none" stroke="black" d="M195.31,-1027.92C220.12,-1009.18 255.28,-982.63 279.43,-964.38"/>
<polygon fill="black" stroke="black" points="281.35,-967.32 287.22,-958.5 277.13,-961.74 281.35,-967.32"/>
<text xml:space="preserve" text-anchor="middle" x="257.5" y="-988.75" font-family="Helvetica,sans-Serif" font-size="10.00">yes</text>
</g>
<!-- cc -->
<g id="node5" class="node">
<title>cc</title>
<path fill="none" stroke="black" d="M203.5,-789.25C203.5,-789.25 12,-789.25 12,-789.25 6,-789.25 0,-783.25 0,-777.25 0,-777.25 0,-739.25 0,-739.25 0,-733.25 6,-727.25 12,-727.25 12,-727.25 203.5,-727.25 203.5,-727.25 209.5,-727.25 215.5,-733.25 215.5,-739.25 215.5,-739.25 215.5,-777.25 215.5,-777.25 215.5,-783.25 209.5,-789.25 203.5,-789.25"/>
<text xml:space="preserve" text-anchor="middle" x="107.75" y="-774.8" font-family="Helvetica,sans-Serif" font-size="11.00">Claude Code or Codex:</text>
<text xml:space="preserve" text-anchor="middle" x="107.75" y="-761.3" font-family="Helvetica,sans-Serif" font-size="11.00">plugin marketplace add eas4ai/cairn</text>
<text xml:space="preserve" text-anchor="middle" x="107.75" y="-747.8" font-family="Helvetica,sans-Serif" font-size="11.00">plugin install cairn@cairn</text>
<text xml:space="preserve" text-anchor="middle" x="107.75" y="-734.3" font-family="Helvetica,sans-Serif" font-size="11.00">(hooks registered by the plugin)</text>
</g>
<!-- harness&#45;&gt;cc -->
<g id="edge4" class="edge">
<title>harness&#45;&gt;cc</title>
<path fill="none" stroke="black" d="M269.7,-931.63C249.81,-924.92 225.72,-914.62 207.5,-900 173.4,-872.63 145.75,-830.7 128.28,-799.72"/>
<polygon fill="black" stroke="black" points="131.37,-798.07 123.49,-791 125.24,-801.45 131.37,-798.07"/>
<text xml:space="preserve" text-anchor="middle" x="256.62" y="-890.5" font-family="Helvetica,sans-Serif" font-size="10.00">Claude Code, Codex</text>
</g>
<!-- muse -->
<g id="node6" class="node">
<title>muse</title>
<path fill="none" stroke="black" d="M405.12,-782.5C405.12,-782.5 232.38,-782.5 232.38,-782.5 226.38,-782.5 220.38,-776.5 220.38,-770.5 220.38,-770.5 220.38,-746 220.38,-746 220.38,-740 226.38,-734 232.38,-734 232.38,-734 405.12,-734 405.12,-734 411.12,-734 417.12,-740 417.12,-746 417.12,-746 417.12,-770.5 417.12,-770.5 417.12,-776.5 411.12,-782.5 405.12,-782.5"/>
<text xml:space="preserve" text-anchor="middle" x="318.75" y="-768.05" font-family="Helvetica,sans-Serif" font-size="11.00">Muse:</text>
<text xml:space="preserve" text-anchor="middle" x="318.75" y="-754.55" font-family="Helvetica,sans-Serif" font-size="11.00">muse plugins install &lt;checkout&gt;</text>
<text xml:space="preserve" text-anchor="middle" x="318.75" y="-741.05" font-family="Helvetica,sans-Serif" font-size="11.00">(hooks registered by the plugin)</text>
</g>
<!-- harness&#45;&gt;muse -->
<g id="edge5" class="edge">
<title>harness&#45;&gt;muse</title>
<path fill="none" stroke="black" d="M307.88,-924.58C309.84,-894.83 313.89,-833.13 316.46,-794.1"/>
<polygon fill="black" stroke="black" points="319.94,-794.49 317.1,-784.28 312.96,-794.03 319.94,-794.49"/>
<text xml:space="preserve" text-anchor="middle" x="323.37" y="-890.5" font-family="Helvetica,sans-Serif" font-size="10.00">Muse</text>
</g>
<!-- other -->
<g id="node7" class="node">
<title>other</title>
<path fill="none" stroke="black" d="M601,-869.25C601,-869.25 346.5,-869.25 346.5,-869.25 340.5,-869.25 334.5,-863.25 334.5,-857.25 334.5,-857.25 334.5,-819.25 334.5,-819.25 334.5,-813.25 340.5,-807.25 346.5,-807.25 346.5,-807.25 601,-807.25 601,-807.25 607,-807.25 613,-813.25 613,-819.25 613,-819.25 613,-857.25 613,-857.25 613,-863.25 607,-869.25 601,-869.25"/>
<text xml:space="preserve" text-anchor="middle" x="473.75" y="-854.8" font-family="Helvetica,sans-Serif" font-size="11.00">Any other agent:</text>
<text xml:space="preserve" text-anchor="middle" x="473.75" y="-841.3" font-family="Helvetica,sans-Serif" font-size="11.00">npx skills add eas4ai/cairn</text>
<text xml:space="preserve" text-anchor="middle" x="473.75" y="-827.8" font-family="Helvetica,sans-Serif" font-size="11.00">then /install&#45;cairn: clone the checkout,</text>
<text xml:space="preserve" text-anchor="middle" x="473.75" y="-814.3" font-family="Helvetica,sans-Serif" font-size="11.00">register the hooks where the harness has them</text>
</g>
<!-- harness&#45;&gt;other -->
<g id="edge6" class="edge">
<title>harness&#45;&gt;other</title>
<path fill="none" stroke="black" d="M328.24,-928.56C350.02,-915.19 384.7,-893.91 414.74,-875.47"/>
<polygon fill="black" stroke="black" points="416.32,-878.6 423.01,-870.39 412.66,-872.64 416.32,-878.6"/>
<text xml:space="preserve" text-anchor="middle" x="408.01" y="-890.5" font-family="Helvetica,sans-Serif" font-size="10.00">other</text>
</g>
<!-- link -->
<g id="node9" class="node">
<title>link</title>
<path fill="none" stroke="black" d="M493.25,-636.25C493.25,-636.25 180.25,-636.25 180.25,-636.25 174.25,-636.25 168.25,-630.25 168.25,-624.25 168.25,-624.25 168.25,-586.25 168.25,-586.25 168.25,-580.25 174.25,-574.25 180.25,-574.25 180.25,-574.25 493.25,-574.25 493.25,-574.25 499.25,-574.25 505.25,-580.25 505.25,-586.25 505.25,-586.25 505.25,-624.25 505.25,-624.25 505.25,-630.25 499.25,-636.25 493.25,-636.25"/>
<text xml:space="preserve" text-anchor="middle" x="336.75" y="-621.8" font-family="Helvetica,sans-Serif" font-size="11.00">/install&#45;cairn or the plugin&#39;s install step</text>
<text xml:space="preserve" text-anchor="middle" x="336.75" y="-608.3" font-family="Helvetica,sans-Serif" font-size="11.00">links ~/.local/bin/cairn to bin/cairn.mjs, once,</text>
<text xml:space="preserve" text-anchor="middle" x="336.75" y="-594.8" font-family="Helvetica,sans-Serif" font-size="11.00">and asks the developer to confirm the authority remote</text>
<text xml:space="preserve" text-anchor="middle" x="336.75" y="-581.3" font-family="Helvetica,sans-Serif" font-size="11.00">(origin proposed, never assumed); only it gets refs/cairn/*</text>
</g>
<!-- cc&#45;&gt;link -->
<g id="edge8" class="edge">
<title>cc&#45;&gt;link</title>
<path fill="none" stroke="black" d="M153.82,-726.87C190.7,-702.56 242.54,-668.37 281.62,-642.6"/>
<polygon fill="black" stroke="black" points="283.07,-645.84 289.49,-637.41 279.22,-639.99 283.07,-645.84"/>
</g>
<!-- muse&#45;&gt;link -->
<g id="edge9" class="edge">
<title>muse&#45;&gt;link</title>
<path fill="none" stroke="black" d="M287.11,-733.6C280.08,-726.61 273.58,-718.36 269.75,-709.25 263.55,-694.5 263.63,-688.03 269.75,-673.25 274.05,-662.88 280.81,-653.27 288.43,-644.77"/>
<polygon fill="black" stroke="black" points="290.8,-647.35 295.22,-637.72 285.76,-642.49 290.8,-647.35"/>
</g>
<!-- nohooks -->
<g id="node8" class="node">
<title>nohooks</title>
<path fill="none" stroke="black" d="M554.88,-709.25C554.88,-709.25 290.62,-709.25 290.62,-709.25 284.62,-709.25 278.62,-703.25 278.62,-697.25 278.62,-697.25 278.62,-685.25 278.62,-685.25 278.62,-679.25 284.62,-673.25 290.62,-673.25 290.62,-673.25 554.88,-673.25 554.88,-673.25 560.88,-673.25 566.88,-679.25 566.88,-685.25 566.88,-685.25 566.88,-697.25 566.88,-697.25 566.88,-703.25 560.88,-709.25 554.88,-709.25"/>
<text xml:space="preserve" text-anchor="middle" x="422.75" y="-694.3" font-family="Helvetica,sans-Serif" font-size="11.00">No hook system: Cairn is instruction&#45;only;</text>
<text xml:space="preserve" text-anchor="middle" x="422.75" y="-680.8" font-family="Helvetica,sans-Serif" font-size="11.00">the working agreement is the whole enforcement</text>
</g>
<!-- other&#45;&gt;nohooks -->
<g id="edge7" class="edge">
<title>other&#45;&gt;nohooks</title>
<path fill="none" stroke="black" d="M463.06,-806.85C454.04,-781.22 441.24,-744.83 432.5,-719.98"/>
<polygon fill="black" stroke="black" points="435.92,-719.15 429.3,-710.88 429.32,-721.47 435.92,-719.15"/>
<text xml:space="preserve" text-anchor="middle" x="494.8" y="-755.12" font-family="Helvetica,sans-Serif" font-size="10.00">no hook system</text>
</g>
<!-- other&#45;&gt;link -->
<g id="edge10" class="edge">
<title>other&#45;&gt;link</title>
<path fill="none" stroke="black" d="M519.9,-806.99C526.37,-801.56 532.56,-795.59 537.75,-789.25 572.09,-747.25 608.53,-716.48 575.75,-673.25 565.94,-660.31 541.19,-649.18 511.15,-639.92"/>
<polygon fill="black" stroke="black" points="512.35,-636.63 501.77,-637.15 510.37,-643.34 512.35,-636.63"/>
</g>
<!-- nohooks&#45;&gt;link -->
<g id="edge11" class="edge">
<title>nohooks&#45;&gt;link</title>
<path fill="none" stroke="black" d="M404.93,-672.85C396.47,-664.58 386,-654.35 375.82,-644.41"/>
<polygon fill="black" stroke="black" points="378.45,-642.09 368.85,-637.6 373.56,-647.09 378.45,-642.09"/>
</g>
<!-- path -->
<g id="node10" class="node">
<title>path</title>
<path fill="none" stroke="black" d="M324.89,-535.42C324.89,-535.42 232.02,-521.08 232.02,-521.08 226.09,-520.17 226.09,-518.33 232.02,-517.42 232.02,-517.42 324.89,-503.08 324.89,-503.08 330.82,-502.17 342.68,-502.17 348.61,-503.08 348.61,-503.08 441.48,-517.42 441.48,-517.42 447.41,-518.33 447.41,-520.17 441.48,-521.08 441.48,-521.08 348.61,-535.42 348.61,-535.42 342.68,-536.33 330.82,-536.33 324.89,-535.42"/>
<text xml:space="preserve" text-anchor="middle" x="336.75" y="-515.55" font-family="Helvetica,sans-Serif" font-size="11.00">~/.local/bin on PATH?</text>
</g>
<!-- link&#45;&gt;path -->
<g id="edge12" class="edge">
<title>link&#45;&gt;path</title>
<path fill="none" stroke="black" d="M336.75,-573.92C336.75,-565.81 336.75,-557.07 336.75,-549.04"/>
<polygon fill="black" stroke="black" points="340.25,-549.09 336.75,-539.09 333.25,-549.09 340.25,-549.09"/>
</g>
<!-- addpath -->
<g id="node11" class="node">
<title>addpath</title>
<path fill="none" stroke="black" d="M351.75,-452.5C351.75,-452.5 197.75,-452.5 197.75,-452.5 191.75,-452.5 185.75,-446.5 185.75,-440.5 185.75,-440.5 185.75,-428.5 185.75,-428.5 185.75,-422.5 191.75,-416.5 197.75,-416.5 197.75,-416.5 351.75,-416.5 351.75,-416.5 357.75,-416.5 363.75,-422.5 363.75,-428.5 363.75,-428.5 363.75,-440.5 363.75,-440.5 363.75,-446.5 357.75,-452.5 351.75,-452.5"/>
<text xml:space="preserve" text-anchor="middle" x="274.75" y="-437.55" font-family="Helvetica,sans-Serif" font-size="11.00">Say so; the developer adds it</text>
<text xml:space="preserve" text-anchor="middle" x="274.75" y="-424.05" font-family="Helvetica,sans-Serif" font-size="11.00">(no hook edits the shell)</text>
</g>
<!-- path&#45;&gt;addpath -->
<g id="edge13" class="edge">
<title>path&#45;&gt;addpath</title>
<path fill="none" stroke="black" d="M325.09,-502.69C316.42,-491.12 304.4,-475.08 294.28,-461.57"/>
<polygon fill="black" stroke="black" points="297.35,-459.82 288.55,-453.92 291.75,-464.02 297.35,-459.82"/>
<text xml:space="preserve" text-anchor="middle" x="315.46" y="-473.75" font-family="Helvetica,sans-Serif" font-size="10.00">no</text>
</g>
<!-- help -->
<g id="node12" class="node">
<title>help</title>
<path fill="none" stroke="black" d="M325.01,-377.03C325.01,-377.03 181.74,-346.97 181.74,-346.97 175.87,-345.73 175.87,-343.27 181.74,-342.03 181.74,-342.03 325.01,-311.97 325.01,-311.97 330.88,-310.73 342.62,-310.73 348.49,-311.97 348.49,-311.97 491.76,-342.03 491.76,-342.03 497.63,-343.27 497.63,-345.73 491.76,-346.97 491.76,-346.97 348.49,-377.03 348.49,-377.03 342.62,-378.27 330.88,-378.27 325.01,-377.03"/>
<text xml:space="preserve" text-anchor="middle" x="336.75" y="-347.55" font-family="Helvetica,sans-Serif" font-size="11.00">cairn &#45;&#45;help prints</text>
<text xml:space="preserve" text-anchor="middle" x="336.75" y="-334.05" font-family="Helvetica,sans-Serif" font-size="11.00">commands and exit codes?</text>
</g>
<!-- path&#45;&gt;help -->
<g id="edge14" class="edge">
<title>path&#45;&gt;help</title>
<path fill="none" stroke="black" d="M348.19,-502.72C356.84,-489.96 368.01,-471.03 372.75,-452.5 376.72,-437 376.47,-432.06 372.75,-416.5 370.27,-406.14 366.02,-395.57 361.29,-385.87"/>
<polygon fill="black" stroke="black" points="364.44,-384.34 356.73,-377.08 358.23,-387.57 364.44,-384.34"/>
<text xml:space="preserve" text-anchor="middle" x="384.26" y="-431.38" font-family="Helvetica,sans-Serif" font-size="10.00">yes</text>
</g>
<!-- addpath&#45;&gt;help -->
<g id="edge15" class="edge">
<title>addpath&#45;&gt;help</title>
<path fill="none" stroke="black" d="M287,-416.11C293.4,-407.04 301.5,-395.54 309.3,-384.47"/>
<polygon fill="black" stroke="black" points="311.96,-386.76 314.86,-376.57 306.24,-382.73 311.96,-386.76"/>
</g>
<!-- broken -->
<g id="node13" class="node">
<title>broken</title>
<ellipse fill="none" stroke="black" cx="319.75" cy="-225.75" rx="106.24" ry="24.75"/>
<text xml:space="preserve" text-anchor="middle" x="319.75" y="-228.8" font-family="Helvetica,sans-Serif" font-size="11.00">Stop: name the failure</text>
<text xml:space="preserve" text-anchor="middle" x="319.75" y="-215.3" font-family="Helvetica,sans-Serif" font-size="11.00">(link target, PATH, node)</text>
</g>
<!-- help&#45;&gt;broken -->
<g id="edge16" class="edge">
<title>help&#45;&gt;broken</title>
<path fill="none" stroke="black" d="M331.88,-310.04C329.69,-295.01 327.1,-277.26 324.89,-262.02"/>
<polygon fill="black" stroke="black" points="328.39,-261.83 323.49,-252.43 321.47,-262.83 328.39,-261.83"/>
<text xml:space="preserve" text-anchor="middle" x="334.76" y="-282" font-family="Helvetica,sans-Serif" font-size="10.00">no</text>
</g>
<!-- project -->
<g id="node14" class="node">
<title>project</title>
<path fill="none" stroke="black" d="M582.06,-258.03C582.06,-258.03 455.19,-228.47 455.19,-228.47 449.34,-227.11 449.34,-224.39 455.19,-223.03 455.19,-223.03 582.06,-193.47 582.06,-193.47 587.91,-192.11 599.59,-192.11 605.44,-193.47 605.44,-193.47 732.31,-223.03 732.31,-223.03 738.16,-224.39 738.16,-227.11 732.31,-228.47 732.31,-228.47 605.44,-258.03 605.44,-258.03 599.59,-259.39 587.91,-259.39 582.06,-258.03"/>
<text xml:space="preserve" text-anchor="middle" x="593.75" y="-228.8" font-family="Helvetica,sans-Serif" font-size="11.00">Inside a Git repo with</text>
<text xml:space="preserve" text-anchor="middle" x="593.75" y="-215.3" font-family="Helvetica,sans-Serif" font-size="11.00">docs/spec/roadmap.md?</text>
</g>
<!-- help&#45;&gt;project -->
<g id="edge17" class="edge">
<title>help&#45;&gt;project</title>
<path fill="none" stroke="black" d="M388.45,-320.01C430.38,-300.97 489.54,-274.09 533.6,-254.08"/>
<polygon fill="black" stroke="black" points="534.85,-257.35 542.5,-250.03 531.95,-250.98 534.85,-257.35"/>
<text xml:space="preserve" text-anchor="middle" x="481.58" y="-282" font-family="Helvetica,sans-Serif" font-size="10.00">yes</text>
</g>
<!-- wake -->
<g id="node15" class="node">
<title>wake</title>
<path fill="none" stroke="black" d="M551,-135.75C551,-135.75 398.5,-135.75 398.5,-135.75 392.5,-135.75 386.5,-129.75 386.5,-123.75 386.5,-123.75 386.5,-111.75 386.5,-111.75 386.5,-105.75 392.5,-99.75 398.5,-99.75 398.5,-99.75 551,-99.75 551,-99.75 557,-99.75 563,-105.75 563,-111.75 563,-111.75 563,-123.75 563,-123.75 563,-129.75 557,-135.75 551,-135.75"/>
<text xml:space="preserve" text-anchor="middle" x="474.75" y="-120.8" font-family="Helvetica,sans-Serif" font-size="11.00">The session&#45;start hook prints</text>
<text xml:space="preserve" text-anchor="middle" x="474.75" y="-107.3" font-family="Helvetica,sans-Serif" font-size="11.00">the verdict and its predicate</text>
</g>
<!-- project&#45;&gt;wake -->
<g id="edge18" class="edge">
<title>project&#45;&gt;wake</title>
<path fill="none" stroke="black" d="M563.1,-197.45C544.4,-180.79 520.68,-159.67 502.53,-143.5"/>
<polygon fill="black" stroke="black" points="505.04,-141.04 495.24,-137 500.38,-146.27 505.04,-141.04"/>
<text xml:space="preserve" text-anchor="middle" x="542.88" y="-163.25" font-family="Helvetica,sans-Serif" font-size="10.00">yes</text>
</g>
<!-- choose -->
<g id="node16" class="node">
<title>choose</title>
<path fill="none" stroke="black" d="M832.5,-142C832.5,-142 593,-142 593,-142 587,-142 581,-136 581,-130 581,-130 581,-105.5 581,-105.5 581,-99.5 587,-93.5 593,-93.5 593,-93.5 832.5,-93.5 832.5,-93.5 838.5,-93.5 844.5,-99.5 844.5,-105.5 844.5,-105.5 844.5,-130 844.5,-130 844.5,-136 838.5,-142 832.5,-142"/>
<text xml:space="preserve" text-anchor="middle" x="712.75" y="-127.55" font-family="Helvetica,sans-Serif" font-size="11.00">Choose the entry skill:</text>
<text xml:space="preserve" text-anchor="middle" x="712.75" y="-114.05" font-family="Helvetica,sans-Serif" font-size="11.00">/new&#45;project for software that does not exist</text>
<text xml:space="preserve" text-anchor="middle" x="712.75" y="-100.55" font-family="Helvetica,sans-Serif" font-size="11.00">/existing&#45;project for a codebase</text>
</g>
<!-- project&#45;&gt;choose -->
<g id="edge19" class="edge">
<title>project&#45;&gt;choose</title>
<path fill="none" stroke="black" d="M624.4,-197.45C640.7,-182.93 660.81,-165.01 677.73,-149.94"/>
<polygon fill="black" stroke="black" points="679.98,-152.63 685.12,-143.36 675.32,-147.4 679.98,-152.63"/>
<text xml:space="preserve" text-anchor="middle" x="669.91" y="-163.25" font-family="Helvetica,sans-Serif" font-size="10.00">no</text>
</g>
<!-- done -->
<g id="node17" class="node">
<title>done</title>
<path fill="none" stroke="black" d="M739.5,-52.5C739.5,-52.5 446,-52.5 446,-52.5 440,-52.5 434,-46.5 434,-40.5 434,-40.5 434,-16 434,-16 434,-10 440,-4 446,-4 446,-4 739.5,-4 739.5,-4 745.5,-4 751.5,-10 751.5,-16 751.5,-16 751.5,-40.5 751.5,-40.5 751.5,-46.5 745.5,-52.5 739.5,-52.5"/>
<path fill="none" stroke="black" d="M743.5,-56.5C743.5,-56.5 442,-56.5 442,-56.5 436,-56.5 430,-50.5 430,-44.5 430,-44.5 430,-12 430,-12 430,-6 436,0 442,0 442,0 743.5,0 743.5,0 749.5,0 755.5,-6 755.5,-12 755.5,-12 755.5,-44.5 755.5,-44.5 755.5,-50.5 749.5,-56.5 743.5,-56.5"/>
<text xml:space="preserve" text-anchor="middle" x="592.75" y="-38.05" font-family="Helvetica,sans-Serif" font-size="11.00">Done: the command resolves and helps;</text>
<text xml:space="preserve" text-anchor="middle" x="592.75" y="-24.55" font-family="Helvetica,sans-Serif" font-size="11.00">the hooks are registered where the harness has them;</text>
<text xml:space="preserve" text-anchor="middle" x="592.75" y="-11.05" font-family="Helvetica,sans-Serif" font-size="11.00">the four skills are listed</text>
</g>
<!-- wake&#45;&gt;done -->
<g id="edge20" class="edge">
<title>wake&#45;&gt;done</title>
<path fill="none" stroke="black" d="M498.35,-99.25C512.19,-88.99 530.17,-75.66 546.71,-63.39"/>
<polygon fill="black" stroke="black" points="548.56,-66.38 554.5,-57.61 544.39,-60.76 548.56,-66.38"/>
</g>
<!-- choose&#45;&gt;done -->
<g id="edge21" class="edge">
<title>choose&#45;&gt;done</title>
<path fill="none" stroke="black" d="M680.28,-93.07C667.87,-84.02 653.46,-73.52 639.95,-63.67"/>
<polygon fill="black" stroke="black" points="642.15,-60.94 632.01,-57.87 638.02,-66.59 642.15,-60.94"/>
</g>
</g>
</svg>
