<?xml version="1.0" encoding="UTF-8" standalone="no"?>
<!DOCTYPE svg PUBLIC "-//W3C//DTD SVG 1.1//EN"
 "http://www.w3.org/Graphics/SVG/1.1/DTD/svg11.dtd">
<!-- Generated by graphviz version 13.1.2 (20250809.0930)
 -->
<!-- Title: install Pages: 1 -->
<svg width="729pt" height="1116pt"
 viewBox="0.00 0.00 729.00 1116.00" xmlns="http://www.w3.org/2000/svg" xmlns:xlink="http://www.w3.org/1999/xlink">
<g id="graph0" class="graph" transform="scale(1 1) rotate(0) translate(4 1112.24)">
<title>install</title>
<polygon fill="white" stroke="none" points="-4,4 -4,-1112.24 724.62,-1112.24 724.62,4 -4,4"/>
<text xml:space="preserve" text-anchor="middle" x="360.31" y="-1093.79" font-family="Helvetica,sans-Serif" font-size="11.00">Install: start to done</text>
<!-- start -->
<g id="node1" class="node">
<title>start</title>
<ellipse fill="none" stroke="black" cx="108.5" cy="-1061.99" rx="73.89" ry="24.75"/>
<text xml:space="preserve" text-anchor="middle" x="108.5" y="-1065.04" font-family="Helvetica,sans-Serif" font-size="11.00">Start: a harness</text>
<text xml:space="preserve" text-anchor="middle" x="108.5" y="-1051.54" font-family="Helvetica,sans-Serif" font-size="11.00">with no Sudus</text>
</g>
<!-- prereq -->
<g id="node2" class="node">
<title>prereq</title>
<path fill="none" stroke="black" d="M97.4,-995.68C97.4,-995.68 34.6,-969.81 34.6,-969.81 29.05,-967.53 29.05,-962.96 34.6,-960.68 34.6,-960.68 97.4,-934.81 97.4,-934.81 102.95,-932.53 114.05,-932.53 119.6,-934.81 119.6,-934.81 182.4,-960.68 182.4,-960.68 187.95,-962.96 187.95,-967.53 182.4,-969.81 182.4,-969.81 119.6,-995.68 119.6,-995.68 114.05,-997.96 102.95,-997.96 97.4,-995.68"/>
<text xml:space="preserve" text-anchor="middle" x="108.5" y="-968.29" font-family="Helvetica,sans-Serif" font-size="11.00">node and git</text>
<text xml:space="preserve" text-anchor="middle" x="108.5" y="-954.79" font-family="Helvetica,sans-Serif" font-size="11.00">available?</text>
</g>
<!-- start&#45;&gt;prereq -->
<g id="edge1" class="edge">
<title>start&#45;&gt;prereq</title>
<path fill="none" stroke="black" d="M108.5,-1037.08C108.5,-1029.38 108.5,-1020.58 108.5,-1011.85"/>
<polygon fill="black" stroke="black" points="112,-1012.04 108.5,-1002.04 105,-1012.04 112,-1012.04"/>
</g>
<!-- missing -->
<g id="node3" class="node">
<title>missing</title>
<ellipse fill="none" stroke="black" cx="91.5" cy="-856.75" rx="90.33" ry="24.75"/>
<text xml:space="preserve" text-anchor="middle" x="91.5" y="-859.8" font-family="Helvetica,sans-Serif" font-size="11.00">Stop: name the</text>
<text xml:space="preserve" text-anchor="middle" x="91.5" y="-846.3" font-family="Helvetica,sans-Serif" font-size="11.00">missing prerequisite</text>
</g>
<!-- prereq&#45;&gt;missing -->
<g id="edge2" class="edge">
<title>prereq&#45;&gt;missing</title>
<path fill="none" stroke="black" d="M103.35,-932C101.38,-919.63 99.12,-905.45 97.1,-892.82"/>
<polygon fill="black" stroke="black" points="100.6,-892.58 95.57,-883.25 93.69,-893.68 100.6,-892.58"/>
<text xml:space="preserve" text-anchor="middle" x="106" y="-902.74" font-family="Helvetica,sans-Serif" font-size="10.00">no</text>
</g>
<!-- harness -->
<g id="node4" class="node">
<title>harness</title>
<path fill="none" stroke="black" d="M278.73,-872.41C278.73,-872.41 211.47,-859.08 211.47,-859.08 205.58,-857.91 205.58,-855.58 211.47,-854.41 211.47,-854.41 278.73,-841.08 278.73,-841.08 284.61,-839.91 296.39,-839.91 302.27,-841.08 302.27,-841.08 369.53,-854.41 369.53,-854.41 375.42,-855.58 375.42,-857.91 369.53,-859.08 369.53,-859.08 302.27,-872.41 302.27,-872.41 296.39,-873.58 284.61,-873.58 278.73,-872.41"/>
<text xml:space="preserve" text-anchor="middle" x="290.5" y="-853.05" font-family="Helvetica,sans-Serif" font-size="11.00">Which harness?</text>
</g>
<!-- prereq&#45;&gt;harness -->
<g id="edge3" class="edge">
<title>prereq&#45;&gt;harness</title>
<path fill="none" stroke="black" d="M142.73,-944.21C175.9,-924.8 225.83,-895.59 258.29,-876.59"/>
<polygon fill="black" stroke="black" points="260.01,-879.64 266.87,-871.57 256.47,-873.6 260.01,-879.64"/>
<text xml:space="preserve" text-anchor="middle" x="224.43" y="-902.74" font-family="Helvetica,sans-Serif" font-size="10.00">yes</text>
</g>
<!-- cc -->
<g id="node5" class="node">
<title>cc</title>
<path fill="none" stroke="black" d="M181,-716.75C181,-716.75 12,-716.75 12,-716.75 6,-716.75 0,-710.75 0,-704.75 0,-704.75 0,-680.25 0,-680.25 0,-674.25 6,-668.25 12,-668.25 12,-668.25 181,-668.25 181,-668.25 187,-668.25 193,-674.25 193,-680.25 193,-680.25 193,-704.75 193,-704.75 193,-710.75 187,-716.75 181,-716.75"/>
<text xml:space="preserve" text-anchor="middle" x="96.5" y="-702.3" font-family="Helvetica,sans-Serif" font-size="11.00">Claude Code or Codex:</text>
<text xml:space="preserve" text-anchor="middle" x="96.5" y="-688.8" font-family="Helvetica,sans-Serif" font-size="11.00">install the Sudus plugin</text>
<text xml:space="preserve" text-anchor="middle" x="96.5" y="-675.3" font-family="Helvetica,sans-Serif" font-size="11.00">(hooks registered by the plugin)</text>
</g>
<!-- harness&#45;&gt;cc -->
<g id="edge4" class="edge">
<title>harness&#45;&gt;cc</title>
<path fill="none" stroke="black" d="M253.41,-845.64C233.1,-838.89 208.28,-828.55 189.25,-814 158.01,-790.11 131.72,-753.22 115.2,-726.55"/>
<polygon fill="black" stroke="black" points="118.31,-724.92 110.14,-718.17 112.31,-728.54 118.31,-724.92"/>
<text xml:space="preserve" text-anchor="middle" x="238.38" y="-804.5" font-family="Helvetica,sans-Serif" font-size="10.00">Claude Code, Codex</text>
</g>
<!-- muse -->
<g id="node6" class="node">
<title>muse</title>
<path fill="none" stroke="black" d="M379,-716.75C379,-716.75 210,-716.75 210,-716.75 204,-716.75 198,-710.75 198,-704.75 198,-704.75 198,-680.25 198,-680.25 198,-674.25 204,-668.25 210,-668.25 210,-668.25 379,-668.25 379,-668.25 385,-668.25 391,-674.25 391,-680.25 391,-680.25 391,-704.75 391,-704.75 391,-710.75 385,-716.75 379,-716.75"/>
<text xml:space="preserve" text-anchor="middle" x="294.5" y="-702.3" font-family="Helvetica,sans-Serif" font-size="11.00">Muse:</text>
<text xml:space="preserve" text-anchor="middle" x="294.5" y="-688.8" font-family="Helvetica,sans-Serif" font-size="11.00">install the Sudus plugin</text>
<text xml:space="preserve" text-anchor="middle" x="294.5" y="-675.3" font-family="Helvetica,sans-Serif" font-size="11.00">(hooks registered by the plugin)</text>
</g>
<!-- harness&#45;&gt;muse -->
<g id="edge5" class="edge">
<title>harness&#45;&gt;muse</title>
<path fill="none" stroke="black" d="M290.93,-838.38C291.57,-812.2 292.81,-762.09 293.64,-728.23"/>
<polygon fill="black" stroke="black" points="297.14,-728.59 293.88,-718.51 290.14,-728.42 297.14,-728.59"/>
<text xml:space="preserve" text-anchor="middle" x="304.95" y="-804.5" font-family="Helvetica,sans-Serif" font-size="10.00">Muse</text>
</g>
<!-- other -->
<g id="node7" class="node">
<title>other</title>
<path fill="none" stroke="black" d="M520.5,-783.25C520.5,-783.25 330.5,-783.25 330.5,-783.25 324.5,-783.25 318.5,-777.25 318.5,-771.25 318.5,-771.25 318.5,-746.75 318.5,-746.75 318.5,-740.75 324.5,-734.75 330.5,-734.75 330.5,-734.75 520.5,-734.75 520.5,-734.75 526.5,-734.75 532.5,-740.75 532.5,-746.75 532.5,-746.75 532.5,-771.25 532.5,-771.25 532.5,-777.25 526.5,-783.25 520.5,-783.25"/>
<text xml:space="preserve" text-anchor="middle" x="425.5" y="-768.8" font-family="Helvetica,sans-Serif" font-size="11.00">Any other agent:</text>
<text xml:space="preserve" text-anchor="middle" x="425.5" y="-755.3" font-family="Helvetica,sans-Serif" font-size="11.00">install the skills, then /install&#45;sudus;</text>
<text xml:space="preserve" text-anchor="middle" x="425.5" y="-741.8" font-family="Helvetica,sans-Serif" font-size="11.00">register hooks where supported</text>
</g>
<!-- harness&#45;&gt;other -->
<g id="edge6" class="edge">
<title>harness&#45;&gt;other</title>
<path fill="none" stroke="black" d="M309.56,-842.23C328.57,-828.75 358.42,-807.58 383.07,-790.09"/>
<polygon fill="black" stroke="black" points="384.86,-793.11 390.99,-784.47 380.81,-787.4 384.86,-793.11"/>
<text xml:space="preserve" text-anchor="middle" x="378.83" y="-804.5" font-family="Helvetica,sans-Serif" font-size="10.00">other</text>
</g>
<!-- link -->
<g id="node9" class="node">
<title>link</title>
<path fill="none" stroke="black" d="M431.5,-577.25C431.5,-577.25 97.5,-577.25 97.5,-577.25 91.5,-577.25 85.5,-571.25 85.5,-565.25 85.5,-565.25 85.5,-540.75 85.5,-540.75 85.5,-534.75 91.5,-528.75 97.5,-528.75 97.5,-528.75 431.5,-528.75 431.5,-528.75 437.5,-528.75 443.5,-534.75 443.5,-540.75 443.5,-540.75 443.5,-565.25 443.5,-565.25 443.5,-571.25 437.5,-577.25 431.5,-577.25"/>
<text xml:space="preserve" text-anchor="middle" x="264.5" y="-562.8" font-family="Helvetica,sans-Serif" font-size="11.00">/install&#45;sudus installs the shim bin/sudus.sh</text>
<text xml:space="preserve" text-anchor="middle" x="264.5" y="-549.3" font-family="Helvetica,sans-Serif" font-size="11.00">at ~/.local/bin/sudus, once; it runs the newest installed Sudus</text>
<text xml:space="preserve" text-anchor="middle" x="264.5" y="-535.8" font-family="Helvetica,sans-Serif" font-size="11.00">(no project remote is selected here)</text>
</g>
<!-- cc&#45;&gt;link -->
<g id="edge8" class="edge">
<title>cc&#45;&gt;link</title>
<path fill="none" stroke="black" d="M125.38,-667.86C153.47,-644.87 196.29,-609.82 227,-584.69"/>
<polygon fill="black" stroke="black" points="229.02,-587.56 234.54,-578.51 224.59,-582.14 229.02,-587.56"/>
</g>
<!-- muse&#45;&gt;link -->
<g id="edge9" class="edge">
<title>muse&#45;&gt;link</title>
<path fill="none" stroke="black" d="M252.58,-667.85C246.9,-662.79 241.88,-656.93 238.5,-650.25 228.55,-630.57 234.95,-606.63 243.88,-587.56"/>
<polygon fill="black" stroke="black" points="246.89,-589.36 248.33,-578.87 240.66,-586.17 246.89,-589.36"/>
</g>
<!-- nohooks -->
<g id="node8" class="node">
<title>nohooks</title>
<path fill="none" stroke="black" d="M487.62,-650.25C487.62,-650.25 259.38,-650.25 259.38,-650.25 253.38,-650.25 247.38,-644.25 247.38,-638.25 247.38,-638.25 247.38,-626.25 247.38,-626.25 247.38,-620.25 253.38,-614.25 259.38,-614.25 259.38,-614.25 487.62,-614.25 487.62,-614.25 493.62,-614.25 499.62,-620.25 499.62,-626.25 499.62,-626.25 499.62,-638.25 499.62,-638.25 499.62,-644.25 493.62,-650.25 487.62,-650.25"/>
<text xml:space="preserve" text-anchor="middle" x="373.5" y="-635.3" font-family="Helvetica,sans-Serif" font-size="11.00">No hook system: instruction&#45;only;</text>
<text xml:space="preserve" text-anchor="middle" x="373.5" y="-621.8" font-family="Helvetica,sans-Serif" font-size="11.00">the working agreement is the enforcement</text>
</g>
<!-- other&#45;&gt;nohooks -->
<g id="edge7" class="edge">
<title>other&#45;&gt;nohooks</title>
<path fill="none" stroke="black" d="M421.05,-734.28C417,-715.67 410.02,-689.47 399.5,-668.25 398.13,-665.48 396.53,-662.71 394.82,-660"/>
<polygon fill="black" stroke="black" points="397.74,-658.07 389.16,-651.86 391.99,-662.07 397.74,-658.07"/>
<text xml:space="preserve" text-anchor="middle" x="438.75" y="-689.37" font-family="Helvetica,sans-Serif" font-size="10.00">no hooks</text>
</g>
<!-- other&#45;&gt;link -->
<g id="edge10" class="edge">
<title>other&#45;&gt;link</title>
<path fill="none" stroke="black" d="M456.32,-734.33C491.09,-704.75 539.06,-653.27 508.5,-614.25 497.61,-600.34 469.19,-589.2 435.42,-580.47"/>
<polygon fill="black" stroke="black" points="436.3,-577.08 425.75,-578.08 434.62,-583.88 436.3,-577.08"/>
</g>
<!-- nohooks&#45;&gt;link -->
<g id="edge11" class="edge">
<title>nohooks&#45;&gt;link</title>
<path fill="none" stroke="black" d="M349.04,-613.91C336.68,-605.15 321.33,-594.27 307.11,-584.2"/>
<polygon fill="black" stroke="black" points="309.39,-581.52 299.21,-578.59 305.34,-587.23 309.39,-581.52"/>
</g>
<!-- path -->
<g id="node10" class="node">
<title>path</title>
<path fill="none" stroke="black" d="M252.64,-489.92C252.64,-489.92 159.77,-475.58 159.77,-475.58 153.84,-474.66 153.84,-472.83 159.77,-471.92 159.77,-471.92 252.64,-457.58 252.64,-457.58 258.57,-456.66 270.43,-456.66 276.36,-457.58 276.36,-457.58 369.23,-471.92 369.23,-471.92 375.16,-472.83 375.16,-474.66 369.23,-475.58 369.23,-475.58 276.36,-489.92 276.36,-489.92 270.43,-490.83 258.57,-490.83 252.64,-489.92"/>
<text xml:space="preserve" text-anchor="middle" x="264.5" y="-470.05" font-family="Helvetica,sans-Serif" font-size="11.00">~/.local/bin on PATH?</text>
</g>
<!-- link&#45;&gt;path -->
<g id="edge12" class="edge">
<title>link&#45;&gt;path</title>
<path fill="none" stroke="black" d="M264.5,-528.4C264.5,-520.53 264.5,-511.67 264.5,-503.46"/>
<polygon fill="black" stroke="black" points="268,-503.59 264.5,-493.59 261,-503.59 268,-503.59"/>
</g>
<!-- addpath -->
<g id="node11" class="node">
<title>addpath</title>
<path fill="none" stroke="black" d="M276.62,-407C276.62,-407 132.38,-407 132.38,-407 126.38,-407 120.38,-401 120.38,-395 120.38,-395 120.38,-383 120.38,-383 120.38,-377 126.38,-371 132.38,-371 132.38,-371 276.62,-371 276.62,-371 282.62,-371 288.62,-377 288.62,-383 288.62,-383 288.62,-395 288.62,-395 288.62,-401 282.62,-407 276.62,-407"/>
<text xml:space="preserve" text-anchor="middle" x="204.5" y="-392.05" font-family="Helvetica,sans-Serif" font-size="11.00">Tell the developer to add it;</text>
<text xml:space="preserve" text-anchor="middle" x="204.5" y="-378.55" font-family="Helvetica,sans-Serif" font-size="11.00">no hook edits the shell</text>
</g>
<!-- path&#45;&gt;addpath -->
<g id="edge13" class="edge">
<title>path&#45;&gt;addpath</title>
<path fill="none" stroke="black" d="M253.21,-457.18C244.91,-445.73 233.42,-429.88 223.69,-416.46"/>
<polygon fill="black" stroke="black" points="226.57,-414.47 217.87,-408.43 220.9,-418.58 226.57,-414.47"/>
<text xml:space="preserve" text-anchor="middle" x="244.09" y="-428.25" font-family="Helvetica,sans-Serif" font-size="10.00">no</text>
</g>
<!-- help -->
<g id="node12" class="node">
<title>help</title>
<path fill="none" stroke="black" d="M253,-330.59C253,-330.59 158,-302.41 158,-302.41 152.25,-300.7 152.25,-297.29 158,-295.59 158,-295.59 253,-267.41 253,-267.41 258.75,-265.7 270.25,-265.7 276,-267.41 276,-267.41 371,-295.59 371,-295.59 376.75,-297.29 376.75,-300.7 371,-302.41 371,-302.41 276,-330.59 276,-330.59 270.25,-332.29 258.75,-332.29 253,-330.59"/>
<text xml:space="preserve" text-anchor="middle" x="264.5" y="-302.05" font-family="Helvetica,sans-Serif" font-size="11.00">sudus &#45;&#45;help prints</text>
<text xml:space="preserve" text-anchor="middle" x="264.5" y="-288.55" font-family="Helvetica,sans-Serif" font-size="11.00">the command list?</text>
</g>
<!-- path&#45;&gt;help -->
<g id="edge14" class="edge">
<title>path&#45;&gt;help</title>
<path fill="none" stroke="black" d="M275,-457.07C282.93,-444.23 293.17,-425.27 297.5,-407 301.19,-391.43 300.95,-386.62 297.5,-371 295.17,-360.47 291.12,-349.65 286.63,-339.73"/>
<polygon fill="black" stroke="black" points="289.8,-338.24 282.31,-330.74 283.49,-341.27 289.8,-338.24"/>
<text xml:space="preserve" text-anchor="middle" x="308.8" y="-385.87" font-family="Helvetica,sans-Serif" font-size="10.00">yes</text>
</g>
<!-- addpath&#45;&gt;help -->
<g id="edge15" class="edge">
<title>addpath&#45;&gt;help</title>
<path fill="none" stroke="black" d="M216.35,-370.61C222.76,-361.22 230.93,-349.24 238.71,-337.82"/>
<polygon fill="black" stroke="black" points="241.52,-339.92 244.26,-329.68 235.74,-335.97 241.52,-339.92"/>
</g>
<!-- broken -->
<g id="node13" class="node">
<title>broken</title>
<ellipse fill="none" stroke="black" cx="247.5" cy="-190.5" rx="114.2" ry="24.75"/>
<text xml:space="preserve" text-anchor="middle" x="247.5" y="-193.55" font-family="Helvetica,sans-Serif" font-size="11.00">Stop: name the failure</text>
<text xml:space="preserve" text-anchor="middle" x="247.5" y="-180.05" font-family="Helvetica,sans-Serif" font-size="11.00">(link target, PATH or node)</text>
</g>
<!-- help&#45;&gt;broken -->
<g id="edge16" class="edge">
<title>help&#45;&gt;broken</title>
<path fill="none" stroke="black" d="M259.26,-265.18C257.32,-253.04 255.12,-239.24 253.15,-226.89"/>
<polygon fill="black" stroke="black" points="256.62,-226.41 251.58,-217.08 249.7,-227.51 256.62,-226.41"/>
<text xml:space="preserve" text-anchor="middle" x="262" y="-236.5" font-family="Helvetica,sans-Serif" font-size="10.00">no</text>
</g>
<!-- project -->
<g id="node14" class="node">
<title>project</title>
<path fill="none" stroke="black" d="M502.61,-206.91C502.61,-206.91 391.29,-192.08 391.29,-192.08 385.34,-191.29 385.34,-189.71 391.29,-188.91 391.29,-188.91 502.61,-174.08 502.61,-174.08 508.55,-173.29 520.45,-173.29 526.39,-174.08 526.39,-174.08 637.71,-188.91 637.71,-188.91 643.66,-189.71 643.66,-191.29 637.71,-192.08 637.71,-192.08 526.39,-206.91 526.39,-206.91 520.45,-207.71 508.55,-207.71 502.61,-206.91"/>
<text xml:space="preserve" text-anchor="middle" x="514.5" y="-186.8" font-family="Helvetica,sans-Serif" font-size="11.00">Initialized Sudus project?</text>
</g>
<!-- help&#45;&gt;project -->
<g id="edge17" class="edge">
<title>help&#45;&gt;project</title>
<path fill="none" stroke="black" d="M312.11,-277.72C358.57,-257.92 428.55,-228.11 472.86,-209.24"/>
<polygon fill="black" stroke="black" points="474.05,-212.54 481.87,-205.4 471.3,-206.1 474.05,-212.54"/>
<text xml:space="preserve" text-anchor="middle" x="420.52" y="-236.5" font-family="Helvetica,sans-Serif" font-size="10.00">yes</text>
</g>
<!-- wake -->
<g id="node15" class="node">
<title>wake</title>
<path fill="none" stroke="black" d="M450.25,-117C450.25,-117 318.75,-117 318.75,-117 312.75,-117 306.75,-111 306.75,-105 306.75,-105 306.75,-93 306.75,-93 306.75,-87 312.75,-81 318.75,-81 318.75,-81 450.25,-81 450.25,-81 456.25,-81 462.25,-87 462.25,-93 462.25,-93 462.25,-105 462.25,-105 462.25,-111 456.25,-117 450.25,-117"/>
<text xml:space="preserve" text-anchor="middle" x="384.5" y="-102.05" font-family="Helvetica,sans-Serif" font-size="11.00">Session&#45;start hook prints</text>
<text xml:space="preserve" text-anchor="middle" x="384.5" y="-88.55" font-family="Helvetica,sans-Serif" font-size="11.00">the verdict and predicate</text>
</g>
<!-- project&#45;&gt;wake -->
<g id="edge18" class="edge">
<title>project&#45;&gt;wake</title>
<path fill="none" stroke="black" d="M493.32,-174.92C473.22,-161.08 442.63,-140.02 419,-123.75"/>
<polygon fill="black" stroke="black" points="421.15,-120.98 410.92,-118.19 417.18,-126.75 421.15,-120.98"/>
<text xml:space="preserve" text-anchor="middle" x="462.02" y="-138.25" font-family="Helvetica,sans-Serif" font-size="10.00">yes</text>
</g>
<!-- choose -->
<g id="node16" class="node">
<title>choose</title>
<path fill="none" stroke="black" d="M708.62,-117C708.62,-117 492.38,-117 492.38,-117 486.38,-117 480.38,-111 480.38,-105 480.38,-105 480.38,-93 480.38,-93 480.38,-87 486.38,-81 492.38,-81 492.38,-81 708.62,-81 708.62,-81 714.62,-81 720.62,-87 720.62,-93 720.62,-93 720.62,-105 720.62,-105 720.62,-111 714.62,-117 708.62,-117"/>
<text xml:space="preserve" text-anchor="middle" x="600.5" y="-102.05" font-family="Helvetica,sans-Serif" font-size="11.00">Choose /new&#45;project or /existing&#45;project;</text>
<text xml:space="preserve" text-anchor="middle" x="600.5" y="-88.55" font-family="Helvetica,sans-Serif" font-size="11.00">the chosen flow runs sudus init</text>
</g>
<!-- project&#45;&gt;choose -->
<g id="edge19" class="edge">
<title>project&#45;&gt;choose</title>
<path fill="none" stroke="black" d="M529.09,-174.32C541.87,-161.02 560.7,-141.42 575.82,-125.68"/>
<polygon fill="black" stroke="black" points="578.32,-128.13 582.73,-118.5 573.27,-123.28 578.32,-128.13"/>
<text xml:space="preserve" text-anchor="middle" x="571.2" y="-138.25" font-family="Helvetica,sans-Serif" font-size="10.00">no</text>
</g>
<!-- done -->
<g id="node17" class="node">
<title>done</title>
<path fill="none" stroke="black" d="M599.25,-40C599.25,-40 383.75,-40 383.75,-40 377.75,-40 371.75,-34 371.75,-28 371.75,-28 371.75,-16 371.75,-16 371.75,-10 377.75,-4 383.75,-4 383.75,-4 599.25,-4 599.25,-4 605.25,-4 611.25,-10 611.25,-16 611.25,-16 611.25,-28 611.25,-28 611.25,-34 605.25,-40 599.25,-40"/>
<path fill="none" stroke="black" d="M603.25,-44C603.25,-44 379.75,-44 379.75,-44 373.75,-44 367.75,-38 367.75,-32 367.75,-32 367.75,-12 367.75,-12 367.75,-6 373.75,0 379.75,0 379.75,0 603.25,0 603.25,0 609.25,0 615.25,-6 615.25,-12 615.25,-12 615.25,-32 615.25,-32 615.25,-38 609.25,-44 603.25,-44"/>
<text xml:space="preserve" text-anchor="middle" x="491.5" y="-25.05" font-family="Helvetica,sans-Serif" font-size="11.00">Done: command and skills are available;</text>
<text xml:space="preserve" text-anchor="middle" x="491.5" y="-11.55" font-family="Helvetica,sans-Serif" font-size="11.00">hooks are registered where supported</text>
</g>
<!-- wake&#45;&gt;done -->
<g id="edge20" class="edge">
<title>wake&#45;&gt;done</title>
<path fill="none" stroke="black" d="M409.32,-80.6C421.98,-71.73 437.68,-60.72 451.96,-50.72"/>
<polygon fill="black" stroke="black" points="453.67,-53.79 459.85,-45.19 449.65,-48.06 453.67,-53.79"/>
</g>
<!-- choose&#45;&gt;done -->
<g id="edge21" class="edge">
<title>choose&#45;&gt;done</title>
<path fill="none" stroke="black" d="M575.22,-80.6C562.32,-71.73 546.32,-60.72 531.78,-50.72"/>
<polygon fill="black" stroke="black" points="533.95,-47.96 523.73,-45.17 529.98,-53.73 533.95,-47.96"/>
</g>
</g>
</svg>
