<?xml version="1.0" encoding="UTF-8" standalone="no"?>
<!DOCTYPE svg PUBLIC "-//W3C//DTD SVG 1.1//EN"
 "http://www.w3.org/Graphics/SVG/1.1/DTD/svg11.dtd">
<!-- Generated by graphviz version 13.1.2 (20250809.0930)
 -->
<!-- Title: install Pages: 1 -->
<svg width="724pt" height="1116pt"
 viewBox="0.00 0.00 724.00 1116.00" xmlns="http://www.w3.org/2000/svg" xmlns:xlink="http://www.w3.org/1999/xlink">
<g id="graph0" class="graph" transform="scale(1 1) rotate(0) translate(4 1112.24)">
<title>install</title>
<polygon fill="white" stroke="none" points="-4,4 -4,-1112.24 719.62,-1112.24 719.62,4 -4,4"/>
<text xml:space="preserve" text-anchor="middle" x="357.81" y="-1093.79" font-family="Helvetica,sans-Serif" font-size="11.00">Install: start to done</text>
<!-- start -->
<g id="node1" class="node">
<title>start</title>
<ellipse fill="none" stroke="black" cx="109.5" cy="-1061.99" rx="73.89" ry="24.75"/>
<text xml:space="preserve" text-anchor="middle" x="109.5" y="-1065.04" font-family="Helvetica,sans-Serif" font-size="11.00">Start: a harness</text>
<text xml:space="preserve" text-anchor="middle" x="109.5" y="-1051.54" font-family="Helvetica,sans-Serif" font-size="11.00">with no Cairn</text>
</g>
<!-- prereq -->
<g id="node2" class="node">
<title>prereq</title>
<path fill="none" stroke="black" d="M98.4,-995.68C98.4,-995.68 35.6,-969.81 35.6,-969.81 30.05,-967.53 30.05,-962.96 35.6,-960.68 35.6,-960.68 98.4,-934.81 98.4,-934.81 103.95,-932.53 115.05,-932.53 120.6,-934.81 120.6,-934.81 183.4,-960.68 183.4,-960.68 188.95,-962.96 188.95,-967.53 183.4,-969.81 183.4,-969.81 120.6,-995.68 120.6,-995.68 115.05,-997.96 103.95,-997.96 98.4,-995.68"/>
<text xml:space="preserve" text-anchor="middle" x="109.5" y="-968.29" font-family="Helvetica,sans-Serif" font-size="11.00">node and git</text>
<text xml:space="preserve" text-anchor="middle" x="109.5" y="-954.79" font-family="Helvetica,sans-Serif" font-size="11.00">available?</text>
</g>
<!-- start&#45;&gt;prereq -->
<g id="edge1" class="edge">
<title>start&#45;&gt;prereq</title>
<path fill="none" stroke="black" d="M109.5,-1037.08C109.5,-1029.38 109.5,-1020.58 109.5,-1011.85"/>
<polygon fill="black" stroke="black" points="113,-1012.04 109.5,-1002.04 106,-1012.04 113,-1012.04"/>
</g>
<!-- missing -->
<g id="node3" class="node">
<title>missing</title>
<ellipse fill="none" stroke="black" cx="92.5" cy="-856.75" rx="90.33" ry="24.75"/>
<text xml:space="preserve" text-anchor="middle" x="92.5" y="-859.8" font-family="Helvetica,sans-Serif" font-size="11.00">Stop: name the</text>
<text xml:space="preserve" text-anchor="middle" x="92.5" y="-846.3" font-family="Helvetica,sans-Serif" font-size="11.00">missing prerequisite</text>
</g>
<!-- prereq&#45;&gt;missing -->
<g id="edge2" class="edge">
<title>prereq&#45;&gt;missing</title>
<path fill="none" stroke="black" d="M104.35,-932C102.38,-919.63 100.12,-905.45 98.1,-892.82"/>
<polygon fill="black" stroke="black" points="101.6,-892.58 96.57,-883.25 94.69,-893.68 101.6,-892.58"/>
<text xml:space="preserve" text-anchor="middle" x="107" y="-902.74" font-family="Helvetica,sans-Serif" font-size="10.00">no</text>
</g>
<!-- harness -->
<g id="node4" class="node">
<title>harness</title>
<path fill="none" stroke="black" d="M279.73,-872.41C279.73,-872.41 212.47,-859.08 212.47,-859.08 206.58,-857.91 206.58,-855.58 212.47,-854.41 212.47,-854.41 279.73,-841.08 279.73,-841.08 285.61,-839.91 297.39,-839.91 303.27,-841.08 303.27,-841.08 370.53,-854.41 370.53,-854.41 376.42,-855.58 376.42,-857.91 370.53,-859.08 370.53,-859.08 303.27,-872.41 303.27,-872.41 297.39,-873.58 285.61,-873.58 279.73,-872.41"/>
<text xml:space="preserve" text-anchor="middle" x="291.5" y="-853.05" font-family="Helvetica,sans-Serif" font-size="11.00">Which harness?</text>
</g>
<!-- prereq&#45;&gt;harness -->
<g id="edge3" class="edge">
<title>prereq&#45;&gt;harness</title>
<path fill="none" stroke="black" d="M143.73,-944.21C176.9,-924.8 226.83,-895.59 259.29,-876.59"/>
<polygon fill="black" stroke="black" points="261.01,-879.64 267.87,-871.57 257.47,-873.6 261.01,-879.64"/>
<text xml:space="preserve" text-anchor="middle" x="225.43" y="-902.74" font-family="Helvetica,sans-Serif" font-size="10.00">yes</text>
</g>
<!-- cc -->
<g id="node5" class="node">
<title>cc</title>
<path fill="none" stroke="black" d="M181,-716.75C181,-716.75 12,-716.75 12,-716.75 6,-716.75 0,-710.75 0,-704.75 0,-704.75 0,-680.25 0,-680.25 0,-674.25 6,-668.25 12,-668.25 12,-668.25 181,-668.25 181,-668.25 187,-668.25 193,-674.25 193,-680.25 193,-680.25 193,-704.75 193,-704.75 193,-710.75 187,-716.75 181,-716.75"/>
<text xml:space="preserve" text-anchor="middle" x="96.5" y="-702.3" font-family="Helvetica,sans-Serif" font-size="11.00">Claude Code or Codex:</text>
<text xml:space="preserve" text-anchor="middle" x="96.5" y="-688.8" font-family="Helvetica,sans-Serif" font-size="11.00">install the Cairn plugin</text>
<text xml:space="preserve" text-anchor="middle" x="96.5" y="-675.3" font-family="Helvetica,sans-Serif" font-size="11.00">(hooks registered by the plugin)</text>
</g>
<!-- harness&#45;&gt;cc -->
<g id="edge4" class="edge">
<title>harness&#45;&gt;cc</title>
<path fill="none" stroke="black" d="M254.44,-845.6C234.14,-838.84 209.32,-828.5 190.25,-814 158.82,-790.09 132.23,-753.2 115.48,-726.54"/>
<polygon fill="black" stroke="black" points="118.55,-724.86 110.35,-718.16 112.59,-728.51 118.55,-724.86"/>
<text xml:space="preserve" text-anchor="middle" x="239.38" y="-804.5" font-family="Helvetica,sans-Serif" font-size="10.00">Claude Code, Codex</text>
</g>
<!-- muse -->
<g id="node6" class="node">
<title>muse</title>
<path fill="none" stroke="black" d="M379,-716.75C379,-716.75 210,-716.75 210,-716.75 204,-716.75 198,-710.75 198,-704.75 198,-704.75 198,-680.25 198,-680.25 198,-674.25 204,-668.25 210,-668.25 210,-668.25 379,-668.25 379,-668.25 385,-668.25 391,-674.25 391,-680.25 391,-680.25 391,-704.75 391,-704.75 391,-710.75 385,-716.75 379,-716.75"/>
<text xml:space="preserve" text-anchor="middle" x="294.5" y="-702.3" font-family="Helvetica,sans-Serif" font-size="11.00">Muse:</text>
<text xml:space="preserve" text-anchor="middle" x="294.5" y="-688.8" font-family="Helvetica,sans-Serif" font-size="11.00">install the Cairn plugin</text>
<text xml:space="preserve" text-anchor="middle" x="294.5" y="-675.3" font-family="Helvetica,sans-Serif" font-size="11.00">(hooks registered by the plugin)</text>
</g>
<!-- harness&#45;&gt;muse -->
<g id="edge5" class="edge">
<title>harness&#45;&gt;muse</title>
<path fill="none" stroke="black" d="M291.82,-838.38C292.31,-812.2 293.23,-762.09 293.86,-728.23"/>
<polygon fill="black" stroke="black" points="297.35,-728.57 294.04,-718.51 290.35,-728.44 297.35,-728.57"/>
<text xml:space="preserve" text-anchor="middle" x="305.62" y="-804.5" font-family="Helvetica,sans-Serif" font-size="10.00">Muse</text>
</g>
<!-- other -->
<g id="node7" class="node">
<title>other</title>
<path fill="none" stroke="black" d="M515.88,-783.25C515.88,-783.25 331.12,-783.25 331.12,-783.25 325.12,-783.25 319.12,-777.25 319.12,-771.25 319.12,-771.25 319.12,-746.75 319.12,-746.75 319.12,-740.75 325.12,-734.75 331.12,-734.75 331.12,-734.75 515.88,-734.75 515.88,-734.75 521.88,-734.75 527.88,-740.75 527.88,-746.75 527.88,-746.75 527.88,-771.25 527.88,-771.25 527.88,-777.25 521.88,-783.25 515.88,-783.25"/>
<text xml:space="preserve" text-anchor="middle" x="423.5" y="-768.8" font-family="Helvetica,sans-Serif" font-size="11.00">Any other agent:</text>
<text xml:space="preserve" text-anchor="middle" x="423.5" y="-755.3" font-family="Helvetica,sans-Serif" font-size="11.00">install the skills, then /install&#45;cairn;</text>
<text xml:space="preserve" text-anchor="middle" x="423.5" y="-741.8" font-family="Helvetica,sans-Serif" font-size="11.00">register hooks where supported</text>
</g>
<!-- harness&#45;&gt;other -->
<g id="edge6" class="edge">
<title>harness&#45;&gt;other</title>
<path fill="none" stroke="black" d="M310.41,-842.03C328.91,-828.61 357.72,-807.71 381.63,-790.37"/>
<polygon fill="black" stroke="black" points="383.59,-793.27 389.63,-784.57 379.48,-787.61 383.59,-793.27"/>
<text xml:space="preserve" text-anchor="middle" x="378.15" y="-804.5" font-family="Helvetica,sans-Serif" font-size="10.00">other</text>
</g>
<!-- link -->
<g id="node9" class="node">
<title>link</title>
<path fill="none" stroke="black" d="M425.62,-577.25C425.62,-577.25 101.38,-577.25 101.38,-577.25 95.38,-577.25 89.38,-571.25 89.38,-565.25 89.38,-565.25 89.38,-540.75 89.38,-540.75 89.38,-534.75 95.38,-528.75 101.38,-528.75 101.38,-528.75 425.62,-528.75 425.62,-528.75 431.62,-528.75 437.62,-534.75 437.62,-540.75 437.62,-540.75 437.62,-565.25 437.62,-565.25 437.62,-571.25 431.62,-577.25 425.62,-577.25"/>
<text xml:space="preserve" text-anchor="middle" x="263.5" y="-562.8" font-family="Helvetica,sans-Serif" font-size="11.00">/install&#45;cairn installs the shim bin/cairn.sh</text>
<text xml:space="preserve" text-anchor="middle" x="263.5" y="-549.3" font-family="Helvetica,sans-Serif" font-size="11.00">at ~/.local/bin/cairn, once; it runs the newest installed Cairn</text>
<text xml:space="preserve" text-anchor="middle" x="263.5" y="-535.8" font-family="Helvetica,sans-Serif" font-size="11.00">(no project remote is selected here)</text>
</g>
<!-- cc&#45;&gt;link -->
<g id="edge8" class="edge">
<title>cc&#45;&gt;link</title>
<path fill="none" stroke="black" d="M125.21,-667.86C153.13,-644.87 195.7,-609.82 226.22,-584.69"/>
<polygon fill="black" stroke="black" points="228.22,-587.58 233.72,-578.52 223.77,-582.17 228.22,-587.58"/>
</g>
<!-- muse&#45;&gt;link -->
<g id="edge9" class="edge">
<title>muse&#45;&gt;link</title>
<path fill="none" stroke="black" d="M251.85,-667.95C246.06,-662.89 240.94,-656.99 237.5,-650.25 227.47,-630.61 233.86,-606.68 242.82,-587.59"/>
<polygon fill="black" stroke="black" points="245.83,-589.39 247.28,-578.89 239.6,-586.19 245.83,-589.39"/>
</g>
<!-- nohooks -->
<g id="node8" class="node">
<title>nohooks</title>
<path fill="none" stroke="black" d="M486.62,-650.25C486.62,-650.25 258.38,-650.25 258.38,-650.25 252.38,-650.25 246.38,-644.25 246.38,-638.25 246.38,-638.25 246.38,-626.25 246.38,-626.25 246.38,-620.25 252.38,-614.25 258.38,-614.25 258.38,-614.25 486.62,-614.25 486.62,-614.25 492.62,-614.25 498.62,-620.25 498.62,-626.25 498.62,-626.25 498.62,-638.25 498.62,-638.25 498.62,-644.25 492.62,-650.25 486.62,-650.25"/>
<text xml:space="preserve" text-anchor="middle" x="372.5" y="-635.3" font-family="Helvetica,sans-Serif" font-size="11.00">No hook system: instruction&#45;only;</text>
<text xml:space="preserve" text-anchor="middle" x="372.5" y="-621.8" font-family="Helvetica,sans-Serif" font-size="11.00">the working agreement is the enforcement</text>
</g>
<!-- other&#45;&gt;nohooks -->
<g id="edge7" class="edge">
<title>other&#45;&gt;nohooks</title>
<path fill="none" stroke="black" d="M419.37,-734.27C415.56,-715.67 408.88,-689.46 398.5,-668.25 397.14,-665.47 395.56,-662.7 393.85,-659.99"/>
<polygon fill="black" stroke="black" points="396.78,-658.06 388.2,-651.84 391.02,-662.05 396.78,-658.06"/>
<text xml:space="preserve" text-anchor="middle" x="437.29" y="-689.37" font-family="Helvetica,sans-Serif" font-size="10.00">no hooks</text>
</g>
<!-- other&#45;&gt;link -->
<g id="edge10" class="edge">
<title>other&#45;&gt;link</title>
<path fill="none" stroke="black" d="M454.6,-734.37C489.7,-704.83 538.15,-653.39 507.5,-614.25 496.61,-600.34 468.19,-589.2 434.42,-580.47"/>
<polygon fill="black" stroke="black" points="435.3,-577.08 424.75,-578.08 433.62,-583.88 435.3,-577.08"/>
</g>
<!-- nohooks&#45;&gt;link -->
<g id="edge11" class="edge">
<title>nohooks&#45;&gt;link</title>
<path fill="none" stroke="black" d="M348.04,-613.91C335.68,-605.15 320.33,-594.27 306.11,-584.2"/>
<polygon fill="black" stroke="black" points="308.39,-581.52 298.21,-578.59 304.34,-587.23 308.39,-581.52"/>
</g>
<!-- path -->
<g id="node10" class="node">
<title>path</title>
<path fill="none" stroke="black" d="M251.64,-489.92C251.64,-489.92 158.77,-475.58 158.77,-475.58 152.84,-474.66 152.84,-472.83 158.77,-471.92 158.77,-471.92 251.64,-457.58 251.64,-457.58 257.57,-456.66 269.43,-456.66 275.36,-457.58 275.36,-457.58 368.23,-471.92 368.23,-471.92 374.16,-472.83 374.16,-474.66 368.23,-475.58 368.23,-475.58 275.36,-489.92 275.36,-489.92 269.43,-490.83 257.57,-490.83 251.64,-489.92"/>
<text xml:space="preserve" text-anchor="middle" x="263.5" y="-470.05" font-family="Helvetica,sans-Serif" font-size="11.00">~/.local/bin on PATH?</text>
</g>
<!-- link&#45;&gt;path -->
<g id="edge12" class="edge">
<title>link&#45;&gt;path</title>
<path fill="none" stroke="black" d="M263.5,-528.4C263.5,-520.53 263.5,-511.67 263.5,-503.46"/>
<polygon fill="black" stroke="black" points="267,-503.59 263.5,-493.59 260,-503.59 267,-503.59"/>
</g>
<!-- addpath -->
<g id="node11" class="node">
<title>addpath</title>
<path fill="none" stroke="black" d="M275.62,-407C275.62,-407 131.38,-407 131.38,-407 125.38,-407 119.38,-401 119.38,-395 119.38,-395 119.38,-383 119.38,-383 119.38,-377 125.38,-371 131.38,-371 131.38,-371 275.62,-371 275.62,-371 281.62,-371 287.62,-377 287.62,-383 287.62,-383 287.62,-395 287.62,-395 287.62,-401 281.62,-407 275.62,-407"/>
<text xml:space="preserve" text-anchor="middle" x="203.5" y="-392.05" font-family="Helvetica,sans-Serif" font-size="11.00">Tell the developer to add it;</text>
<text xml:space="preserve" text-anchor="middle" x="203.5" y="-378.55" font-family="Helvetica,sans-Serif" font-size="11.00">no hook edits the shell</text>
</g>
<!-- path&#45;&gt;addpath -->
<g id="edge13" class="edge">
<title>path&#45;&gt;addpath</title>
<path fill="none" stroke="black" d="M252.21,-457.18C243.91,-445.73 232.42,-429.88 222.69,-416.46"/>
<polygon fill="black" stroke="black" points="225.57,-414.47 216.87,-408.43 219.9,-418.58 225.57,-414.47"/>
<text xml:space="preserve" text-anchor="middle" x="243.09" y="-428.25" font-family="Helvetica,sans-Serif" font-size="10.00">no</text>
</g>
<!-- help -->
<g id="node12" class="node">
<title>help</title>
<path fill="none" stroke="black" d="M251.76,-331.53C251.76,-331.53 108.49,-301.46 108.49,-301.46 102.62,-300.23 102.62,-297.76 108.49,-296.53 108.49,-296.53 251.76,-266.46 251.76,-266.46 257.63,-265.23 269.37,-265.23 275.24,-266.46 275.24,-266.46 418.51,-296.53 418.51,-296.53 424.38,-297.76 424.38,-300.23 418.51,-301.46 418.51,-301.46 275.24,-331.53 275.24,-331.53 269.37,-332.76 257.63,-332.76 251.76,-331.53"/>
<text xml:space="preserve" text-anchor="middle" x="263.5" y="-302.05" font-family="Helvetica,sans-Serif" font-size="11.00">cairn &#45;&#45;help prints</text>
<text xml:space="preserve" text-anchor="middle" x="263.5" y="-288.55" font-family="Helvetica,sans-Serif" font-size="11.00">commands and exit codes?</text>
</g>
<!-- path&#45;&gt;help -->
<g id="edge14" class="edge">
<title>path&#45;&gt;help</title>
<path fill="none" stroke="black" d="M274,-457.07C281.93,-444.23 292.17,-425.27 296.5,-407 300.19,-391.43 299.95,-386.62 296.5,-371 294.24,-360.76 290.34,-350.25 286.01,-340.56"/>
<polygon fill="black" stroke="black" points="289.29,-339.31 281.83,-331.78 282.97,-342.32 289.29,-339.31"/>
<text xml:space="preserve" text-anchor="middle" x="307.8" y="-385.87" font-family="Helvetica,sans-Serif" font-size="10.00">yes</text>
</g>
<!-- addpath&#45;&gt;help -->
<g id="edge15" class="edge">
<title>addpath&#45;&gt;help</title>
<path fill="none" stroke="black" d="M215.35,-370.61C221.43,-361.7 229.1,-350.46 236.51,-339.58"/>
<polygon fill="black" stroke="black" points="239.33,-341.66 242.07,-331.43 233.54,-337.72 239.33,-341.66"/>
</g>
<!-- broken -->
<g id="node13" class="node">
<title>broken</title>
<ellipse fill="none" stroke="black" cx="246.5" cy="-190.5" rx="114.2" ry="24.75"/>
<text xml:space="preserve" text-anchor="middle" x="246.5" y="-193.55" font-family="Helvetica,sans-Serif" font-size="11.00">Stop: name the failure</text>
<text xml:space="preserve" text-anchor="middle" x="246.5" y="-180.05" font-family="Helvetica,sans-Serif" font-size="11.00">(link target, PATH or node)</text>
</g>
<!-- help&#45;&gt;broken -->
<g id="edge16" class="edge">
<title>help&#45;&gt;broken</title>
<path fill="none" stroke="black" d="M258.21,-264.88C256.28,-252.76 254.08,-239 252.12,-226.7"/>
<polygon fill="black" stroke="black" points="255.6,-226.28 250.56,-216.95 248.68,-227.38 255.6,-226.28"/>
<text xml:space="preserve" text-anchor="middle" x="261" y="-236.5" font-family="Helvetica,sans-Serif" font-size="10.00">no</text>
</g>
<!-- project -->
<g id="node14" class="node">
<title>project</title>
<path fill="none" stroke="black" d="M497.61,-206.87C497.61,-206.87 390.25,-192.13 390.25,-192.13 384.31,-191.31 384.31,-189.68 390.25,-188.87 390.25,-188.87 497.61,-174.13 497.61,-174.13 503.56,-173.31 515.44,-173.31 521.39,-174.13 521.39,-174.13 628.75,-188.87 628.75,-188.87 634.69,-189.68 634.69,-191.31 628.75,-192.13 628.75,-192.13 521.39,-206.87 521.39,-206.87 515.44,-207.68 503.56,-207.68 497.61,-206.87"/>
<text xml:space="preserve" text-anchor="middle" x="509.5" y="-186.8" font-family="Helvetica,sans-Serif" font-size="11.00">Initialized Cairn project?</text>
</g>
<!-- help&#45;&gt;project -->
<g id="edge17" class="edge">
<title>help&#45;&gt;project</title>
<path fill="none" stroke="black" d="M317.18,-274.76C362.73,-255.04 427.12,-227.16 468.59,-209.21"/>
<polygon fill="black" stroke="black" points="469.95,-212.43 477.74,-205.25 467.17,-206.01 469.95,-212.43"/>
<text xml:space="preserve" text-anchor="middle" x="417.16" y="-236.5" font-family="Helvetica,sans-Serif" font-size="10.00">yes</text>
</g>
<!-- wake -->
<g id="node15" class="node">
<title>wake</title>
<path fill="none" stroke="black" d="M445.25,-117C445.25,-117 313.75,-117 313.75,-117 307.75,-117 301.75,-111 301.75,-105 301.75,-105 301.75,-93 301.75,-93 301.75,-87 307.75,-81 313.75,-81 313.75,-81 445.25,-81 445.25,-81 451.25,-81 457.25,-87 457.25,-93 457.25,-93 457.25,-105 457.25,-105 457.25,-111 451.25,-117 445.25,-117"/>
<text xml:space="preserve" text-anchor="middle" x="379.5" y="-102.05" font-family="Helvetica,sans-Serif" font-size="11.00">Session&#45;start hook prints</text>
<text xml:space="preserve" text-anchor="middle" x="379.5" y="-88.55" font-family="Helvetica,sans-Serif" font-size="11.00">the verdict and predicate</text>
</g>
<!-- project&#45;&gt;wake -->
<g id="edge18" class="edge">
<title>project&#45;&gt;wake</title>
<path fill="none" stroke="black" d="M488.32,-174.92C468.22,-161.08 437.63,-140.02 414,-123.75"/>
<polygon fill="black" stroke="black" points="416.15,-120.98 405.92,-118.19 412.18,-126.75 416.15,-120.98"/>
<text xml:space="preserve" text-anchor="middle" x="457.02" y="-138.25" font-family="Helvetica,sans-Serif" font-size="10.00">yes</text>
</g>
<!-- choose -->
<g id="node16" class="node">
<title>choose</title>
<path fill="none" stroke="black" d="M703.62,-117C703.62,-117 487.38,-117 487.38,-117 481.38,-117 475.38,-111 475.38,-105 475.38,-105 475.38,-93 475.38,-93 475.38,-87 481.38,-81 487.38,-81 487.38,-81 703.62,-81 703.62,-81 709.62,-81 715.62,-87 715.62,-93 715.62,-93 715.62,-105 715.62,-105 715.62,-111 709.62,-117 703.62,-117"/>
<text xml:space="preserve" text-anchor="middle" x="595.5" y="-102.05" font-family="Helvetica,sans-Serif" font-size="11.00">Choose /new&#45;project or /existing&#45;project;</text>
<text xml:space="preserve" text-anchor="middle" x="595.5" y="-88.55" font-family="Helvetica,sans-Serif" font-size="11.00">the chosen flow runs cairn init</text>
</g>
<!-- project&#45;&gt;choose -->
<g id="edge19" class="edge">
<title>project&#45;&gt;choose</title>
<path fill="none" stroke="black" d="M524.09,-174.32C536.87,-161.02 555.7,-141.42 570.82,-125.68"/>
<polygon fill="black" stroke="black" points="573.32,-128.13 577.73,-118.5 568.27,-123.28 573.32,-128.13"/>
<text xml:space="preserve" text-anchor="middle" x="566.2" y="-138.25" font-family="Helvetica,sans-Serif" font-size="10.00">no</text>
</g>
<!-- done -->
<g id="node17" class="node">
<title>done</title>
<path fill="none" stroke="black" d="M594.25,-40C594.25,-40 378.75,-40 378.75,-40 372.75,-40 366.75,-34 366.75,-28 366.75,-28 366.75,-16 366.75,-16 366.75,-10 372.75,-4 378.75,-4 378.75,-4 594.25,-4 594.25,-4 600.25,-4 606.25,-10 606.25,-16 606.25,-16 606.25,-28 606.25,-28 606.25,-34 600.25,-40 594.25,-40"/>
<path fill="none" stroke="black" d="M598.25,-44C598.25,-44 374.75,-44 374.75,-44 368.75,-44 362.75,-38 362.75,-32 362.75,-32 362.75,-12 362.75,-12 362.75,-6 368.75,0 374.75,0 374.75,0 598.25,0 598.25,0 604.25,0 610.25,-6 610.25,-12 610.25,-12 610.25,-32 610.25,-32 610.25,-38 604.25,-44 598.25,-44"/>
<text xml:space="preserve" text-anchor="middle" x="486.5" y="-25.05" font-family="Helvetica,sans-Serif" font-size="11.00">Done: command and skills are available;</text>
<text xml:space="preserve" text-anchor="middle" x="486.5" y="-11.55" font-family="Helvetica,sans-Serif" font-size="11.00">hooks are registered where supported</text>
</g>
<!-- wake&#45;&gt;done -->
<g id="edge20" class="edge">
<title>wake&#45;&gt;done</title>
<path fill="none" stroke="black" d="M404.32,-80.6C416.98,-71.73 432.68,-60.72 446.96,-50.72"/>
<polygon fill="black" stroke="black" points="448.67,-53.79 454.85,-45.19 444.65,-48.06 448.67,-53.79"/>
</g>
<!-- choose&#45;&gt;done -->
<g id="edge21" class="edge">
<title>choose&#45;&gt;done</title>
<path fill="none" stroke="black" d="M570.22,-80.6C557.32,-71.73 541.32,-60.72 526.78,-50.72"/>
<polygon fill="black" stroke="black" points="528.95,-47.96 518.73,-45.17 524.98,-53.73 528.95,-47.96"/>
</g>
</g>
</svg>
