<?xml version="1.0" encoding="UTF-8" standalone="no"?>
<!DOCTYPE svg PUBLIC "-//W3C//DTD SVG 1.1//EN"
 "http://www.w3.org/Graphics/SVG/1.1/DTD/svg11.dtd">
<!-- Generated by graphviz version 13.1.2 (20250809.0930)
 -->
<!-- Title: new_project Pages: 1 -->
<svg width="725pt" height="971pt"
 viewBox="0.00 0.00 725.00 971.00" xmlns="http://www.w3.org/2000/svg" xmlns:xlink="http://www.w3.org/1999/xlink">
<g id="graph0" class="graph" transform="scale(1 1) rotate(0) translate(4 966.75)">
<title>new_project</title>
<polygon fill="white" stroke="none" points="-4,4 -4,-966.75 721.25,-966.75 721.25,4 -4,4"/>
<text xml:space="preserve" text-anchor="middle" x="358.62" y="-948.3" font-family="Helvetica,sans-Serif" font-size="11.00">New project: start to the spec&#45;phase tail</text>
<!-- start -->
<g id="node1" class="node">
<title>start</title>
<ellipse fill="none" stroke="black" cx="273.25" cy="-923.25" rx="74.03" ry="18"/>
<text xml:space="preserve" text-anchor="middle" x="273.25" y="-919.55" font-family="Helvetica,sans-Serif" font-size="11.00">Start: /new&#45;project</text>
</g>
<!-- exists -->
<g id="node2" class="node">
<title>exists</title>
<path fill="none" stroke="black" d="M261.35,-866.73C261.35,-866.73 11.9,-834.77 11.9,-834.77 5.95,-834.01 5.95,-832.49 11.9,-831.73 11.9,-831.73 261.35,-799.77 261.35,-799.77 267.3,-799.01 279.2,-799.01 285.15,-799.77 285.15,-799.77 534.6,-831.73 534.6,-831.73 540.55,-832.49 540.55,-834.01 534.6,-834.77 534.6,-834.77 285.15,-866.73 285.15,-866.73 279.2,-867.49 267.3,-867.49 261.35,-866.73"/>
<text xml:space="preserve" text-anchor="middle" x="273.25" y="-836.3" font-family="Helvetica,sans-Serif" font-size="11.00">Source code or docs/spec/overview.md exists?</text>
<text xml:space="preserve" text-anchor="middle" x="273.25" y="-822.8" font-family="Helvetica,sans-Serif" font-size="11.00">(README, license and Git do not count)</text>
</g>
<!-- start&#45;&gt;exists -->
<g id="edge1" class="edge">
<title>start&#45;&gt;exists</title>
<path fill="none" stroke="black" d="M273.25,-904.86C273.25,-897.69 273.25,-889 273.25,-880.21"/>
<polygon fill="black" stroke="black" points="276.75,-880.23 273.25,-870.23 269.75,-880.23 276.75,-880.23"/>
</g>
<!-- switch -->
<g id="node3" class="node">
<title>switch</title>
<ellipse fill="none" stroke="black" cx="253.25" cy="-725.25" rx="99.74" ry="18"/>
<text xml:space="preserve" text-anchor="middle" x="253.25" y="-721.55" font-family="Helvetica,sans-Serif" font-size="11.00">Switch to /existing&#45;project</text>
</g>
<!-- exists&#45;&gt;switch -->
<g id="edge2" class="edge">
<title>exists&#45;&gt;switch</title>
<path fill="none" stroke="black" d="M266.92,-798.71C264.25,-784.54 261.17,-768.22 258.61,-754.66"/>
<polygon fill="black" stroke="black" points="262.09,-754.24 256.8,-745.06 255.21,-755.54 262.09,-754.24"/>
<text xml:space="preserve" text-anchor="middle" x="271.88" y="-770.75" font-family="Helvetica,sans-Serif" font-size="10.00">yes</text>
</g>
<!-- init -->
<g id="node4" class="node">
<title>init</title>
<path fill="none" stroke="black" d="M705.25,-749.5C705.25,-749.5 383.25,-749.5 383.25,-749.5 377.25,-749.5 371.25,-743.5 371.25,-737.5 371.25,-737.5 371.25,-713 371.25,-713 371.25,-707 377.25,-701 383.25,-701 383.25,-701 705.25,-701 705.25,-701 711.25,-701 717.25,-707 717.25,-713 717.25,-713 717.25,-737.5 717.25,-737.5 717.25,-743.5 711.25,-749.5 705.25,-749.5"/>
<text xml:space="preserve" text-anchor="middle" x="544.25" y="-735.05" font-family="Helvetica,sans-Serif" font-size="11.00">Initialize Git if needed; cairn init;</text>
<text xml:space="preserve" text-anchor="middle" x="544.25" y="-721.55" font-family="Helvetica,sans-Serif" font-size="11.00">developer confirms settings, authority remote or local&#45;only,</text>
<text xml:space="preserve" text-anchor="middle" x="544.25" y="-708.05" font-family="Helvetica,sans-Serif" font-size="11.00">and signed or unsigned&#45;local developer authentication</text>
</g>
<!-- exists&#45;&gt;init -->
<g id="edge3" class="edge">
<title>exists&#45;&gt;init</title>
<path fill="none" stroke="black" d="M339.54,-806.32C380.05,-790.48 431.83,-770.22 473.18,-754.05"/>
<polygon fill="black" stroke="black" points="474.28,-757.38 482.32,-750.47 471.73,-750.86 474.28,-757.38"/>
<text xml:space="preserve" text-anchor="middle" x="439.02" y="-770.75" font-family="Helvetica,sans-Serif" font-size="10.00">no</text>
</g>
<!-- ask -->
<g id="node5" class="node">
<title>ask</title>
<path fill="none" stroke="black" d="M609.25,-664C609.25,-664 479.25,-664 479.25,-664 473.25,-664 467.25,-658 467.25,-652 467.25,-652 467.25,-640 467.25,-640 467.25,-634 473.25,-628 479.25,-628 479.25,-628 609.25,-628 609.25,-628 615.25,-628 621.25,-634 621.25,-640 621.25,-640 621.25,-652 621.25,-652 621.25,-658 615.25,-664 609.25,-664"/>
<text xml:space="preserve" text-anchor="middle" x="544.25" y="-649.05" font-family="Helvetica,sans-Serif" font-size="11.00">One open question:</text>
<text xml:space="preserve" text-anchor="middle" x="544.25" y="-635.55" font-family="Helvetica,sans-Serif" font-size="11.00">what is the software for?</text>
</g>
<!-- init&#45;&gt;ask -->
<g id="edge4" class="edge">
<title>init&#45;&gt;ask</title>
<path fill="none" stroke="black" d="M544.25,-700.65C544.25,-692.78 544.25,-683.93 544.25,-675.71"/>
<polygon fill="black" stroke="black" points="547.75,-675.84 544.25,-665.84 540.75,-675.84 547.75,-675.84"/>
</g>
<!-- restate -->
<g id="node6" class="node">
<title>restate</title>
<path fill="none" stroke="black" d="M622.38,-591C622.38,-591 466.12,-591 466.12,-591 460.12,-591 454.12,-585 454.12,-579 454.12,-579 454.12,-567 454.12,-567 454.12,-561 460.12,-555 466.12,-555 466.12,-555 622.38,-555 622.38,-555 628.38,-555 634.38,-561 634.38,-567 634.38,-567 634.38,-579 634.38,-579 634.38,-585 628.38,-591 622.38,-591"/>
<text xml:space="preserve" text-anchor="middle" x="544.25" y="-576.05" font-family="Helvetica,sans-Serif" font-size="11.00">Gate 1: restate in own words;</text>
<text xml:space="preserve" text-anchor="middle" x="544.25" y="-562.55" font-family="Helvetica,sans-Serif" font-size="11.00">developer corrects</text>
</g>
<!-- ask&#45;&gt;restate -->
<g id="edge5" class="edge">
<title>ask&#45;&gt;restate</title>
<path fill="none" stroke="black" d="M544.25,-627.81C544.25,-620.23 544.25,-611.1 544.25,-602.54"/>
<polygon fill="black" stroke="black" points="547.75,-602.54 544.25,-592.54 540.75,-602.54 547.75,-602.54"/>
</g>
<!-- keystone -->
<g id="node7" class="node">
<title>keystone</title>
<path fill="none" stroke="black" d="M671.12,-518C671.12,-518 417.38,-518 417.38,-518 411.38,-518 405.38,-512 405.38,-506 405.38,-506 405.38,-494 405.38,-494 405.38,-488 411.38,-482 417.38,-482 417.38,-482 671.12,-482 671.12,-482 677.12,-482 683.12,-488 683.12,-494 683.12,-494 683.12,-506 683.12,-506 683.12,-512 677.12,-518 671.12,-518"/>
<text xml:space="preserve" text-anchor="middle" x="544.25" y="-503.05" font-family="Helvetica,sans-Serif" font-size="11.00">Write docs/spec/overview.md:</text>
<text xml:space="preserve" text-anchor="middle" x="544.25" y="-489.55" font-family="Helvetica,sans-Serif" font-size="11.00">what it is, its problem, what it is not, spec map</text>
</g>
<!-- restate&#45;&gt;keystone -->
<g id="edge6" class="edge">
<title>restate&#45;&gt;keystone</title>
<path fill="none" stroke="black" d="M544.25,-554.81C544.25,-547.23 544.25,-538.1 544.25,-529.54"/>
<polygon fill="black" stroke="black" points="547.75,-529.54 544.25,-519.54 540.75,-529.54 547.75,-529.54"/>
</g>
<!-- glossary -->
<g id="node8" class="node">
<title>glossary</title>
<path fill="none" stroke="black" d="M659.5,-445C659.5,-445 429,-445 429,-445 423,-445 417,-439 417,-433 417,-433 417,-421 417,-421 417,-415 423,-409 429,-409 429,-409 659.5,-409 659.5,-409 665.5,-409 671.5,-415 671.5,-421 671.5,-421 671.5,-433 671.5,-433 671.5,-439 665.5,-445 659.5,-445"/>
<text xml:space="preserve" text-anchor="middle" x="544.25" y="-430.05" font-family="Helvetica,sans-Serif" font-size="11.00">Gate 2: glossary, 5 to 15 terms as one set;</text>
<text xml:space="preserve" text-anchor="middle" x="544.25" y="-416.55" font-family="Helvetica,sans-Serif" font-size="11.00">developer corrects by exception</text>
</g>
<!-- keystone&#45;&gt;glossary -->
<g id="edge7" class="edge">
<title>keystone&#45;&gt;glossary</title>
<path fill="none" stroke="black" d="M544.25,-481.81C544.25,-474.23 544.25,-465.1 544.25,-456.54"/>
<polygon fill="black" stroke="black" points="547.75,-456.54 544.25,-446.54 540.75,-456.54 547.75,-456.54"/>
</g>
<!-- partition -->
<g id="node9" class="node">
<title>partition</title>
<path fill="none" stroke="black" d="M659.12,-372C659.12,-372 429.38,-372 429.38,-372 423.38,-372 417.38,-366 417.38,-360 417.38,-360 417.38,-348 417.38,-348 417.38,-342 423.38,-336 429.38,-336 429.38,-336 659.12,-336 659.12,-336 665.12,-336 671.12,-342 671.12,-348 671.12,-348 671.12,-360 671.12,-360 671.12,-366 665.12,-372 659.12,-372"/>
<text xml:space="preserve" text-anchor="middle" x="544.25" y="-357.05" font-family="Helvetica,sans-Serif" font-size="11.00">Gate 3: derive domains from the keystone;</text>
<text xml:space="preserve" text-anchor="middle" x="544.25" y="-343.55" font-family="Helvetica,sans-Serif" font-size="11.00">developer confirms the partition</text>
</g>
<!-- glossary&#45;&gt;partition -->
<g id="edge8" class="edge">
<title>glossary&#45;&gt;partition</title>
<path fill="none" stroke="black" d="M544.25,-408.81C544.25,-401.23 544.25,-392.1 544.25,-383.54"/>
<polygon fill="black" stroke="black" points="547.75,-383.54 544.25,-373.54 540.75,-383.54 547.75,-383.54"/>
</g>
<!-- draft -->
<g id="node10" class="node">
<title>draft</title>
<path fill="none" stroke="black" d="M679.75,-299C679.75,-299 408.75,-299 408.75,-299 402.75,-299 396.75,-293 396.75,-287 396.75,-287 396.75,-275 396.75,-275 396.75,-269 402.75,-263 408.75,-263 408.75,-263 679.75,-263 679.75,-263 685.75,-263 691.75,-269 691.75,-275 691.75,-275 691.75,-287 691.75,-287 691.75,-293 685.75,-299 679.75,-299"/>
<text xml:space="preserve" text-anchor="middle" x="544.25" y="-284.05" font-family="Helvetica,sans-Serif" font-size="11.00">Draft each domain&#39;s requirements:</text>
<text xml:space="preserve" text-anchor="middle" x="544.25" y="-270.55" font-family="Helvetica,sans-Serif" font-size="11.00">one actor&#45;named obligation, Falsifier, Status: Draft</text>
</g>
<!-- partition&#45;&gt;draft -->
<g id="edge9" class="edge">
<title>partition&#45;&gt;draft</title>
<path fill="none" stroke="black" d="M544.25,-335.81C544.25,-328.23 544.25,-319.1 544.25,-310.54"/>
<polygon fill="black" stroke="black" points="547.75,-310.54 544.25,-300.54 540.75,-310.54 547.75,-310.54"/>
</g>
<!-- more -->
<g id="node11" class="node">
<title>more</title>
<path fill="none" stroke="black" d="M532.49,-211.85C532.49,-211.85 467.85,-198.65 467.85,-198.65 461.97,-197.45 461.97,-195.05 467.85,-193.85 467.85,-193.85 532.49,-180.65 532.49,-180.65 538.37,-179.45 550.13,-179.45 556.01,-180.65 556.01,-180.65 620.65,-193.85 620.65,-193.85 626.53,-195.05 626.53,-197.45 620.65,-198.65 620.65,-198.65 556.01,-211.85 556.01,-211.85 550.13,-213.05 538.37,-213.05 532.49,-211.85"/>
<text xml:space="preserve" text-anchor="middle" x="544.25" y="-192.55" font-family="Helvetica,sans-Serif" font-size="11.00">More domains?</text>
</g>
<!-- draft&#45;&gt;more -->
<g id="edge10" class="edge">
<title>draft&#45;&gt;more</title>
<path fill="none" stroke="black" d="M543.06,-262.56C542.73,-256.96 542.41,-250.72 542.25,-245 542.07,-238.83 542.17,-232.22 542.39,-225.94"/>
<polygon fill="black" stroke="black" points="545.89,-226.15 542.87,-216 538.89,-225.82 545.89,-226.15"/>
</g>
<!-- more&#45;&gt;draft -->
<g id="edge11" class="edge">
<title>more&#45;&gt;draft</title>
<path fill="none" stroke="black" d="M544.25,-214.66C544.25,-225.29 544.25,-239.15 544.25,-251.37"/>
<polygon fill="black" stroke="black" points="540.75,-251.34 544.25,-261.34 547.75,-251.34 540.75,-251.34"/>
<text xml:space="preserve" text-anchor="middle" x="552.88" y="-235.5" font-family="Helvetica,sans-Serif" font-size="10.00">yes</text>
</g>
<!-- roadmap -->
<g id="node12" class="node">
<title>roadmap</title>
<path fill="none" stroke="black" d="M686.5,-129.5C686.5,-129.5 402,-129.5 402,-129.5 396,-129.5 390,-123.5 390,-117.5 390,-117.5 390,-105.5 390,-105.5 390,-99.5 396,-93.5 402,-93.5 402,-93.5 686.5,-93.5 686.5,-93.5 692.5,-93.5 698.5,-99.5 698.5,-105.5 698.5,-105.5 698.5,-117.5 698.5,-117.5 698.5,-123.5 692.5,-129.5 686.5,-129.5"/>
<text xml:space="preserve" text-anchor="middle" x="544.25" y="-107.8" font-family="Helvetica,sans-Serif" font-size="11.00">Roadmap with Current: naming the first commitment</text>
</g>
<!-- more&#45;&gt;roadmap -->
<g id="edge12" class="edge">
<title>more&#45;&gt;roadmap</title>
<path fill="none" stroke="black" d="M544.25,-178.1C544.25,-167.41 544.25,-153.39 544.25,-141.05"/>
<polygon fill="black" stroke="black" points="547.75,-141.42 544.25,-131.42 540.75,-141.42 547.75,-141.42"/>
<text xml:space="preserve" text-anchor="middle" x="550.25" y="-150.75" font-family="Helvetica,sans-Serif" font-size="10.00">no</text>
</g>
<!-- tail -->
<g id="node13" class="node">
<title>tail</title>
<path fill="none" stroke="black" d="M682,-52.5C682,-52.5 406.5,-52.5 406.5,-52.5 400.5,-52.5 394.5,-46.5 394.5,-40.5 394.5,-40.5 394.5,-16 394.5,-16 394.5,-10 400.5,-4 406.5,-4 406.5,-4 682,-4 682,-4 688,-4 694,-10 694,-16 694,-16 694,-40.5 694,-40.5 694,-46.5 688,-52.5 682,-52.5"/>
<path fill="none" stroke="black" d="M686,-56.5C686,-56.5 402.5,-56.5 402.5,-56.5 396.5,-56.5 390.5,-50.5 390.5,-44.5 390.5,-44.5 390.5,-12 390.5,-12 390.5,-6 396.5,0 402.5,0 402.5,0 686,0 686,0 692,0 698,-6 698,-12 698,-12 698,-44.5 698,-44.5 698,-50.5 692,-56.5 686,-56.5"/>
<text xml:space="preserve" text-anchor="middle" x="544.25" y="-38.05" font-family="Helvetica,sans-Serif" font-size="11.00">Gate 4: spec&#45;phase.dot</text>
<text xml:space="preserve" text-anchor="middle" x="544.25" y="-24.55" font-family="Helvetica,sans-Serif" font-size="11.00">falsifiers, self&#45;review, lint, confirmation,</text>
<text xml:space="preserve" text-anchor="middle" x="544.25" y="-11.05" font-family="Helvetica,sans-Serif" font-size="11.00">commitment, mechanisms, agreement, start, wake</text>
</g>
<!-- roadmap&#45;&gt;tail -->
<g id="edge13" class="edge">
<title>roadmap&#45;&gt;tail</title>
<path fill="none" stroke="black" d="M544.25,-93.27C544.25,-85.88 544.25,-76.93 544.25,-68.1"/>
<polygon fill="black" stroke="black" points="547.75,-68.2 544.25,-58.2 540.75,-68.2 547.75,-68.2"/>
</g>
</g>
</svg>
