<?xml version="1.0" encoding="UTF-8" standalone="no"?>
<!DOCTYPE svg PUBLIC "-//W3C//DTD SVG 1.1//EN"
 "http://www.w3.org/Graphics/SVG/1.1/DTD/svg11.dtd">
<!-- Generated by graphviz version 13.1.2 (20250809.0930)
 -->
<!-- Title: work_loop Pages: 1 -->
<svg width="1726pt" height="1128pt"
 viewBox="0.00 0.00 1726.00 1128.00" xmlns="http://www.w3.org/2000/svg" xmlns:xlink="http://www.w3.org/1999/xlink">
<g id="graph0" class="graph" transform="scale(1 1) rotate(0) translate(4 1124.5)">
<title>work_loop</title>
<polygon fill="white" stroke="none" points="-4,4 -4,-1124.5 1722,-1124.5 1722,4 -4,4"/>
<text xml:space="preserve" text-anchor="middle" x="859" y="-1106.05" font-family="Helvetica,sans-Serif" font-size="11.00">The work loop: every step leaves a trace</text>
<!-- wake -->
<g id="node1" class="node">
<title>wake</title>
<ellipse fill="none" stroke="black" cx="576" cy="-1074.25" rx="166.17" ry="24.75"/>
<text xml:space="preserve" text-anchor="middle" x="576" y="-1077.3" font-family="Helvetica,sans-Serif" font-size="11.00">cairn wake</text>
<text xml:space="preserve" text-anchor="middle" x="576" y="-1063.8" font-family="Helvetica,sans-Serif" font-size="11.00">prints verdict, action, reason, predicate</text>
</g>
<!-- verdict -->
<g id="node2" class="node">
<title>verdict</title>
<path fill="none" stroke="black" d="M564.65,-1000.61C564.65,-1000.61 534.9,-990.39 534.9,-990.39 529.22,-988.45 529.22,-984.55 534.9,-982.61 534.9,-982.61 564.65,-972.39 564.65,-972.39 570.32,-970.45 581.68,-970.45 587.35,-972.39 587.35,-972.39 617.1,-982.61 617.1,-982.61 622.78,-984.55 622.78,-988.45 617.1,-990.39 617.1,-990.39 587.35,-1000.61 587.35,-1000.61 581.68,-1002.55 570.32,-1002.55 564.65,-1000.61"/>
<text xml:space="preserve" text-anchor="middle" x="576" y="-982.8" font-family="Helvetica,sans-Serif" font-size="11.00">Verdict?</text>
</g>
<!-- wake&#45;&gt;verdict -->
<g id="edge1" class="edge">
<title>wake&#45;&gt;verdict</title>
<path fill="none" stroke="black" d="M576,-1049.36C576,-1039.14 576,-1027.11 576,-1016.39"/>
<polygon fill="black" stroke="black" points="579.5,-1016.52 576,-1006.52 572.5,-1016.52 579.5,-1016.52"/>
</g>
<!-- present -->
<g id="node3" class="node">
<title>present</title>
<path fill="none" stroke="black" d="M689.75,-660.12C689.75,-660.12 462.25,-660.12 462.25,-660.12 456.25,-660.12 450.25,-654.12 450.25,-648.12 450.25,-648.12 450.25,-636.12 450.25,-636.12 450.25,-630.12 456.25,-624.12 462.25,-624.12 462.25,-624.12 689.75,-624.12 689.75,-624.12 695.75,-624.12 701.75,-630.12 701.75,-636.12 701.75,-636.12 701.75,-648.12 701.75,-648.12 701.75,-654.12 695.75,-660.12 689.75,-660.12"/>
<text xml:space="preserve" text-anchor="middle" x="576" y="-645.17" font-family="Helvetica,sans-Serif" font-size="11.00">present SLUG:</text>
<text xml:space="preserve" text-anchor="middle" x="576" y="-631.67" font-family="Helvetica,sans-Serif" font-size="11.00">show the escalation in its own words; stop</text>
</g>
<!-- verdict&#45;&gt;present -->
<g id="edge2" class="edge">
<title>verdict&#45;&gt;present</title>
<path fill="none" stroke="black" d="M576,-968.05C576,-912.65 576,-740.33 576,-671.73"/>
<polygon fill="black" stroke="black" points="579.5,-672.05 576,-662.05 572.5,-672.05 579.5,-672.05"/>
<text xml:space="preserve" text-anchor="middle" x="596.62" y="-937" font-family="Helvetica,sans-Serif" font-size="10.00">Escalate</text>
</g>
<!-- stop -->
<g id="node6" class="node">
<title>stop</title>
<path fill="none" stroke="black" d="M398.5,-660.12C398.5,-660.12 211.5,-660.12 211.5,-660.12 205.5,-660.12 199.5,-654.12 199.5,-648.12 199.5,-648.12 199.5,-636.12 199.5,-636.12 199.5,-630.12 205.5,-624.12 211.5,-624.12 211.5,-624.12 398.5,-624.12 398.5,-624.12 404.5,-624.12 410.5,-630.12 410.5,-636.12 410.5,-636.12 410.5,-648.12 410.5,-648.12 410.5,-654.12 404.5,-660.12 398.5,-660.12"/>
<path fill="none" stroke="black" d="M402.5,-664.12C402.5,-664.12 207.5,-664.12 207.5,-664.12 201.5,-664.12 195.5,-658.12 195.5,-652.12 195.5,-652.12 195.5,-632.12 195.5,-632.12 195.5,-626.12 201.5,-620.12 207.5,-620.12 207.5,-620.12 402.5,-620.12 402.5,-620.12 408.5,-620.12 414.5,-626.12 414.5,-632.12 414.5,-632.12 414.5,-652.12 414.5,-652.12 414.5,-658.12 408.5,-664.12 402.5,-664.12"/>
<text xml:space="preserve" text-anchor="middle" x="305" y="-645.17" font-family="Helvetica,sans-Serif" font-size="11.00">Done: report it; stop.</text>
<text xml:space="preserve" text-anchor="middle" x="305" y="-631.67" font-family="Helvetica,sans-Serif" font-size="11.00">The developer opens /next&#45;feature.</text>
</g>
<!-- verdict&#45;&gt;stop -->
<g id="edge7" class="edge">
<title>verdict&#45;&gt;stop</title>
<path fill="none" stroke="black" d="M548.57,-977.46C516.9,-966.94 464.93,-945.74 432,-911.75 364.62,-842.2 327.77,-730.2 312.9,-675.41"/>
<polygon fill="black" stroke="black" points="316.3,-674.56 310.37,-665.78 309.53,-676.34 316.3,-674.56"/>
<text xml:space="preserve" text-anchor="middle" x="490.26" y="-937" font-family="Helvetica,sans-Serif" font-size="10.00">Done</text>
</g>
<!-- act -->
<g id="node7" class="node">
<title>act</title>
<path fill="none" stroke="black" d="M871.88,-666.38C871.88,-666.38 750.12,-666.38 750.12,-666.38 744.12,-666.38 738.12,-660.38 738.12,-654.38 738.12,-654.38 738.12,-629.88 738.12,-629.88 738.12,-623.88 744.12,-617.88 750.12,-617.88 750.12,-617.88 871.88,-617.88 871.88,-617.88 877.88,-617.88 883.88,-623.88 883.88,-629.88 883.88,-629.88 883.88,-654.38 883.88,-654.38 883.88,-660.38 877.88,-666.38 871.88,-666.38"/>
<text xml:space="preserve" text-anchor="middle" x="811" y="-651.92" font-family="Helvetica,sans-Serif" font-size="11.00">Do the named action</text>
<text xml:space="preserve" text-anchor="middle" x="811" y="-638.42" font-family="Helvetica,sans-Serif" font-size="11.00">until its predicate holds</text>
<text xml:space="preserve" text-anchor="middle" x="811" y="-624.92" font-family="Helvetica,sans-Serif" font-size="11.00">(the table below)</text>
</g>
<!-- verdict&#45;&gt;act -->
<g id="edge8" class="edge">
<title>verdict&#45;&gt;act</title>
<path fill="none" stroke="black" d="M604.71,-977.92C637.1,-967.95 689.26,-947.37 720,-911.75 779.5,-842.82 800.52,-733.3 807.61,-677.8"/>
<polygon fill="black" stroke="black" points="811.07,-678.34 808.78,-668 804.12,-677.51 811.07,-678.34"/>
<text xml:space="preserve" text-anchor="middle" x="721.21" y="-937" font-family="Helvetica,sans-Serif" font-size="10.00">Resolvable</text>
</g>
<!-- answer -->
<g id="node4" class="node">
<title>answer</title>
<path fill="none" stroke="black" d="M216.17,-325.52C216.17,-325.52 132.5,-311.48 132.5,-311.48 126.58,-310.49 126.58,-308.51 132.5,-307.52 132.5,-307.52 216.17,-293.48 216.17,-293.48 222.08,-292.49 233.92,-292.49 239.83,-293.48 239.83,-293.48 323.5,-307.52 323.5,-307.52 329.42,-308.51 329.42,-310.49 323.5,-311.48 323.5,-311.48 239.83,-325.52 239.83,-325.52 233.92,-326.51 222.08,-326.51 216.17,-325.52"/>
<text xml:space="preserve" text-anchor="middle" x="228" y="-305.8" font-family="Helvetica,sans-Serif" font-size="11.00">Developer answers</text>
</g>
<!-- present&#45;&gt;answer -->
<g id="edge3" class="edge">
<title>present&#45;&gt;answer</title>
<path fill="none" stroke="black" d="M571.69,-623.7C558.98,-576.01 517.1,-442.29 432,-372.5 395.69,-342.72 345.26,-327.23 303.64,-319.18"/>
<polygon fill="black" stroke="black" points="304.38,-315.76 293.91,-317.42 303.13,-322.64 304.38,-315.76"/>
</g>
<!-- answer&#45;&gt;wake -->
<g id="edge5" class="edge">
<title>answer&#45;&gt;wake</title>
<path fill="none" stroke="black" d="M210.89,-325.11C198.85,-336.59 183.73,-353.74 177,-372.5 96.13,-598.11 43.04,-713.02 177,-911.75 234.34,-996.82 344.91,-1037.09 435.14,-1056.15"/>
<polygon fill="black" stroke="black" points="434.34,-1059.56 444.84,-1058.12 435.74,-1052.7 434.34,-1059.56"/>
<text xml:space="preserve" text-anchor="middle" x="233.25" y="-937" font-family="Helvetica,sans-Serif" font-size="10.00">ok | instead</text>
</g>
<!-- reply -->
<g id="node5" class="node">
<title>reply</title>
<path fill="none" stroke="black" d="M202,-228.5C202,-228.5 12,-228.5 12,-228.5 6,-228.5 0,-222.5 0,-216.5 0,-216.5 0,-204.5 0,-204.5 0,-198.5 6,-192.5 12,-192.5 12,-192.5 202,-192.5 202,-192.5 208,-192.5 214,-198.5 214,-204.5 214,-204.5 214,-216.5 214,-216.5 214,-222.5 208,-228.5 202,-228.5"/>
<text xml:space="preserve" text-anchor="middle" x="107" y="-213.55" font-family="Helvetica,sans-Serif" font-size="11.00">reply SLUG: append the explanation</text>
<text xml:space="preserve" text-anchor="middle" x="107" y="-200.05" font-family="Helvetica,sans-Serif" font-size="11.00">done := the escalation carries it</text>
</g>
<!-- answer&#45;&gt;reply -->
<g id="edge4" class="edge">
<title>answer&#45;&gt;reply</title>
<path fill="none" stroke="black" d="M210.15,-294.19C190.99,-278.83 160.24,-254.18 137.29,-235.78"/>
<polygon fill="black" stroke="black" points="139.78,-233.29 129.79,-229.77 135.4,-238.76 139.78,-233.29"/>
<text xml:space="preserve" text-anchor="middle" x="186.96" y="-260" font-family="Helvetica,sans-Serif" font-size="10.00">ask</text>
</g>
<!-- reply&#45;&gt;wake -->
<g id="edge6" class="edge">
<title>reply&#45;&gt;wake</title>
<path fill="none" stroke="black" d="M94.7,-228.8C82.62,-247.52 66,-278.7 66,-308.5 66,-987.5 66,-987.5 66,-987.5 66,-1023.66 267.95,-1048.27 417.69,-1061.54"/>
<polygon fill="black" stroke="black" points="417.05,-1065 427.32,-1062.38 417.66,-1058.02 417.05,-1065"/>
</g>
<!-- cannot -->
<g id="node11" class="node">
<title>cannot</title>
<path fill="none" stroke="black" d="M1304.2,-325.32C1304.2,-325.32 1230.38,-311.68 1230.38,-311.68 1224.48,-310.59 1224.48,-308.41 1230.38,-307.32 1230.38,-307.32 1304.2,-293.68 1304.2,-293.68 1310.1,-292.59 1321.9,-292.59 1327.8,-293.68 1327.8,-293.68 1401.62,-307.32 1401.62,-307.32 1407.52,-308.41 1407.52,-310.59 1401.62,-311.68 1401.62,-311.68 1327.8,-325.32 1327.8,-325.32 1321.9,-326.41 1310.1,-326.41 1304.2,-325.32"/>
<text xml:space="preserve" text-anchor="middle" x="1316" y="-305.8" font-family="Helvetica,sans-Serif" font-size="11.00">Cannot act on it?</text>
</g>
<!-- act&#45;&gt;cannot -->
<g id="edge9" class="edge">
<title>act&#45;&gt;cannot</title>
<path fill="none" stroke="black" d="M814.58,-617.5C823.98,-564.28 854.6,-434.77 937,-372.5 982.22,-338.33 1134.54,-322.2 1231.76,-315.22"/>
<polygon fill="black" stroke="black" points="1231.8,-318.72 1241.53,-314.54 1231.31,-311.74 1231.8,-318.72"/>
</g>
<!-- actions -->
<g id="node13" class="node">
<title>actions</title>
<polygon fill="#eeeeee" stroke="none" points="963.12,-886.5 963.12,-907.75 1079.62,-907.75 1079.62,-886.5 963.12,-886.5"/>
<polygon fill="none" stroke="black" points="963.12,-886.5 963.12,-907.75 1079.62,-907.75 1079.62,-886.5 963.12,-886.5"/>
<text xml:space="preserve" text-anchor="start" x="1005.25" y="-895.2" font-family="Helvetica,sans-Serif" font-weight="bold" font-size="9.00">Action</text>
<polygon fill="#eeeeee" stroke="none" points="1079.62,-886.5 1079.62,-907.75 1580.88,-907.75 1580.88,-886.5 1079.62,-886.5"/>
<polygon fill="none" stroke="black" points="1079.62,-886.5 1079.62,-907.75 1580.88,-907.75 1580.88,-886.5 1079.62,-886.5"/>
<text xml:space="preserve" text-anchor="start" x="1310.38" y="-895.2" font-family="Helvetica,sans-Serif" font-weight="bold" font-size="9.00">done :=</text>
<polygon fill="#f7f7f7" stroke="none" points="963.12,-865.25 963.12,-886.5 1580.88,-886.5 1580.88,-865.25 963.12,-865.25"/>
<polygon fill="none" stroke="black" points="963.12,-865.25 963.12,-886.5 1580.88,-886.5 1580.88,-865.25 963.12,-865.25"/>
<text xml:space="preserve" text-anchor="start" x="968.12" y="-873.95" font-family="Helvetica,sans-Serif" font-style="italic" font-size="9.00">Put the records right</text>
<polygon fill="none" stroke="black" points="963.12,-844 963.12,-865.25 1079.62,-865.25 1079.62,-844 963.12,-844"/>
<text xml:space="preserve" text-anchor="start" x="968.12" y="-851.7" font-family="Helvetica,sans-Serif" font-size="9.00">record PATH</text>
<polygon fill="none" stroke="black" points="1079.62,-844 1079.62,-865.25 1580.88,-865.25 1580.88,-844 1079.62,-844"/>
<text xml:space="preserve" text-anchor="start" x="1084.62" y="-851.7" font-family="Helvetica,sans-Serif" font-size="9.00">.cairn/in&#45;progress names the action, or PATH is clean at HEAD</text>
<polygon fill="none" stroke="black" points="963.12,-822.75 963.12,-844 1079.62,-844 1079.62,-822.75 963.12,-822.75"/>
<text xml:space="preserve" text-anchor="start" x="968.12" y="-830.45" font-family="Helvetica,sans-Serif" font-size="9.00">commit PATH</text>
<polygon fill="none" stroke="black" points="1079.62,-822.75 1079.62,-844 1580.88,-844 1580.88,-822.75 1079.62,-822.75"/>
<text xml:space="preserve" text-anchor="start" x="1084.62" y="-830.45" font-family="Helvetica,sans-Serif" font-size="9.00">PATH is clean at HEAD</text>
<polygon fill="none" stroke="black" points="963.12,-801.5 963.12,-822.75 1079.62,-822.75 1079.62,-801.5 963.12,-801.5"/>
<text xml:space="preserve" text-anchor="start" x="968.12" y="-809.2" font-family="Helvetica,sans-Serif" font-size="9.00">reconcile ACTION</text>
<polygon fill="none" stroke="black" points="1079.62,-801.5 1079.62,-822.75 1580.88,-822.75 1580.88,-801.5 1079.62,-801.5"/>
<text xml:space="preserve" text-anchor="start" x="1084.62" y="-809.2" font-family="Helvetica,sans-Serif" font-size="9.00">the in&#45;progress record is gone; the action finished or abandoned</text>
<polygon fill="none" stroke="black" points="963.12,-780.25 963.12,-801.5 1079.62,-801.5 1079.62,-780.25 963.12,-780.25"/>
<text xml:space="preserve" text-anchor="start" x="968.12" y="-787.95" font-family="Helvetica,sans-Serif" font-size="9.00">repair PATH</text>
<polygon fill="none" stroke="black" points="1079.62,-780.25 1079.62,-801.5 1580.88,-801.5 1580.88,-780.25 1079.62,-780.25"/>
<text xml:space="preserve" text-anchor="start" x="1084.62" y="-787.95" font-family="Helvetica,sans-Serif" font-size="9.00">the named record reads, and nothing else changed</text>
<polygon fill="#f7f7f7" stroke="none" points="963.12,-759 963.12,-780.25 1580.88,-780.25 1580.88,-759 963.12,-759"/>
<polygon fill="none" stroke="black" points="963.12,-759 963.12,-780.25 1580.88,-780.25 1580.88,-759 963.12,-759"/>
<text xml:space="preserve" text-anchor="start" x="968.12" y="-767.7" font-family="Helvetica,sans-Serif" font-style="italic" font-size="9.00">Prove the requirement</text>
<polygon fill="none" stroke="black" points="963.12,-737.75 963.12,-759 1079.62,-759 1079.62,-737.75 963.12,-737.75"/>
<text xml:space="preserve" text-anchor="start" x="968.12" y="-745.45" font-family="Helvetica,sans-Serif" font-size="9.00">declare REQ</text>
<polygon fill="none" stroke="black" points="1079.62,-737.75 1079.62,-759 1580.88,-759 1580.88,-737.75 1079.62,-737.75"/>
<text xml:space="preserve" text-anchor="start" x="1084.62" y="-745.45" font-family="Helvetica,sans-Serif" font-size="9.00">a committed mechanism names REQ</text>
<polygon fill="none" stroke="black" points="963.12,-716.5 963.12,-737.75 1079.62,-737.75 1079.62,-716.5 963.12,-716.5"/>
<text xml:space="preserve" text-anchor="start" x="968.12" y="-724.2" font-family="Helvetica,sans-Serif" font-size="9.00">run REQ</text>
<polygon fill="none" stroke="black" points="1079.62,-716.5 1079.62,-737.75 1580.88,-737.75 1580.88,-716.5 1079.62,-716.5"/>
<text xml:space="preserve" text-anchor="start" x="1084.62" y="-724.2" font-family="Helvetica,sans-Serif" font-size="9.00">receipt(REQ).commit = HEAD and current(m, REQ); the receipt is committed</text>
<polygon fill="none" stroke="black" points="963.12,-695.25 963.12,-716.5 1079.62,-716.5 1079.62,-695.25 963.12,-695.25"/>
<text xml:space="preserve" text-anchor="start" x="968.12" y="-702.95" font-family="Helvetica,sans-Serif" font-size="9.00">implement REQ</text>
<polygon fill="none" stroke="black" points="1079.62,-695.25 1079.62,-716.5 1580.88,-716.5 1580.88,-695.25 1079.62,-695.25"/>
<text xml:space="preserve" text-anchor="start" x="1084.62" y="-702.95" font-family="Helvetica,sans-Serif" font-size="9.00">as run, result = pass, and the receipt carries a tried line (the violating example and what the check printed)</text>
<polygon fill="none" stroke="black" points="963.12,-674 963.12,-695.25 1079.62,-695.25 1079.62,-674 963.12,-674"/>
<text xml:space="preserve" text-anchor="start" x="968.12" y="-681.7" font-family="Helvetica,sans-Serif" font-size="9.00">attack mechanism REQ</text>
<polygon fill="none" stroke="black" points="1079.62,-674 1079.62,-695.25 1580.88,-695.25 1580.88,-674 1079.62,-674"/>
<text xml:space="preserve" text-anchor="start" x="1084.62" y="-681.7" font-family="Helvetica,sans-Serif" font-size="9.00">an adversary&#39;s record for the mechanism exists at HEAD; the review answers each attempt</text>
<polygon fill="none" stroke="black" points="963.12,-652.75 963.12,-674 1079.62,-674 1079.62,-652.75 963.12,-652.75"/>
<text xml:space="preserve" text-anchor="start" x="968.12" y="-660.45" font-family="Helvetica,sans-Serif" font-size="9.00">attack implement REQ</text>
<polygon fill="none" stroke="black" points="1079.62,-652.75 1079.62,-674 1580.88,-674 1580.88,-652.75 1079.62,-652.75"/>
<text xml:space="preserve" text-anchor="start" x="1084.62" y="-660.45" font-family="Helvetica,sans-Serif" font-size="9.00">an adversary&#39;s record for the change exists at HEAD; the review answers each attempt</text>
<polygon fill="none" stroke="black" points="963.12,-631.5 963.12,-652.75 1079.62,-652.75 1079.62,-631.5 963.12,-631.5"/>
<text xml:space="preserve" text-anchor="start" x="968.12" y="-639.2" font-family="Helvetica,sans-Serif" font-size="9.00">review mechanism REQ</text>
<polygon fill="none" stroke="black" points="1079.62,-631.5 1079.62,-652.75 1580.88,-652.75 1580.88,-631.5 1079.62,-631.5"/>
<text xml:space="preserve" text-anchor="start" x="1084.62" y="-639.2" font-family="Helvetica,sans-Serif" font-size="9.00">reviewed(m) carries REQ H(text(REQ)), committed; no code changed</text>
<polygon fill="none" stroke="black" points="963.12,-610.25 963.12,-631.5 1079.62,-631.5 1079.62,-610.25 963.12,-610.25"/>
<text xml:space="preserve" text-anchor="start" x="968.12" y="-617.95" font-family="Helvetica,sans-Serif" font-size="9.00">escalate REQ</text>
<polygon fill="none" stroke="black" points="1079.62,-610.25 1079.62,-631.5 1580.88,-631.5 1580.88,-610.25 1079.62,-610.25"/>
<text xml:space="preserve" text-anchor="start" x="1084.62" y="-617.95" font-family="Helvetica,sans-Serif" font-size="9.00">three attempts without a pass: an escalation names REQ</text>
<polygon fill="#f7f7f7" stroke="none" points="963.12,-589 963.12,-610.25 1580.88,-610.25 1580.88,-589 963.12,-589"/>
<polygon fill="none" stroke="black" points="963.12,-589 963.12,-610.25 1580.88,-610.25 1580.88,-589 963.12,-589"/>
<text xml:space="preserve" text-anchor="start" x="968.12" y="-597.7" font-family="Helvetica,sans-Serif" font-style="italic" font-size="9.00">Review before Done</text>
<polygon fill="none" stroke="black" points="963.12,-567.75 963.12,-589 1079.62,-589 1079.62,-567.75 963.12,-567.75"/>
<text xml:space="preserve" text-anchor="start" x="968.12" y="-575.45" font-family="Helvetica,sans-Serif" font-size="9.00">review SLUG</text>
<polygon fill="none" stroke="black" points="1079.62,-567.75 1079.62,-589 1580.88,-589 1580.88,-567.75 1079.62,-567.75"/>
<text xml:space="preserve" text-anchor="start" x="1084.62" y="-575.45" font-family="Helvetica,sans-Serif" font-size="9.00">review.commit = report.commit = HEAD, both committed, every report finding carried by number</text>
<polygon fill="none" stroke="black" points="963.12,-546.5 963.12,-567.75 1079.62,-567.75 1079.62,-546.5 963.12,-546.5"/>
<text xml:space="preserve" text-anchor="start" x="968.12" y="-554.2" font-family="Helvetica,sans-Serif" font-size="9.00">resolve SLUG</text>
<polygon fill="none" stroke="black" points="1079.62,-546.5 1079.62,-567.75 1580.88,-567.75 1580.88,-546.5 1079.62,-546.5"/>
<text xml:space="preserve" text-anchor="start" x="1084.62" y="-554.2" font-family="Helvetica,sans-Serif" font-size="9.00">no finding is open; each resolution its own commit</text>
<polygon fill="#f7f7f7" stroke="none" points="963.12,-525.25 963.12,-546.5 1580.88,-546.5 1580.88,-525.25 963.12,-525.25"/>
<polygon fill="none" stroke="black" points="963.12,-525.25 963.12,-546.5 1580.88,-546.5 1580.88,-525.25 963.12,-525.25"/>
<text xml:space="preserve" text-anchor="start" x="968.12" y="-533.95" font-family="Helvetica,sans-Serif" font-style="italic" font-size="9.00">Scope and capture</text>
<polygon fill="none" stroke="black" points="963.12,-504 963.12,-525.25 1079.62,-525.25 1079.62,-504 963.12,-504"/>
<text xml:space="preserve" text-anchor="start" x="968.12" y="-511.7" font-family="Helvetica,sans-Serif" font-size="9.00">scope PATH</text>
<polygon fill="none" stroke="black" points="1079.62,-504 1079.62,-525.25 1580.88,-525.25 1580.88,-504 1079.62,-504"/>
<text xml:space="preserve" text-anchor="start" x="1084.62" y="-511.7" font-family="Helvetica,sans-Serif" font-size="9.00">the path is declared, or a retention or restoration is approved</text>
<polygon fill="none" stroke="black" points="963.12,-482.75 963.12,-504 1079.62,-504 1079.62,-482.75 963.12,-482.75"/>
<text xml:space="preserve" text-anchor="start" x="968.12" y="-490.45" font-family="Helvetica,sans-Serif" font-size="9.00">capture PATH</text>
<polygon fill="none" stroke="black" points="1079.62,-482.75 1079.62,-504 1580.88,-504 1580.88,-482.75 1079.62,-482.75"/>
<text xml:space="preserve" text-anchor="start" x="1084.62" y="-490.45" font-family="Helvetica,sans-Serif" font-size="9.00">the item carries its reason it is outside, or an escalation names it</text>
<polygon fill="none" stroke="black" points="963.12,-461.5 963.12,-482.75 1079.62,-482.75 1079.62,-461.5 963.12,-461.5"/>
<text xml:space="preserve" text-anchor="start" x="968.12" y="-469.2" font-family="Helvetica,sans-Serif" font-size="9.00">fix ITEM</text>
<polygon fill="none" stroke="black" points="1079.62,-461.5 1079.62,-482.75 1580.88,-482.75 1580.88,-461.5 1079.62,-461.5"/>
<text xml:space="preserve" text-anchor="start" x="1084.62" y="-469.2" font-family="Helvetica,sans-Serif" font-size="9.00">Fixed by names a commit that changes no Agreed text, and REQ passes at or after it</text>
<polygon fill="#f7f7f7" stroke="none" points="963.12,-440.25 963.12,-461.5 1580.88,-461.5 1580.88,-440.25 963.12,-440.25"/>
<polygon fill="none" stroke="black" points="963.12,-440.25 963.12,-461.5 1580.88,-461.5 1580.88,-440.25 963.12,-440.25"/>
<text xml:space="preserve" text-anchor="start" x="968.12" y="-448.95" font-family="Helvetica,sans-Serif" font-style="italic" font-size="9.00">Decisions and continuation</text>
<polygon fill="none" stroke="black" points="963.12,-419 963.12,-440.25 1079.62,-440.25 1079.62,-419 963.12,-419"/>
<text xml:space="preserve" text-anchor="start" x="968.12" y="-426.7" font-family="Helvetica,sans-Serif" font-size="9.00">build DECISION</text>
<polygon fill="none" stroke="black" points="1079.62,-419 1079.62,-440.25 1580.88,-440.25 1580.88,-419 1079.62,-419"/>
<text xml:space="preserve" text-anchor="start" x="1084.62" y="-426.7" font-family="Helvetica,sans-Serif" font-size="9.00">Realized by names a commit that resolves</text>
<polygon fill="none" stroke="black" points="963.12,-397.75 963.12,-419 1079.62,-419 1079.62,-397.75 963.12,-397.75"/>
<text xml:space="preserve" text-anchor="start" x="968.12" y="-405.45" font-family="Helvetica,sans-Serif" font-size="9.00">promote</text>
<polygon fill="none" stroke="black" points="1079.62,-397.75 1079.62,-419 1580.88,-419 1580.88,-397.75 1079.62,-397.75"/>
<text xml:space="preserve" text-anchor="start" x="1084.62" y="-405.45" font-family="Helvetica,sans-Serif" font-size="9.00">promotion decision; requirement Agreed by it; commitment; roadmap Current:; item stamped</text>
<polygon fill="none" stroke="black" points="963.12,-376.5 963.12,-397.75 1079.62,-397.75 1079.62,-376.5 963.12,-376.5"/>
<text xml:space="preserve" text-anchor="start" x="968.12" y="-384.2" font-family="Helvetica,sans-Serif" font-size="9.00">reword SHA</text>
<polygon fill="none" stroke="black" points="1079.62,-376.5 1079.62,-397.75 1580.88,-397.75 1580.88,-376.5 1079.62,-376.5"/>
<text xml:space="preserve" text-anchor="start" x="1084.62" y="-384.2" font-family="Helvetica,sans-Serif" font-size="9.00">no unpushed commit carries an attribution line</text>
</g>
<!-- act&#45;&gt;actions -->
<g id="edge17" class="edge">
<title>act&#45;&gt;actions</title>
<path fill="none" stroke="black" stroke-dasharray="5,2" d="M883.93,-642.12C907.68,-642.12 931.43,-642.12 955.18,-642.12"/>
</g>
<!-- claim -->
<g id="node8" class="node">
<title>claim</title>
<path fill="none" stroke="black" d="M1436.12,-234.75C1436.12,-234.75 1195.88,-234.75 1195.88,-234.75 1189.88,-234.75 1183.88,-228.75 1183.88,-222.75 1183.88,-222.75 1183.88,-198.25 1183.88,-198.25 1183.88,-192.25 1189.88,-186.25 1195.88,-186.25 1195.88,-186.25 1436.12,-186.25 1436.12,-186.25 1442.12,-186.25 1448.12,-192.25 1448.12,-198.25 1448.12,-198.25 1448.12,-222.75 1448.12,-222.75 1448.12,-228.75 1442.12,-234.75 1436.12,-234.75"/>
<text xml:space="preserve" text-anchor="middle" x="1316" y="-220.3" font-family="Helvetica,sans-Serif" font-size="11.00">Self&#45;evaluate: record the claims,</text>
<text xml:space="preserve" text-anchor="middle" x="1316" y="-206.8" font-family="Helvetica,sans-Serif" font-size="11.00">each naming an observation or &#39;not checked&#39;</text>
<text xml:space="preserve" text-anchor="middle" x="1316" y="-193.3" font-family="Helvetica,sans-Serif" font-size="11.00">(tried line, review claims)</text>
</g>
<!-- adversary -->
<g id="node9" class="node">
<title>adversary</title>
<path fill="none" stroke="black" d="M1651.12,-129.5C1651.12,-129.5 1416.88,-129.5 1416.88,-129.5 1410.88,-129.5 1404.88,-123.5 1404.88,-117.5 1404.88,-117.5 1404.88,-93 1404.88,-93 1404.88,-87 1410.88,-81 1416.88,-81 1416.88,-81 1651.12,-81 1651.12,-81 1657.12,-81 1663.12,-87 1663.12,-93 1663.12,-93 1663.12,-117.5 1663.12,-117.5 1663.12,-123.5 1657.12,-129.5 1651.12,-129.5"/>
<text xml:space="preserve" text-anchor="middle" x="1534" y="-115.05" font-family="Helvetica,sans-Serif" font-size="11.00">At the three points: start an adversary</text>
<text xml:space="preserve" text-anchor="middle" x="1534" y="-101.55" font-family="Helvetica,sans-Serif" font-size="11.00">with none of the context; give it the claims;</text>
<text xml:space="preserve" text-anchor="middle" x="1534" y="-88.05" font-family="Helvetica,sans-Serif" font-size="11.00">cairn report &#45;&#45;stage; answer each attempt</text>
</g>
<!-- claim&#45;&gt;adversary -->
<g id="edge12" class="edge">
<title>claim&#45;&gt;adversary</title>
<path fill="none" stroke="black" d="M1366.01,-185.81C1398.14,-170.6 1440.05,-150.75 1473.97,-134.68"/>
<polygon fill="black" stroke="black" points="1475.31,-137.92 1482.85,-130.48 1472.32,-131.59 1475.31,-137.92"/>
<text xml:space="preserve" text-anchor="middle" x="1511.93" y="-154.75" font-family="Helvetica,sans-Serif" font-size="10.00">mechanism, implement, Done</text>
</g>
<!-- trace -->
<g id="node10" class="node">
<title>trace</title>
<path fill="none" stroke="black" d="M1602.38,-36C1602.38,-36 1465.62,-36 1465.62,-36 1459.62,-36 1453.62,-30 1453.62,-24 1453.62,-24 1453.62,-12 1453.62,-12 1453.62,-6 1459.62,0 1465.62,0 1465.62,0 1602.38,0 1602.38,0 1608.38,0 1614.38,-6 1614.38,-12 1614.38,-12 1614.38,-24 1614.38,-24 1614.38,-30 1608.38,-36 1602.38,-36"/>
<text xml:space="preserve" text-anchor="middle" x="1534" y="-21.05" font-family="Helvetica,sans-Serif" font-size="11.00">Leave the trace:</text>
<text xml:space="preserve" text-anchor="middle" x="1534" y="-7.55" font-family="Helvetica,sans-Serif" font-size="11.00">commit, receipt, or record</text>
</g>
<!-- claim&#45;&gt;trace -->
<g id="edge13" class="edge">
<title>claim&#45;&gt;trace</title>
<path fill="none" stroke="black" d="M1309.91,-185.81C1304.19,-157.66 1299.65,-110.76 1323.25,-81 1338.65,-61.59 1392.7,-45.91 1442.2,-35.18"/>
<polygon fill="black" stroke="black" points="1442.8,-38.63 1451.86,-33.14 1441.35,-31.78 1442.8,-38.63"/>
<text xml:space="preserve" text-anchor="middle" x="1355.12" y="-102.12" font-family="Helvetica,sans-Serif" font-size="10.00">other actions</text>
</g>
<!-- adversary&#45;&gt;trace -->
<g id="edge14" class="edge">
<title>adversary&#45;&gt;trace</title>
<path fill="none" stroke="black" d="M1534,-80.5C1534,-70.34 1534,-58.38 1534,-47.72"/>
<polygon fill="black" stroke="black" points="1537.5,-47.92 1534,-37.92 1530.5,-47.92 1537.5,-47.92"/>
</g>
<!-- trace&#45;&gt;wake -->
<g id="edge15" class="edge">
<title>trace&#45;&gt;wake</title>
<path fill="none" stroke="black" d="M1614.71,-25.57C1664.14,-34.54 1718,-55.49 1718,-104.25 1718,-987.5 1718,-987.5 1718,-987.5 1718,-1035.41 1070.42,-1059.79 750.56,-1068.91"/>
<polygon fill="black" stroke="black" points="750.73,-1065.4 740.83,-1069.18 750.93,-1072.4 750.73,-1065.4"/>
</g>
<!-- cannot&#45;&gt;claim -->
<g id="edge10" class="edge">
<title>cannot&#45;&gt;claim</title>
<path fill="none" stroke="black" d="M1316,-291.16C1316,-278.65 1316,-261.35 1316,-246.07"/>
<polygon fill="black" stroke="black" points="1319.5,-246.4 1316,-236.4 1312.5,-246.4 1319.5,-246.4"/>
<text xml:space="preserve" text-anchor="middle" x="1322" y="-260" font-family="Helvetica,sans-Serif" font-size="10.00">no</text>
</g>
<!-- escalate -->
<g id="node12" class="node">
<title>escalate</title>
<path fill="none" stroke="black" d="M1639.88,-228.5C1639.88,-228.5 1518.12,-228.5 1518.12,-228.5 1512.12,-228.5 1506.12,-222.5 1506.12,-216.5 1506.12,-216.5 1506.12,-204.5 1506.12,-204.5 1506.12,-198.5 1512.12,-192.5 1518.12,-192.5 1518.12,-192.5 1639.88,-192.5 1639.88,-192.5 1645.88,-192.5 1651.88,-198.5 1651.88,-204.5 1651.88,-204.5 1651.88,-216.5 1651.88,-216.5 1651.88,-222.5 1645.88,-228.5 1639.88,-228.5"/>
<text xml:space="preserve" text-anchor="middle" x="1579" y="-213.55" font-family="Helvetica,sans-Serif" font-size="11.00">cairn escalate</text>
<text xml:space="preserve" text-anchor="middle" x="1579" y="-200.05" font-family="Helvetica,sans-Serif" font-size="11.00">with the evidence; stop</text>
</g>
<!-- cannot&#45;&gt;escalate -->
<g id="edge11" class="edge">
<title>cannot&#45;&gt;escalate</title>
<path fill="none" stroke="black" d="M1347.46,-296.9C1390.32,-281.09 1467.83,-252.5 1521.28,-232.79"/>
<polygon fill="black" stroke="black" points="1522.38,-236.11 1530.55,-229.37 1519.96,-229.55 1522.38,-236.11"/>
<text xml:space="preserve" text-anchor="middle" x="1464.01" y="-260" font-family="Helvetica,sans-Serif" font-size="10.00">yes</text>
</g>
<!-- escalate&#45;&gt;wake -->
<g id="edge16" class="edge">
<title>escalate&#45;&gt;wake</title>
<path fill="none" stroke="black" d="M1599.92,-228.84C1618.93,-246.66 1644,-276.27 1644,-308.5 1644,-987.5 1644,-987.5 1644,-987.5 1644,-1031.84 1051.32,-1057.71 748.99,-1068.01"/>
<polygon fill="black" stroke="black" points="749.3,-1064.5 739.43,-1068.34 749.54,-1071.5 749.3,-1064.5"/>
</g>
</g>
</svg>
