<?xml version="1.0" encoding="UTF-8" standalone="no"?>
<!DOCTYPE svg PUBLIC "-//W3C//DTD SVG 1.1//EN"
 "http://www.w3.org/Graphics/SVG/1.1/DTD/svg11.dtd">
<!-- Generated by graphviz version 13.1.2 (20250809.0930)
 -->
<!-- Title: work_loop Pages: 1 -->
<svg width="2168pt" height="902pt"
 viewBox="0.00 0.00 2168.00 902.00" xmlns="http://www.w3.org/2000/svg" xmlns:xlink="http://www.w3.org/1999/xlink">
<g id="graph0" class="graph" transform="scale(1 1) rotate(0) translate(4 898.34)">
<title>work_loop</title>
<polygon fill="white" stroke="none" points="-4,4 -4,-898.34 2164.02,-898.34 2164.02,4 -4,4"/>
<text xml:space="preserve" text-anchor="middle" x="1080.01" y="-879.89" font-family="Helvetica,sans-Serif" font-size="11.00">Work loop: act until the predicate holds; leave the record; wake</text>
<!-- wake -->
<g id="node1" class="node">
<title>wake</title>
<ellipse fill="none" stroke="black" cx="251.02" cy="-838.54" rx="251.02" ry="34.29"/>
<text xml:space="preserve" text-anchor="middle" x="251.02" y="-848.34" font-family="Helvetica,sans-Serif" font-size="11.00">cairn wake is read&#45;only:</text>
<text xml:space="preserve" text-anchor="middle" x="251.02" y="-834.84" font-family="Helvetica,sans-Serif" font-size="11.00">print verdict, action or party, reason and predicate</text>
<text xml:space="preserve" text-anchor="middle" x="251.02" y="-821.34" font-family="Helvetica,sans-Serif" font-size="11.00">(missing refs, pending transition or recovery: one line, exit 3)</text>
</g>
<!-- verdict -->
<g id="node2" class="node">
<title>verdict</title>
<path fill="none" stroke="black" d="M656.67,-755.36C656.67,-755.36 626.92,-745.14 626.92,-745.14 621.24,-743.2 621.24,-739.3 626.92,-737.36 626.92,-737.36 656.67,-727.14 656.67,-727.14 662.35,-725.2 673.7,-725.2 679.37,-727.14 679.37,-727.14 709.13,-737.36 709.13,-737.36 714.8,-739.3 714.8,-743.2 709.13,-745.14 709.13,-745.14 679.37,-755.36 679.37,-755.36 673.7,-757.3 662.35,-757.3 656.67,-755.36"/>
<text xml:space="preserve" text-anchor="middle" x="668.02" y="-737.55" font-family="Helvetica,sans-Serif" font-size="11.00">Verdict?</text>
</g>
<!-- wake&#45;&gt;verdict -->
<g id="edge1" class="edge">
<title>wake&#45;&gt;verdict</title>
<path fill="none" stroke="black" d="M377.84,-808.57C462.57,-789.2 568.69,-764.95 626.23,-751.8"/>
<polygon fill="black" stroke="black" points="626.96,-755.22 635.93,-749.58 625.4,-748.4 626.96,-755.22"/>
</g>
<!-- waiting -->
<g id="node3" class="node">
<title>waiting</title>
<path fill="none" stroke="black" d="M803.52,-457.38C803.52,-457.38 532.52,-457.38 532.52,-457.38 526.52,-457.38 520.52,-451.38 520.52,-445.38 520.52,-445.38 520.52,-433.38 520.52,-433.38 520.52,-427.38 526.52,-421.38 532.52,-421.38 532.52,-421.38 803.52,-421.38 803.52,-421.38 809.52,-421.38 815.52,-427.38 815.52,-433.38 815.52,-433.38 815.52,-445.38 815.52,-445.38 815.52,-451.38 809.52,-457.38 803.52,-457.38"/>
<text xml:space="preserve" text-anchor="middle" x="668.02" y="-442.43" font-family="Helvetica,sans-Serif" font-size="11.00">Waiting: print the escalation&#39;s five fields verbatim;</text>
<text xml:space="preserve" text-anchor="middle" x="668.02" y="-428.93" font-family="Helvetica,sans-Serif" font-size="11.00">the agent adds nothing and stops</text>
</g>
<!-- verdict&#45;&gt;waiting -->
<g id="edge2" class="edge">
<title>verdict&#45;&gt;waiting</title>
<path fill="none" stroke="black" d="M668.02,-722.83C668.02,-673.14 668.02,-530.36 668.02,-468.98"/>
<polygon fill="black" stroke="black" points="671.52,-469.36 668.02,-459.36 664.52,-469.36 671.52,-469.36"/>
<text xml:space="preserve" text-anchor="middle" x="686.77" y="-691.75" font-family="Helvetica,sans-Serif" font-size="10.00">Waiting</text>
</g>
<!-- reply -->
<g id="node5" class="node">
<title>reply</title>
<path fill="none" stroke="black" d="M472.77,-457.38C472.77,-457.38 281.27,-457.38 281.27,-457.38 275.27,-457.38 269.27,-451.38 269.27,-445.38 269.27,-445.38 269.27,-433.38 269.27,-433.38 269.27,-427.38 275.27,-421.38 281.27,-421.38 281.27,-421.38 472.77,-421.38 472.77,-421.38 478.77,-421.38 484.77,-427.38 484.77,-433.38 484.77,-433.38 484.77,-445.38 484.77,-445.38 484.77,-451.38 478.77,-457.38 472.77,-457.38"/>
<text xml:space="preserve" text-anchor="middle" x="377.02" y="-442.43" font-family="Helvetica,sans-Serif" font-size="11.00">reply after ask:</text>
<text xml:space="preserve" text-anchor="middle" x="377.02" y="-428.93" font-family="Helvetica,sans-Serif" font-size="11.00">a reply record names the escalation</text>
</g>
<!-- verdict&#45;&gt;reply -->
<g id="edge5" class="edge">
<title>verdict&#45;&gt;reply</title>
<path fill="none" stroke="black" d="M637.6,-733.34C601.41,-723.76 540.99,-703.32 502.02,-666.5 441.16,-608.99 402.59,-515.11 386.17,-468.49"/>
<polygon fill="black" stroke="black" points="389.51,-467.46 382.96,-459.13 382.89,-469.73 389.51,-467.46"/>
<text xml:space="preserve" text-anchor="middle" x="592.9" y="-691.75" font-family="Helvetica,sans-Serif" font-size="10.00">Resolvable: reply</text>
</g>
<!-- stop -->
<g id="node6" class="node">
<title>stop</title>
<path fill="none" stroke="black" d="M2088.52,-463.62C2088.52,-463.62 1841.52,-463.62 1841.52,-463.62 1835.52,-463.62 1829.52,-457.62 1829.52,-451.62 1829.52,-451.62 1829.52,-427.12 1829.52,-427.12 1829.52,-421.12 1835.52,-415.12 1841.52,-415.12 1841.52,-415.12 2088.52,-415.12 2088.52,-415.12 2094.52,-415.12 2100.52,-421.12 2100.52,-427.12 2100.52,-427.12 2100.52,-451.62 2100.52,-451.62 2100.52,-457.62 2094.52,-463.62 2088.52,-463.62"/>
<path fill="none" stroke="black" d="M2092.52,-467.62C2092.52,-467.62 1837.52,-467.62 1837.52,-467.62 1831.52,-467.62 1825.52,-461.62 1825.52,-455.62 1825.52,-455.62 1825.52,-423.12 1825.52,-423.12 1825.52,-417.12 1831.52,-411.12 1837.52,-411.12 1837.52,-411.12 2092.52,-411.12 2092.52,-411.12 2098.52,-411.12 2104.52,-417.12 2104.52,-423.12 2104.52,-423.12 2104.52,-455.62 2104.52,-455.62 2104.52,-461.62 2098.52,-467.62 2092.52,-467.62"/>
<text xml:space="preserve" text-anchor="middle" x="1965.02" y="-449.18" font-family="Helvetica,sans-Serif" font-size="11.00">Done: a done record exists and nothing waits;</text>
<text xml:space="preserve" text-anchor="middle" x="1965.02" y="-435.68" font-family="Helvetica,sans-Serif" font-size="11.00">render unread queue and stop</text>
<text xml:space="preserve" text-anchor="middle" x="1965.02" y="-422.18" font-family="Helvetica,sans-Serif" font-size="11.00">(backlog waiting: wake names promote)</text>
</g>
<!-- verdict&#45;&gt;stop -->
<g id="edge7" class="edge">
<title>verdict&#45;&gt;stop</title>
<path fill="none" stroke="black" d="M716.89,-739.57C922.61,-736.4 1712.02,-720.73 1808.02,-666.5 1882.22,-624.58 1929.23,-531.35 1950.92,-478.62"/>
<polygon fill="black" stroke="black" points="1954.14,-480.01 1954.61,-469.43 1947.64,-477.41 1954.14,-480.01"/>
<text xml:space="preserve" text-anchor="middle" x="1725.67" y="-691.75" font-family="Helvetica,sans-Serif" font-size="10.00">Done</text>
</g>
<!-- act -->
<g id="node7" class="node">
<title>act</title>
<path fill="none" stroke="black" d="M1104.52,-457.38C1104.52,-457.38 863.52,-457.38 863.52,-457.38 857.52,-457.38 851.52,-451.38 851.52,-445.38 851.52,-445.38 851.52,-433.38 851.52,-433.38 851.52,-427.38 857.52,-421.38 863.52,-421.38 863.52,-421.38 1104.52,-421.38 1104.52,-421.38 1110.52,-421.38 1116.52,-427.38 1116.52,-433.38 1116.52,-433.38 1116.52,-445.38 1116.52,-445.38 1116.52,-451.38 1110.52,-457.38 1104.52,-457.38"/>
<text xml:space="preserve" text-anchor="middle" x="984.02" y="-442.43" font-family="Helvetica,sans-Serif" font-size="11.00">Do the named action until its predicate holds</text>
<text xml:space="preserve" text-anchor="middle" x="984.02" y="-428.93" font-family="Helvetica,sans-Serif" font-size="11.00">(the table below is in precedence order)</text>
</g>
<!-- verdict&#45;&gt;act -->
<g id="edge8" class="edge">
<title>verdict&#45;&gt;act</title>
<path fill="none" stroke="black" d="M696.96,-732.71C732.18,-722.39 792.03,-701.11 833.02,-666.5 900.64,-609.41 950.2,-514.67 971.89,-468.04"/>
<polygon fill="black" stroke="black" points="974.97,-469.72 975.94,-459.17 968.6,-466.82 974.97,-469.72"/>
<text xml:space="preserve" text-anchor="middle" x="827.92" y="-691.75" font-family="Helvetica,sans-Serif" font-size="10.00">Resolvable</text>
</g>
<!-- answer -->
<g id="node4" class="node">
<title>answer</title>
<path fill="none" stroke="black" d="M594.65,-167.25C594.65,-167.25 357.4,-167.25 357.4,-167.25 351.4,-167.25 345.4,-161.25 345.4,-155.25 345.4,-155.25 345.4,-130.75 345.4,-130.75 345.4,-124.75 351.4,-118.75 357.4,-118.75 357.4,-118.75 594.65,-118.75 594.65,-118.75 600.65,-118.75 606.65,-124.75 606.65,-130.75 606.65,-130.75 606.65,-155.25 606.65,-155.25 606.65,-161.25 600.65,-167.25 594.65,-167.25"/>
<text xml:space="preserve" text-anchor="middle" x="476.02" y="-152.8" font-family="Helvetica,sans-Serif" font-size="11.00">Developer runs cairn answer</text>
<text xml:space="preserve" text-anchor="middle" x="476.02" y="-139.3" font-family="Helvetica,sans-Serif" font-size="11.00">ok | instead | ask; signed when a key exists,</text>
<text xml:space="preserve" text-anchor="middle" x="476.02" y="-125.8" font-family="Helvetica,sans-Serif" font-size="11.00">explicit unsigned&#45;local evidence otherwise</text>
</g>
<!-- waiting&#45;&gt;answer -->
<g id="edge3" class="edge">
<title>waiting&#45;&gt;answer</title>
<path fill="none" stroke="black" d="M656.87,-421.28C625.87,-373.75 538.3,-239.48 497.47,-176.88"/>
<polygon fill="black" stroke="black" points="500.56,-175.21 492.16,-168.74 494.69,-179.03 500.56,-175.21"/>
</g>
<!-- answer&#45;&gt;wake -->
<g id="edge4" class="edge">
<title>answer&#45;&gt;wake</title>
<path fill="none" stroke="black" d="M353,-167.68C307.82,-179.08 264.4,-194.22 251.02,-212.25 118.79,-390.54 197.8,-682.95 234.95,-793.42"/>
<polygon fill="black" stroke="black" points="231.59,-794.39 238.13,-802.72 238.21,-792.12 231.59,-794.39"/>
</g>
<!-- reply&#45;&gt;wake -->
<g id="edge6" class="edge">
<title>reply&#45;&gt;wake</title>
<path fill="none" stroke="black" d="M366.03,-457.56C335.76,-506.02 251.53,-648.89 223.02,-781.25 222.17,-785.21 222.15,-789.21 222.75,-793.15"/>
<polygon fill="black" stroke="black" points="219.32,-793.91 225.44,-802.56 226.05,-791.98 219.32,-793.91"/>
</g>
<!-- cannot -->
<g id="node8" class="node">
<title>cannot</title>
<path fill="none" stroke="black" d="M972.07,-159.88C972.07,-159.88 803.34,-144.12 803.34,-144.12 797.37,-143.56 797.37,-142.44 803.34,-141.88 803.34,-141.88 972.07,-126.12 972.07,-126.12 978.05,-125.56 990,-125.56 995.97,-126.12 995.97,-126.12 1164.7,-141.88 1164.7,-141.88 1170.68,-142.44 1170.68,-143.56 1164.7,-144.12 1164.7,-144.12 995.97,-159.88 995.97,-159.88 990,-160.44 978.05,-160.44 972.07,-159.88"/>
<text xml:space="preserve" text-anchor="middle" x="984.02" y="-139.3" font-family="Helvetica,sans-Serif" font-size="11.00">Cannot act, or cycle bound reached?</text>
</g>
<!-- act&#45;&gt;cannot -->
<g id="edge9" class="edge">
<title>act&#45;&gt;cannot</title>
<path fill="none" stroke="black" d="M984.02,-421.28C984.02,-372.6 984.02,-232.92 984.02,-172.46"/>
<polygon fill="black" stroke="black" points="987.52,-172.66 984.02,-162.66 980.52,-172.66 987.52,-172.66"/>
</g>
<!-- actions -->
<g id="node11" class="node">
<title>actions</title>
<polygon fill="#eeeeee" stroke="none" points="1196.27,-641.25 1196.27,-662.5 1312.77,-662.5 1312.77,-641.25 1196.27,-641.25"/>
<polygon fill="none" stroke="black" points="1196.27,-641.25 1196.27,-662.5 1312.77,-662.5 1312.77,-641.25 1196.27,-641.25"/>
<text xml:space="preserve" text-anchor="start" x="1238.4" y="-649.95" font-family="Helvetica,sans-Serif" font-weight="bold" font-size="9.00">Action</text>
<polygon fill="#eeeeee" stroke="none" points="1312.77,-641.25 1312.77,-662.5 1781.77,-662.5 1781.77,-641.25 1312.77,-641.25"/>
<polygon fill="none" stroke="black" points="1312.77,-641.25 1312.77,-662.5 1781.77,-662.5 1781.77,-641.25 1312.77,-641.25"/>
<text xml:space="preserve" text-anchor="start" x="1527.4" y="-649.95" font-family="Helvetica,sans-Serif" font-weight="bold" font-size="9.00">done :=</text>
<polygon fill="none" stroke="black" points="1196.27,-620 1196.27,-641.25 1312.77,-641.25 1312.77,-620 1196.27,-620"/>
<text xml:space="preserve" text-anchor="start" x="1201.27" y="-627.7" font-family="Helvetica,sans-Serif" font-size="9.00">repair PATH</text>
<polygon fill="none" stroke="black" points="1312.77,-620 1312.77,-641.25 1781.77,-641.25 1781.77,-620 1312.77,-620"/>
<text xml:space="preserve" text-anchor="start" x="1317.77" y="-627.7" font-family="Helvetica,sans-Serif" font-size="9.00">hand&#45;written input parses; no unrelated byte changed</text>
<polygon fill="none" stroke="black" points="1196.27,-598.75 1196.27,-620 1312.77,-620 1312.77,-598.75 1196.27,-598.75"/>
<text xml:space="preserve" text-anchor="start" x="1201.27" y="-606.45" font-family="Helvetica,sans-Serif" font-size="9.00">recover TRANSACTION</text>
<polygon fill="none" stroke="black" points="1312.77,-598.75 1312.77,-620 1781.77,-620 1781.77,-598.75 1312.77,-598.75"/>
<text xml:space="preserve" text-anchor="start" x="1317.77" y="-606.45" font-family="Helvetica,sans-Serif" font-size="9.00">intent has a terminal domain or abort record; every store matches its result</text>
<polygon fill="none" stroke="black" points="1196.27,-577.5 1196.27,-598.75 1312.77,-598.75 1312.77,-577.5 1196.27,-577.5"/>
<text xml:space="preserve" text-anchor="start" x="1201.27" y="-585.2" font-family="Helvetica,sans-Serif" font-size="9.00">reconcile ACTION</text>
<polygon fill="none" stroke="black" points="1312.77,-577.5 1312.77,-598.75 1781.77,-598.75 1781.77,-577.5 1312.77,-577.5"/>
<text xml:space="preserve" text-anchor="start" x="1317.77" y="-585.2" font-family="Helvetica,sans-Serif" font-size="9.00">local action lease is gone; action finished or was abandoned</text>
<polygon fill="none" stroke="black" points="1196.27,-556.25 1196.27,-577.5 1312.77,-577.5 1312.77,-556.25 1196.27,-556.25"/>
<text xml:space="preserve" text-anchor="start" x="1201.27" y="-563.95" font-family="Helvetica,sans-Serif" font-size="9.00">scope PATH</text>
<polygon fill="none" stroke="black" points="1312.77,-556.25 1312.77,-577.5 1781.77,-577.5 1781.77,-556.25 1312.77,-556.25"/>
<text xml:space="preserve" text-anchor="start" x="1317.77" y="-563.95" font-family="Helvetica,sans-Serif" font-size="9.00">each durable breach is developer&#45;kept or restored to its allowed base; later declaration never clears it</text>
<polygon fill="none" stroke="black" points="1196.27,-535 1196.27,-556.25 1312.77,-556.25 1312.77,-535 1196.27,-535"/>
<text xml:space="preserve" text-anchor="start" x="1201.27" y="-542.7" font-family="Helvetica,sans-Serif" font-size="9.00">fix ITEM</text>
<polygon fill="none" stroke="black" points="1312.77,-535 1312.77,-556.25 1781.77,-556.25 1781.77,-535 1312.77,-535"/>
<text xml:space="preserve" text-anchor="start" x="1317.77" y="-542.7" font-family="Helvetica,sans-Serif" font-size="9.00">fix snapshot changes no protected contract; requirement has a current pass</text>
<polygon fill="none" stroke="black" points="1196.27,-513.75 1196.27,-535 1312.77,-535 1312.77,-513.75 1196.27,-513.75"/>
<text xml:space="preserve" text-anchor="start" x="1201.27" y="-521.45" font-family="Helvetica,sans-Serif" font-size="9.00">record PATH</text>
<polygon fill="none" stroke="black" points="1312.77,-513.75 1312.77,-535 1781.77,-535 1781.77,-513.75 1312.77,-513.75"/>
<text xml:space="preserve" text-anchor="start" x="1317.77" y="-521.45" font-family="Helvetica,sans-Serif" font-size="9.00">action lease covers the path, or it is clean</text>
<polygon fill="none" stroke="black" points="1196.27,-492.5 1196.27,-513.75 1312.77,-513.75 1312.77,-492.5 1196.27,-492.5"/>
<text xml:space="preserve" text-anchor="start" x="1201.27" y="-500.2" font-family="Helvetica,sans-Serif" font-size="9.00">commit PATH</text>
<polygon fill="none" stroke="black" points="1312.77,-492.5 1312.77,-513.75 1781.77,-513.75 1781.77,-492.5 1312.77,-492.5"/>
<text xml:space="preserve" text-anchor="start" x="1317.77" y="-500.2" font-family="Helvetica,sans-Serif" font-size="9.00">path is clean, or the action lease covers it</text>
<polygon fill="none" stroke="black" points="1196.27,-471.25 1196.27,-492.5 1312.77,-492.5 1312.77,-471.25 1196.27,-471.25"/>
<text xml:space="preserve" text-anchor="start" x="1201.27" y="-478.95" font-family="Helvetica,sans-Serif" font-size="9.00">declare REQ</text>
<polygon fill="none" stroke="black" points="1312.77,-471.25 1312.77,-492.5 1781.77,-492.5 1781.77,-471.25 1312.77,-471.25"/>
<text xml:space="preserve" text-anchor="start" x="1317.77" y="-478.95" font-family="Helvetica,sans-Serif" font-size="9.00">mechanism definition names REQ; no prior undeclared delta was legalized</text>
<polygon fill="none" stroke="black" points="1196.27,-450 1196.27,-471.25 1312.77,-471.25 1312.77,-450 1196.27,-450"/>
<text xml:space="preserve" text-anchor="start" x="1201.27" y="-457.7" font-family="Helvetica,sans-Serif" font-size="9.00">run REQ</text>
<polygon fill="none" stroke="black" points="1312.77,-450 1312.77,-471.25 1781.77,-471.25 1781.77,-450 1312.77,-450"/>
<text xml:space="preserve" text-anchor="start" x="1317.77" y="-457.7" font-family="Helvetica,sans-Serif" font-size="9.00">current receipt matches input snapshot, definition, text and declared execution identity</text>
<polygon fill="none" stroke="black" points="1196.27,-428.75 1196.27,-450 1312.77,-450 1312.77,-428.75 1196.27,-428.75"/>
<text xml:space="preserve" text-anchor="start" x="1201.27" y="-436.45" font-family="Helvetica,sans-Serif" font-size="9.00">implement REQ</text>
<polygon fill="none" stroke="black" points="1312.77,-428.75 1312.77,-450 1781.77,-450 1781.77,-428.75 1312.77,-428.75"/>
<text xml:space="preserve" text-anchor="start" x="1317.77" y="-436.45" font-family="Helvetica,sans-Serif" font-size="9.00">current pass plus review metadata bound to current definition and frozen text, with fail receipt</text>
<polygon fill="none" stroke="black" points="1196.27,-407.5 1196.27,-428.75 1312.77,-428.75 1312.77,-407.5 1196.27,-407.5"/>
<text xml:space="preserve" text-anchor="start" x="1201.27" y="-415.2" font-family="Helvetica,sans-Serif" font-size="9.00">escalate REQ</text>
<polygon fill="none" stroke="black" points="1312.77,-407.5 1312.77,-428.75 1781.77,-428.75 1781.77,-407.5 1312.77,-407.5"/>
<text xml:space="preserve" text-anchor="start" x="1317.77" y="-415.2" font-family="Helvetica,sans-Serif" font-size="9.00">after three failing attempts, an escalation exists before a fourth</text>
<polygon fill="none" stroke="black" points="1196.27,-386.25 1196.27,-407.5 1312.77,-407.5 1312.77,-386.25 1196.27,-386.25"/>
<text xml:space="preserve" text-anchor="start" x="1201.27" y="-393.95" font-family="Helvetica,sans-Serif" font-size="9.00">review mechanism REQ</text>
<polygon fill="none" stroke="black" points="1312.77,-386.25 1312.77,-407.5 1781.77,-407.5 1781.77,-386.25 1312.77,-386.25"/>
<text xml:space="preserve" text-anchor="start" x="1317.77" y="-393.95" font-family="Helvetica,sans-Serif" font-size="9.00">review metadata binds definition and text to a fail receipt; product inputs unchanged</text>
<polygon fill="none" stroke="black" points="1196.27,-365 1196.27,-386.25 1312.77,-386.25 1312.77,-365 1196.27,-365"/>
<text xml:space="preserve" text-anchor="start" x="1201.27" y="-372.7" font-family="Helvetica,sans-Serif" font-size="9.00">capture ITEM</text>
<polygon fill="none" stroke="black" points="1312.77,-365 1312.77,-386.25 1781.77,-386.25 1781.77,-365 1312.77,-365"/>
<text xml:space="preserve" text-anchor="start" x="1317.77" y="-372.7" font-family="Helvetica,sans-Serif" font-size="9.00">outside record or escalation names it</text>
<polygon fill="none" stroke="black" points="1196.27,-343.75 1196.27,-365 1312.77,-365 1312.77,-343.75 1196.27,-343.75"/>
<text xml:space="preserve" text-anchor="start" x="1201.27" y="-351.45" font-family="Helvetica,sans-Serif" font-size="9.00">review SLUG</text>
<polygon fill="none" stroke="black" points="1312.77,-343.75 1312.77,-365 1781.77,-365 1781.77,-343.75 1312.77,-343.75"/>
<text xml:space="preserve" text-anchor="start" x="1317.77" y="-351.45" font-family="Helvetica,sans-Serif" font-size="9.00">current workspace snapshot; every fixed question answered for each target</text>
<polygon fill="none" stroke="black" points="1196.27,-322.5 1196.27,-343.75 1312.77,-343.75 1312.77,-322.5 1196.27,-322.5"/>
<text xml:space="preserve" text-anchor="start" x="1201.27" y="-330.2" font-family="Helvetica,sans-Serif" font-size="9.00">report SLUG</text>
<polygon fill="none" stroke="black" points="1312.77,-322.5 1312.77,-343.75 1781.77,-343.75 1781.77,-322.5 1312.77,-322.5"/>
<text xml:space="preserve" text-anchor="start" x="1317.77" y="-330.2" font-family="Helvetica,sans-Serif" font-size="9.00">isolated projection; current brief and report; all question and interface attempts present</text>
<polygon fill="none" stroke="black" points="1196.27,-301.25 1196.27,-322.5 1312.77,-322.5 1312.77,-301.25 1196.27,-301.25"/>
<text xml:space="preserve" text-anchor="start" x="1201.27" y="-308.95" font-family="Helvetica,sans-Serif" font-size="9.00">resolve SLUG N</text>
<polygon fill="none" stroke="black" points="1312.77,-301.25 1312.77,-322.5 1781.77,-322.5 1781.77,-301.25 1312.77,-301.25"/>
<text xml:space="preserve" text-anchor="start" x="1317.77" y="-308.95" font-family="Helvetica,sans-Serif" font-size="9.00">resolution or developer dispute names N on its exact source record</text>
<polygon fill="none" stroke="black" points="1196.27,-280 1196.27,-301.25 1312.77,-301.25 1312.77,-280 1196.27,-280"/>
<text xml:space="preserve" text-anchor="start" x="1201.27" y="-287.7" font-family="Helvetica,sans-Serif" font-size="9.00">accept SLUG</text>
<polygon fill="none" stroke="black" points="1312.77,-280 1312.77,-301.25 1781.77,-301.25 1781.77,-280 1312.77,-280"/>
<text xml:space="preserve" text-anchor="start" x="1317.77" y="-287.7" font-family="Helvetica,sans-Serif" font-size="9.00">current acceptance examines cumulative delta and every submitted resolution; it may add findings</text>
<polygon fill="none" stroke="black" points="1196.27,-258.75 1196.27,-280 1312.77,-280 1312.77,-258.75 1196.27,-258.75"/>
<text xml:space="preserve" text-anchor="start" x="1201.27" y="-266.45" font-family="Helvetica,sans-Serif" font-size="9.00">build DECISION</text>
<polygon fill="none" stroke="black" points="1312.77,-258.75 1312.77,-280 1781.77,-280 1781.77,-258.75 1312.77,-258.75"/>
<text xml:space="preserve" text-anchor="start" x="1317.77" y="-266.45" font-family="Helvetica,sans-Serif" font-size="9.00">realized line names base and result snapshots; actual delta passes protected&#45;category check</text>
<polygon fill="none" stroke="black" points="1196.27,-237.5 1196.27,-258.75 1312.77,-258.75 1312.77,-237.5 1196.27,-237.5"/>
<text xml:space="preserve" text-anchor="start" x="1201.27" y="-245.2" font-family="Helvetica,sans-Serif" font-size="9.00">done SLUG</text>
<polygon fill="none" stroke="black" points="1312.77,-237.5 1312.77,-258.75 1781.77,-258.75 1781.77,-237.5 1312.77,-237.5"/>
<text xml:space="preserve" text-anchor="start" x="1317.77" y="-245.2" font-family="Helvetica,sans-Serif" font-size="9.00">Done rule holds; cairn done writes the final record</text>
<polygon fill="none" stroke="black" points="1196.27,-216.25 1196.27,-237.5 1312.77,-237.5 1312.77,-216.25 1196.27,-216.25"/>
<text xml:space="preserve" text-anchor="start" x="1201.27" y="-223.95" font-family="Helvetica,sans-Serif" font-size="9.00">promote</text>
<polygon fill="none" stroke="black" points="1312.77,-216.25 1312.77,-237.5 1781.77,-237.5 1781.77,-216.25 1312.77,-216.25"/>
<text xml:space="preserve" text-anchor="start" x="1317.77" y="-223.95" font-family="Helvetica,sans-Serif" font-size="9.00">one backlog item, decision, roadmap move and successor start are one transaction</text>
</g>
<!-- act&#45;&gt;actions -->
<g id="edge14" class="edge">
<title>act&#45;&gt;actions</title>
<path fill="none" stroke="black" stroke-dasharray="5,2" d="M1116.68,-439.38C1140.56,-439.38 1164.44,-439.38 1188.32,-439.38"/>
</g>
<!-- escalate -->
<g id="node9" class="node">
<title>escalate</title>
<path fill="none" stroke="black" d="M729.77,-62C729.77,-62 394.27,-62 394.27,-62 388.27,-62 382.27,-56 382.27,-50 382.27,-50 382.27,-12 382.27,-12 382.27,-6 388.27,0 394.27,0 394.27,0 729.77,0 729.77,0 735.77,0 741.77,-6 741.77,-12 741.77,-12 741.77,-50 741.77,-50 741.77,-56 735.77,-62 729.77,-62"/>
<text xml:space="preserve" text-anchor="middle" x="562.02" y="-47.55" font-family="Helvetica,sans-Serif" font-size="11.00">Write one evidence&#45;backed escalation;</text>
<text xml:space="preserve" text-anchor="middle" x="562.02" y="-34.05" font-family="Helvetica,sans-Serif" font-size="11.00">model routing applies only inside the Consequential envelope;</text>
<text xml:space="preserve" text-anchor="middle" x="562.02" y="-20.55" font-family="Helvetica,sans-Serif" font-size="11.00">cycle guard: fourth same&#45;target or 28th admin transition,</text>
<text xml:space="preserve" text-anchor="middle" x="562.02" y="-7.05" font-family="Helvetica,sans-Serif" font-size="11.00">or third unsuccessful acceptance round</text>
</g>
<!-- cannot&#45;&gt;escalate -->
<g id="edge11" class="edge">
<title>cannot&#45;&gt;escalate</title>
<path fill="none" stroke="black" d="M934.79,-129.17C875.17,-113.63 772.5,-86.86 689.99,-65.36"/>
<polygon fill="black" stroke="black" points="691.03,-62.01 680.47,-62.87 689.26,-68.78 691.03,-62.01"/>
<text xml:space="preserve" text-anchor="middle" x="843.66" y="-87.25" font-family="Helvetica,sans-Serif" font-size="10.00">cannot or bounded</text>
</g>
<!-- trace -->
<g id="node10" class="node">
<title>trace</title>
<path fill="none" stroke="black" d="M1835.65,-49C1835.65,-49 1538.4,-49 1538.4,-49 1532.4,-49 1526.4,-43 1526.4,-37 1526.4,-37 1526.4,-25 1526.4,-25 1526.4,-19 1532.4,-13 1538.4,-13 1538.4,-13 1835.65,-13 1835.65,-13 1841.65,-13 1847.65,-19 1847.65,-25 1847.65,-25 1847.65,-37 1847.65,-37 1847.65,-43 1841.65,-49 1835.65,-49"/>
<text xml:space="preserve" text-anchor="middle" x="1687.02" y="-34.05" font-family="Helvetica,sans-Serif" font-size="11.00">Leave the required trace:</text>
<text xml:space="preserve" text-anchor="middle" x="1687.02" y="-20.55" font-family="Helvetica,sans-Serif" font-size="11.00">branch commit, typed snapshot or canonical log record</text>
</g>
<!-- cannot&#45;&gt;trace -->
<g id="edge10" class="edge">
<title>cannot&#45;&gt;trace</title>
<path fill="none" stroke="black" d="M1054,-131.05C1172.97,-112.43 1416.13,-74.39 1564.03,-51.24"/>
<polygon fill="black" stroke="black" points="1564.56,-54.7 1573.9,-49.7 1563.48,-47.79 1564.56,-54.7"/>
<text xml:space="preserve" text-anchor="middle" x="1353.15" y="-87.25" font-family="Helvetica,sans-Serif" font-size="10.00">can act</text>
</g>
<!-- escalate&#45;&gt;wake -->
<g id="edge13" class="edge">
<title>escalate&#45;&gt;wake</title>
<path fill="none" stroke="black" d="M381.93,-42.21C253.34,-54.63 103.02,-81.98 103.02,-142 103.02,-742.25 103.02,-742.25 103.02,-742.25 103.02,-767.81 118.82,-786.83 140.08,-800.87"/>
<polygon fill="black" stroke="black" points="138.19,-803.82 148.56,-806 141.81,-797.83 138.19,-803.82"/>
</g>
<!-- trace&#45;&gt;wake -->
<g id="edge12" class="edge">
<title>trace&#45;&gt;wake</title>
<path fill="none" stroke="black" d="M1847.82,-39.19C1984.94,-49.86 2160.02,-76.34 2160.02,-142 2160.02,-742.25 2160.02,-742.25 2160.02,-742.25 2160.02,-823.7 1036.85,-836.27 513.55,-837.7"/>
<polygon fill="black" stroke="black" points="513.57,-834.2 503.58,-837.73 513.59,-841.2 513.57,-834.2"/>
</g>
</g>
</svg>
