<?xml version="1.0" encoding="UTF-8" standalone="no"?>
<!DOCTYPE svg PUBLIC "-//W3C//DTD SVG 1.1//EN"
 "http://www.w3.org/Graphics/SVG/1.1/DTD/svg11.dtd">
<!-- Generated by graphviz version 13.1.2 (20250809.0930)
 -->
<!-- Title: work_loop Pages: 1 -->
<svg width="2819pt" height="868pt"
 viewBox="0.00 0.00 2819.00 868.00" xmlns="http://www.w3.org/2000/svg" xmlns:xlink="http://www.w3.org/1999/xlink">
<g id="graph0" class="graph" transform="scale(1 1) rotate(0) translate(4 863.59)">
<title>work_loop</title>
<polygon fill="white" stroke="none" points="-4,4 -4,-863.59 2815.23,-863.59 2815.23,4 -4,4"/>
<text xml:space="preserve" text-anchor="middle" x="1405.62" y="-845.14" font-family="Helvetica,sans-Serif" font-size="11.00">The work loop: do the action until its predicate holds; leave the trace; wake</text>
<!-- wake -->
<g id="node1" class="node">
<title>wake</title>
<ellipse fill="none" stroke="black" cx="237.23" cy="-803.79" rx="237.23" ry="34.29"/>
<text xml:space="preserve" text-anchor="middle" x="237.23" y="-813.59" font-family="Helvetica,sans-Serif" font-size="11.00">cairn wake: one git log of the range since the start record</text>
<text xml:space="preserve" text-anchor="middle" x="237.23" y="-800.09" font-family="Helvetica,sans-Serif" font-size="11.00">prints verdict, action or party, reason, predicate</text>
<text xml:space="preserve" text-anchor="middle" x="237.23" y="-786.59" font-family="Helvetica,sans-Serif" font-size="11.00">(outside a project, or records ref absent: one line, exit 3)</text>
</g>
<!-- verdict -->
<g id="node2" class="node">
<title>verdict</title>
<path fill="none" stroke="black" d="M750.88,-720.61C750.88,-720.61 721.13,-710.39 721.13,-710.39 715.45,-708.45 715.45,-704.55 721.13,-702.61 721.13,-702.61 750.88,-692.39 750.88,-692.39 756.56,-690.45 767.91,-690.45 773.58,-692.39 773.58,-692.39 803.34,-702.61 803.34,-702.61 809.01,-704.55 809.01,-708.45 803.34,-710.39 803.34,-710.39 773.58,-720.61 773.58,-720.61 767.91,-722.55 756.56,-722.55 750.88,-720.61"/>
<text xml:space="preserve" text-anchor="middle" x="762.23" y="-702.8" font-family="Helvetica,sans-Serif" font-size="11.00">Verdict?</text>
</g>
<!-- wake&#45;&gt;verdict -->
<g id="edge1" class="edge">
<title>wake&#45;&gt;verdict</title>
<path fill="none" stroke="black" d="M382.78,-776.38C495.69,-755.88 644.9,-728.8 718.01,-715.53"/>
<polygon fill="black" stroke="black" points="718.37,-719.02 727.59,-713.79 717.12,-712.13 718.37,-719.02"/>
</g>
<!-- waiting -->
<g id="node3" class="node">
<title>waiting</title>
<path fill="none" stroke="black" d="M945.73,-433.25C945.73,-433.25 578.73,-433.25 578.73,-433.25 572.73,-433.25 566.73,-427.25 566.73,-421.25 566.73,-421.25 566.73,-409.25 566.73,-409.25 566.73,-403.25 572.73,-397.25 578.73,-397.25 578.73,-397.25 945.73,-397.25 945.73,-397.25 951.73,-397.25 957.73,-403.25 957.73,-409.25 957.73,-409.25 957.73,-421.25 957.73,-421.25 957.73,-427.25 951.73,-433.25 945.73,-433.25"/>
<text xml:space="preserve" text-anchor="middle" x="762.23" y="-418.3" font-family="Helvetica,sans-Serif" font-size="11.00">Waiting: wake prints the escalation&#39;s five fields verbatim;</text>
<text xml:space="preserve" text-anchor="middle" x="762.23" y="-404.8" font-family="Helvetica,sans-Serif" font-size="11.00">the agent adds nothing and stops; the hooks print it and do not nag</text>
</g>
<!-- verdict&#45;&gt;waiting -->
<g id="edge2" class="edge">
<title>verdict&#45;&gt;waiting</title>
<path fill="none" stroke="black" d="M762.23,-688.27C762.23,-640.24 762.23,-504.47 762.23,-444.89"/>
<polygon fill="black" stroke="black" points="765.73,-444.9 762.23,-434.9 758.73,-444.9 765.73,-444.9"/>
<text xml:space="preserve" text-anchor="middle" x="780.98" y="-657" font-family="Helvetica,sans-Serif" font-size="10.00">Waiting</text>
</g>
<!-- reply -->
<g id="node5" class="node">
<title>reply</title>
<path fill="none" stroke="black" d="M518.98,-433.25C518.98,-433.25 267.48,-433.25 267.48,-433.25 261.48,-433.25 255.48,-427.25 255.48,-421.25 255.48,-421.25 255.48,-409.25 255.48,-409.25 255.48,-403.25 261.48,-397.25 267.48,-397.25 267.48,-397.25 518.98,-397.25 518.98,-397.25 524.98,-397.25 530.98,-403.25 530.98,-409.25 530.98,-409.25 530.98,-421.25 530.98,-421.25 530.98,-427.25 524.98,-433.25 518.98,-433.25"/>
<text xml:space="preserve" text-anchor="middle" x="393.23" y="-418.3" font-family="Helvetica,sans-Serif" font-size="11.00">reply SLUG (after ask): append the explanation</text>
<text xml:space="preserve" text-anchor="middle" x="393.23" y="-404.8" font-family="Helvetica,sans-Serif" font-size="11.00">done := a reply record names the escalation</text>
</g>
<!-- verdict&#45;&gt;reply -->
<g id="edge5" class="edge">
<title>verdict&#45;&gt;reply</title>
<path fill="none" stroke="black" d="M726.93,-700.14C681.79,-691.85 602.94,-672.44 548.23,-631.75 479.23,-580.42 428.46,-489.41 406.01,-443.85"/>
<polygon fill="black" stroke="black" points="409.2,-442.4 401.7,-434.92 402.9,-445.44 409.2,-442.4"/>
<text xml:space="preserve" text-anchor="middle" x="649.54" y="-657" font-family="Helvetica,sans-Serif" font-size="10.00">Resolvable: reply</text>
</g>
<!-- stop -->
<g id="node6" class="node">
<title>stop</title>
<path fill="none" stroke="black" d="M2740.61,-439.5C2740.61,-439.5 2411.86,-439.5 2411.86,-439.5 2405.86,-439.5 2399.86,-433.5 2399.86,-427.5 2399.86,-427.5 2399.86,-403 2399.86,-403 2399.86,-397 2405.86,-391 2411.86,-391 2411.86,-391 2740.61,-391 2740.61,-391 2746.61,-391 2752.61,-397 2752.61,-403 2752.61,-403 2752.61,-427.5 2752.61,-427.5 2752.61,-433.5 2746.61,-439.5 2740.61,-439.5"/>
<path fill="none" stroke="black" d="M2744.61,-443.5C2744.61,-443.5 2407.86,-443.5 2407.86,-443.5 2401.86,-443.5 2395.86,-437.5 2395.86,-431.5 2395.86,-431.5 2395.86,-399 2395.86,-399 2395.86,-393 2401.86,-387 2407.86,-387 2407.86,-387 2744.61,-387 2744.61,-387 2750.61,-387 2756.61,-393 2756.61,-399 2756.61,-399 2756.61,-431.5 2756.61,-431.5 2756.61,-437.5 2750.61,-443.5 2744.61,-443.5"/>
<text xml:space="preserve" text-anchor="middle" x="2576.23" y="-425.05" font-family="Helvetica,sans-Serif" font-size="11.00">Done: a done record exists and nothing waits;</text>
<text xml:space="preserve" text-anchor="middle" x="2576.23" y="-411.55" font-family="Helvetica,sans-Serif" font-size="11.00">stop. The developer opens /next&#45;feature.</text>
<text xml:space="preserve" text-anchor="middle" x="2576.23" y="-398.05" font-family="Helvetica,sans-Serif" font-size="11.00">(With a backlog item waiting, wake names promote instead.)</text>
</g>
<!-- verdict&#45;&gt;stop -->
<g id="edge7" class="edge">
<title>verdict&#45;&gt;stop</title>
<path fill="none" stroke="black" d="M812.9,-705.47C1071.07,-705.03 2233.57,-699.26 2378.23,-631.75 2460.24,-593.48 2523.99,-504.13 2555.18,-453.32"/>
<polygon fill="black" stroke="black" points="2558.04,-455.36 2560.2,-444.99 2552.04,-451.75 2558.04,-455.36"/>
<text xml:space="preserve" text-anchor="middle" x="2281.35" y="-657" font-family="Helvetica,sans-Serif" font-size="10.00">Done</text>
</g>
<!-- act -->
<g id="node7" class="node">
<title>act</title>
<path fill="none" stroke="black" d="M1210.36,-439.5C1210.36,-439.5 1006.11,-439.5 1006.11,-439.5 1000.11,-439.5 994.11,-433.5 994.11,-427.5 994.11,-427.5 994.11,-403 994.11,-403 994.11,-397 1000.11,-391 1006.11,-391 1006.11,-391 1210.36,-391 1210.36,-391 1216.36,-391 1222.36,-397 1222.36,-403 1222.36,-403 1222.36,-427.5 1222.36,-427.5 1222.36,-433.5 1216.36,-439.5 1210.36,-439.5"/>
<text xml:space="preserve" text-anchor="middle" x="1108.23" y="-425.05" font-family="Helvetica,sans-Serif" font-size="11.00">Do the named action</text>
<text xml:space="preserve" text-anchor="middle" x="1108.23" y="-411.55" font-family="Helvetica,sans-Serif" font-size="11.00">until its predicate holds</text>
<text xml:space="preserve" text-anchor="middle" x="1108.23" y="-398.05" font-family="Helvetica,sans-Serif" font-size="11.00">(the table below, in precedence order)</text>
</g>
<!-- verdict&#45;&gt;act -->
<g id="edge8" class="edge">
<title>verdict&#45;&gt;act</title>
<path fill="none" stroke="black" d="M798.62,-700.55C844.16,-692.77 922.56,-673.96 975.23,-631.75 1036.37,-582.75 1076.84,-497.54 1095.79,-450.28"/>
<polygon fill="black" stroke="black" points="1099,-451.68 1099.38,-441.09 1092.48,-449.13 1099,-451.68"/>
<text xml:space="preserve" text-anchor="middle" x="966.6" y="-657" font-family="Helvetica,sans-Serif" font-size="10.00">Resolvable</text>
</g>
<!-- answer -->
<g id="node4" class="node">
<title>answer</title>
<path fill="none" stroke="black" d="M476.48,-153.75C476.48,-153.75 293.98,-153.75 293.98,-153.75 287.98,-153.75 281.98,-147.75 281.98,-141.75 281.98,-141.75 281.98,-117.25 281.98,-117.25 281.98,-111.25 287.98,-105.25 293.98,-105.25 293.98,-105.25 476.48,-105.25 476.48,-105.25 482.48,-105.25 488.48,-111.25 488.48,-117.25 488.48,-117.25 488.48,-141.75 488.48,-141.75 488.48,-147.75 482.48,-153.75 476.48,-153.75"/>
<text xml:space="preserve" text-anchor="middle" x="385.23" y="-139.3" font-family="Helvetica,sans-Serif" font-size="11.00">Developer runs cairn answer SLUG</text>
<text xml:space="preserve" text-anchor="middle" x="385.23" y="-125.8" font-family="Helvetica,sans-Serif" font-size="11.00">ok | instead &lt;text&gt; | ask &lt;text&gt;</text>
<text xml:space="preserve" text-anchor="middle" x="385.23" y="-112.3" font-family="Helvetica,sans-Serif" font-size="11.00">(the agent never does)</text>
</g>
<!-- waiting&#45;&gt;answer -->
<g id="edge3" class="edge">
<title>waiting&#45;&gt;answer</title>
<path fill="none" stroke="black" d="M749.11,-396.86C718.22,-356.98 636.93,-257.82 549.23,-198.75 525.07,-182.47 496.41,-168.92 469.86,-158.29"/>
<polygon fill="black" stroke="black" points="471.42,-155.14 460.83,-154.76 468.87,-161.66 471.42,-155.14"/>
</g>
<!-- answer&#45;&gt;wake -->
<g id="edge4" class="edge">
<title>answer&#45;&gt;wake</title>
<path fill="none" stroke="black" d="M292.32,-154.24C270.63,-164.33 250.12,-178.61 237.23,-198.75 122.69,-377.71 189.46,-651.78 222.29,-758.3"/>
<polygon fill="black" stroke="black" points="218.95,-759.32 225.28,-767.82 225.62,-757.23 218.95,-759.32"/>
</g>
<!-- reply&#45;&gt;wake -->
<g id="edge6" class="edge">
<title>reply&#45;&gt;wake</title>
<path fill="none" stroke="black" d="M379.35,-433.46C342.61,-480.24 243.39,-615 209.23,-746.5 208.2,-750.48 208.08,-754.5 208.62,-758.47"/>
<polygon fill="black" stroke="black" points="205.22,-759.3 211.29,-767.99 211.96,-757.41 205.22,-759.3"/>
</g>
<!-- cannot -->
<g id="node8" class="node">
<title>cannot</title>
<path fill="none" stroke="black" d="M1096.43,-145.32C1096.43,-145.32 1022.62,-131.68 1022.62,-131.68 1016.72,-130.59 1016.72,-128.41 1022.62,-127.32 1022.62,-127.32 1096.43,-113.68 1096.43,-113.68 1102.33,-112.59 1114.13,-112.59 1120.03,-113.68 1120.03,-113.68 1193.85,-127.32 1193.85,-127.32 1199.75,-128.41 1199.75,-130.59 1193.85,-131.68 1193.85,-131.68 1120.03,-145.32 1120.03,-145.32 1114.13,-146.41 1102.33,-146.41 1096.43,-145.32"/>
<text xml:space="preserve" text-anchor="middle" x="1108.23" y="-125.8" font-family="Helvetica,sans-Serif" font-size="11.00">Cannot act on it?</text>
</g>
<!-- act&#45;&gt;cannot -->
<g id="edge9" class="edge">
<title>act&#45;&gt;cannot</title>
<path fill="none" stroke="black" d="M1108.23,-390.55C1108.23,-338.68 1108.23,-215.27 1108.23,-159.16"/>
<polygon fill="black" stroke="black" points="1111.73,-159.46 1108.23,-149.46 1104.73,-159.46 1111.73,-159.46"/>
</g>
<!-- actions -->
<g id="node11" class="node">
<title>actions</title>
<polygon fill="#eeeeee" stroke="none" points="1302.36,-606.5 1302.36,-627.75 1454.11,-627.75 1454.11,-606.5 1302.36,-606.5"/>
<polygon fill="none" stroke="black" points="1302.36,-606.5 1302.36,-627.75 1454.11,-627.75 1454.11,-606.5 1302.36,-606.5"/>
<text xml:space="preserve" text-anchor="start" x="1307.36" y="-615.2" font-family="Helvetica,sans-Serif" font-weight="bold" font-size="9.00">Action, in precedence order</text>
<polygon fill="#eeeeee" stroke="none" points="1454.11,-606.5 1454.11,-627.75 2352.11,-627.75 2352.11,-606.5 1454.11,-606.5"/>
<polygon fill="none" stroke="black" points="1454.11,-606.5 1454.11,-627.75 2352.11,-627.75 2352.11,-606.5 1454.11,-606.5"/>
<text xml:space="preserve" text-anchor="start" x="1883.23" y="-615.2" font-family="Helvetica,sans-Serif" font-weight="bold" font-size="9.00">done :=</text>
<polygon fill="none" stroke="black" points="1302.36,-585.25 1302.36,-606.5 1454.11,-606.5 1454.11,-585.25 1302.36,-585.25"/>
<text xml:space="preserve" text-anchor="start" x="1307.36" y="-592.95" font-family="Helvetica,sans-Serif" font-size="9.00">repair PATH</text>
<polygon fill="none" stroke="black" points="1454.11,-585.25 1454.11,-606.5 2352.11,-606.5 2352.11,-585.25 1454.11,-585.25"/>
<text xml:space="preserve" text-anchor="start" x="1459.11" y="-592.95" font-family="Helvetica,sans-Serif" font-size="9.00">the named file reads under its grammar; nothing else changed</text>
<polygon fill="none" stroke="black" points="1302.36,-564 1302.36,-585.25 1454.11,-585.25 1454.11,-564 1302.36,-564"/>
<text xml:space="preserve" text-anchor="start" x="1307.36" y="-571.7" font-family="Helvetica,sans-Serif" font-size="9.00">reconcile ACTION</text>
<polygon fill="none" stroke="black" points="1454.11,-564 1454.11,-585.25 2352.11,-585.25 2352.11,-564 1454.11,-564"/>
<text xml:space="preserve" text-anchor="start" x="1459.11" y="-571.7" font-family="Helvetica,sans-Serif" font-size="9.00">refs/cairn/in&#45;progress is gone; the action finished or was abandoned</text>
<polygon fill="none" stroke="black" points="1302.36,-542.75 1302.36,-564 1454.11,-564 1454.11,-542.75 1302.36,-542.75"/>
<text xml:space="preserve" text-anchor="start" x="1307.36" y="-550.45" font-family="Helvetica,sans-Serif" font-size="9.00">scope PATH</text>
<polygon fill="none" stroke="black" points="1454.11,-542.75 1454.11,-564 2352.11,-564 2352.11,-542.75 1454.11,-542.75"/>
<text xml:space="preserve" text-anchor="start" x="1459.11" y="-550.45" font-family="Helvetica,sans-Serif" font-size="9.00">a mechanism declares the path, outside lists it, or a scope record with an ok answer names it</text>
<polygon fill="none" stroke="black" points="1302.36,-521.5 1302.36,-542.75 1454.11,-542.75 1454.11,-521.5 1302.36,-521.5"/>
<text xml:space="preserve" text-anchor="start" x="1307.36" y="-529.2" font-family="Helvetica,sans-Serif" font-size="9.00">fix ITEM</text>
<polygon fill="none" stroke="black" points="1454.11,-521.5 1454.11,-542.75 2352.11,-542.75 2352.11,-521.5 1454.11,-521.5"/>
<text xml:space="preserve" text-anchor="start" x="1459.11" y="-529.2" font-family="Helvetica,sans-Serif" font-size="9.00">a fix record names the item and a tree that changes no Agreed text; REQ has a current passing receipt at or after it</text>
<polygon fill="none" stroke="black" points="1302.36,-500.25 1302.36,-521.5 1454.11,-521.5 1454.11,-500.25 1302.36,-500.25"/>
<text xml:space="preserve" text-anchor="start" x="1307.36" y="-507.95" font-family="Helvetica,sans-Serif" font-size="9.00">record PATH</text>
<polygon fill="none" stroke="black" points="1454.11,-500.25 1454.11,-521.5 2352.11,-521.5 2352.11,-500.25 1454.11,-500.25"/>
<text xml:space="preserve" text-anchor="start" x="1459.11" y="-507.95" font-family="Helvetica,sans-Serif" font-size="9.00">in&#45;progress (cairn begin) covers PATH through its target&#39;s declared inputs, or PATH is clean</text>
<polygon fill="none" stroke="black" points="1302.36,-479 1302.36,-500.25 1454.11,-500.25 1454.11,-479 1302.36,-479"/>
<text xml:space="preserve" text-anchor="start" x="1307.36" y="-486.7" font-family="Helvetica,sans-Serif" font-size="9.00">commit PATH</text>
<polygon fill="none" stroke="black" points="1454.11,-479 1454.11,-500.25 2352.11,-500.25 2352.11,-479 1454.11,-479"/>
<text xml:space="preserve" text-anchor="start" x="1459.11" y="-486.7" font-family="Helvetica,sans-Serif" font-size="9.00">PATH is clean, or in&#45;progress covers it</text>
<polygon fill="none" stroke="black" points="1302.36,-457.75 1302.36,-479 1454.11,-479 1454.11,-457.75 1302.36,-457.75"/>
<text xml:space="preserve" text-anchor="start" x="1307.36" y="-465.45" font-family="Helvetica,sans-Serif" font-size="9.00">declare REQ</text>
<polygon fill="none" stroke="black" points="1454.11,-457.75 1454.11,-479 2352.11,-479 2352.11,-457.75 1454.11,-457.75"/>
<text xml:space="preserve" text-anchor="start" x="1459.11" y="-465.45" font-family="Helvetica,sans-Serif" font-size="9.00">a mechanism entry names REQ (cairn declare)</text>
<polygon fill="none" stroke="black" points="1302.36,-436.5 1302.36,-457.75 1454.11,-457.75 1454.11,-436.5 1302.36,-436.5"/>
<text xml:space="preserve" text-anchor="start" x="1307.36" y="-444.2" font-family="Helvetica,sans-Serif" font-size="9.00">run REQ</text>
<polygon fill="none" stroke="black" points="1454.11,-436.5 1454.11,-457.75 2352.11,-457.75 2352.11,-436.5 1454.11,-436.5"/>
<text xml:space="preserve" text-anchor="start" x="1459.11" y="-444.2" font-family="Helvetica,sans-Serif" font-size="9.00">a current receipt carries a result for REQ: input tree, entry digest and text digest equal now</text>
<polygon fill="none" stroke="black" points="1302.36,-415.25 1302.36,-436.5 1454.11,-436.5 1454.11,-415.25 1302.36,-415.25"/>
<text xml:space="preserve" text-anchor="start" x="1307.36" y="-422.95" font-family="Helvetica,sans-Serif" font-size="9.00">implement REQ</text>
<polygon fill="none" stroke="black" points="1454.11,-415.25 1454.11,-436.5 2352.11,-436.5 2352.11,-415.25 1454.11,-415.25"/>
<text xml:space="preserve" text-anchor="start" x="1459.11" y="-422.95" font-family="Helvetica,sans-Serif" font-size="9.00">a current receipt carries pass for REQ; the reviewed list carries REQ with a fail receipt</text>
<polygon fill="none" stroke="black" points="1302.36,-394 1302.36,-415.25 1454.11,-415.25 1454.11,-394 1302.36,-394"/>
<text xml:space="preserve" text-anchor="start" x="1307.36" y="-401.7" font-family="Helvetica,sans-Serif" font-size="9.00">escalate REQ</text>
<polygon fill="none" stroke="black" points="1454.11,-394 1454.11,-415.25 2352.11,-415.25 2352.11,-394 1454.11,-394"/>
<text xml:space="preserve" text-anchor="start" x="1459.11" y="-401.7" font-family="Helvetica,sans-Serif" font-size="9.00">three attempts without a pass: an escalation concerns REQ before a fourth</text>
<polygon fill="none" stroke="black" points="1302.36,-372.75 1302.36,-394 1454.11,-394 1454.11,-372.75 1302.36,-372.75"/>
<text xml:space="preserve" text-anchor="start" x="1307.36" y="-380.45" font-family="Helvetica,sans-Serif" font-size="9.00">review mechanism REQ</text>
<polygon fill="none" stroke="black" points="1454.11,-372.75 1454.11,-394 2352.11,-394 2352.11,-372.75 1454.11,-372.75"/>
<text xml:space="preserve" text-anchor="start" x="1459.11" y="-380.45" font-family="Helvetica,sans-Serif" font-size="9.00">the reviewed list carries REQ with the current text digest and a fail receipt; no code changed</text>
<polygon fill="none" stroke="black" points="1302.36,-351.5 1302.36,-372.75 1454.11,-372.75 1454.11,-351.5 1302.36,-351.5"/>
<text xml:space="preserve" text-anchor="start" x="1307.36" y="-359.2" font-family="Helvetica,sans-Serif" font-size="9.00">capture ITEM</text>
<polygon fill="none" stroke="black" points="1454.11,-351.5 1454.11,-372.75 2352.11,-372.75 2352.11,-351.5 1454.11,-351.5"/>
<text xml:space="preserve" text-anchor="start" x="1459.11" y="-359.2" font-family="Helvetica,sans-Serif" font-size="9.00">an outside record names the item, or an escalation concerns it</text>
<polygon fill="none" stroke="black" points="1302.36,-330.25 1302.36,-351.5 1454.11,-351.5 1454.11,-330.25 1302.36,-330.25"/>
<text xml:space="preserve" text-anchor="start" x="1307.36" y="-337.95" font-family="Helvetica,sans-Serif" font-size="9.00">review SLUG</text>
<polygon fill="none" stroke="black" points="1454.11,-330.25 1454.11,-351.5 2352.11,-351.5 2352.11,-330.25 1454.11,-330.25"/>
<text xml:space="preserve" text-anchor="start" x="1459.11" y="-337.95" font-family="Helvetica,sans-Serif" font-size="9.00">a review names the current tree and answers every fixed question for every target</text>
<polygon fill="none" stroke="black" points="1302.36,-309 1302.36,-330.25 1454.11,-330.25 1454.11,-309 1302.36,-309"/>
<text xml:space="preserve" text-anchor="start" x="1307.36" y="-316.7" font-family="Helvetica,sans-Serif" font-size="9.00">report SLUG</text>
<polygon fill="none" stroke="black" points="1454.11,-309 1454.11,-330.25 2352.11,-330.25 2352.11,-309 1454.11,-309"/>
<text xml:space="preserve" text-anchor="start" x="1459.11" y="-316.7" font-family="Helvetica,sans-Serif" font-size="9.00">cairn brief writes the brief; the agent starts the adversary and waits; a report names the same tree and the brief, with an attempt against every question</text>
<polygon fill="none" stroke="black" points="1302.36,-287.75 1302.36,-309 1454.11,-309 1454.11,-287.75 1302.36,-287.75"/>
<text xml:space="preserve" text-anchor="start" x="1307.36" y="-295.45" font-family="Helvetica,sans-Serif" font-size="9.00">resolve SLUG N</text>
<polygon fill="none" stroke="black" points="1454.11,-287.75 1454.11,-309 2352.11,-309 2352.11,-287.75 1454.11,-287.75"/>
<text xml:space="preserve" text-anchor="start" x="1459.11" y="-295.45" font-family="Helvetica,sans-Serif" font-size="9.00">a resolution names finding N of the review or the report and the tree after the fix, or an escalation concerns it</text>
<polygon fill="none" stroke="black" points="1302.36,-266.5 1302.36,-287.75 1454.11,-287.75 1454.11,-266.5 1302.36,-266.5"/>
<text xml:space="preserve" text-anchor="start" x="1307.36" y="-274.2" font-family="Helvetica,sans-Serif" font-size="9.00">accept SLUG</text>
<polygon fill="none" stroke="black" points="1454.11,-266.5 1454.11,-287.75 2352.11,-287.75 2352.11,-266.5 1454.11,-266.5"/>
<text xml:space="preserve" text-anchor="start" x="1459.11" y="-274.2" font-family="Helvetica,sans-Serif" font-size="9.00">the adversary accepts every resolution at the current tree, or rejects one and a new resolution follows; no second report</text>
<polygon fill="none" stroke="black" points="1302.36,-245.25 1302.36,-266.5 1454.11,-266.5 1454.11,-245.25 1302.36,-245.25"/>
<text xml:space="preserve" text-anchor="start" x="1307.36" y="-252.95" font-family="Helvetica,sans-Serif" font-size="9.00">build DECISION</text>
<polygon fill="none" stroke="black" points="1454.11,-245.25 1454.11,-266.5 2352.11,-266.5 2352.11,-245.25 1454.11,-245.25"/>
<text xml:space="preserve" text-anchor="start" x="1459.11" y="-252.95" font-family="Helvetica,sans-Serif" font-size="9.00">a realized line in docs/decisions.jsonl names the decision and a tree</text>
<polygon fill="none" stroke="black" points="1302.36,-224 1302.36,-245.25 1454.11,-245.25 1454.11,-224 1302.36,-224"/>
<text xml:space="preserve" text-anchor="start" x="1307.36" y="-231.7" font-family="Helvetica,sans-Serif" font-size="9.00">done SLUG</text>
<polygon fill="none" stroke="black" points="1454.11,-224 1454.11,-245.25 2352.11,-245.25 2352.11,-224 1454.11,-224"/>
<text xml:space="preserve" text-anchor="start" x="1459.11" y="-231.7" font-family="Helvetica,sans-Serif" font-size="9.00">the Done rule holds: cairn done writes the done record and prints the queue</text>
<polygon fill="none" stroke="black" points="1302.36,-202.75 1302.36,-224 1454.11,-224 1454.11,-202.75 1302.36,-202.75"/>
<text xml:space="preserve" text-anchor="start" x="1307.36" y="-210.45" font-family="Helvetica,sans-Serif" font-size="9.00">promote</text>
<polygon fill="none" stroke="black" points="1454.11,-202.75 1454.11,-224 2352.11,-224 2352.11,-202.75 1454.11,-202.75"/>
<text xml:space="preserve" text-anchor="start" x="1459.11" y="-210.45" font-family="Helvetica,sans-Serif" font-size="9.00">no commitment is open and a backlog item waits: a promotion record names one item and a decision; the roadmap section names only Agreed requirements; Current: moved; a start record exists</text>
</g>
<!-- act&#45;&gt;actions -->
<g id="edge14" class="edge">
<title>act&#45;&gt;actions</title>
<path fill="none" stroke="black" stroke-dasharray="5,2" d="M1222.68,-415.25C1246.59,-415.25 1270.51,-415.25 1294.42,-415.25"/>
</g>
<!-- escalate -->
<g id="node9" class="node">
<title>escalate</title>
<path fill="none" stroke="black" d="M755.73,-48.5C755.73,-48.5 478.73,-48.5 478.73,-48.5 472.73,-48.5 466.73,-42.5 466.73,-36.5 466.73,-36.5 466.73,-12 466.73,-12 466.73,-6 472.73,0 478.73,0 478.73,0 755.73,0 755.73,0 761.73,0 767.73,-6 767.73,-12 767.73,-12 767.73,-36.5 767.73,-36.5 767.73,-42.5 761.73,-48.5 755.73,-48.5"/>
<text xml:space="preserve" text-anchor="middle" x="617.23" y="-34.05" font-family="Helvetica,sans-Serif" font-size="11.00">cairn escalate with the evidence;</text>
<text xml:space="preserve" text-anchor="middle" x="617.23" y="-20.55" font-family="Helvetica,sans-Serif" font-size="11.00">the next wake says Waiting</text>
<text xml:space="preserve" text-anchor="middle" x="617.23" y="-7.05" font-family="Helvetica,sans-Serif" font-size="11.00">(or, with the evaluator, writes the decision instead)</text>
</g>
<!-- cannot&#45;&gt;escalate -->
<g id="edge11" class="edge">
<title>cannot&#45;&gt;escalate</title>
<path fill="none" stroke="black" d="M1064.23,-119.25C992.22,-104.1 846.68,-73.5 741.19,-51.32"/>
<polygon fill="black" stroke="black" points="742.13,-47.94 731.62,-49.3 740.69,-54.79 742.13,-47.94"/>
<text xml:space="preserve" text-anchor="middle" x="900.76" y="-73.75" font-family="Helvetica,sans-Serif" font-size="10.00">yes</text>
</g>
<!-- trace -->
<g id="node10" class="node">
<title>trace</title>
<path fill="none" stroke="black" d="M2208.36,-48.5C2208.36,-48.5 1956.11,-48.5 1956.11,-48.5 1950.11,-48.5 1944.11,-42.5 1944.11,-36.5 1944.11,-36.5 1944.11,-12 1944.11,-12 1944.11,-6 1950.11,0 1956.11,0 1956.11,0 2208.36,0 2208.36,0 2214.36,0 2220.36,-6 2220.36,-12 2220.36,-12 2220.36,-36.5 2220.36,-36.5 2220.36,-42.5 2214.36,-48.5 2208.36,-48.5"/>
<text xml:space="preserve" text-anchor="middle" x="2082.23" y="-34.05" font-family="Helvetica,sans-Serif" font-size="11.00">Leave the trace: a code commit on the branch,</text>
<text xml:space="preserve" text-anchor="middle" x="2082.23" y="-20.55" font-family="Helvetica,sans-Serif" font-size="11.00">or a record on refs/cairn/log</text>
<text xml:space="preserve" text-anchor="middle" x="2082.23" y="-7.05" font-family="Helvetica,sans-Serif" font-size="11.00">(receipts, reviews, items, escalations...)</text>
</g>
<!-- cannot&#45;&gt;trace -->
<g id="edge10" class="edge">
<title>cannot&#45;&gt;trace</title>
<path fill="none" stroke="black" d="M1168.43,-122.12C1318.86,-106.17 1714.72,-64.21 1932.81,-41.09"/>
<polygon fill="black" stroke="black" points="1932.94,-44.6 1942.51,-40.06 1932.2,-37.64 1932.94,-44.6"/>
<text xml:space="preserve" text-anchor="middle" x="1659.55" y="-73.75" font-family="Helvetica,sans-Serif" font-size="10.00">no</text>
</g>
<!-- escalate&#45;&gt;wake -->
<g id="edge13" class="edge">
<title>escalate&#45;&gt;wake</title>
<path fill="none" stroke="black" d="M466.28,-25.85C310.24,-30.67 89.23,-51.15 89.23,-128.5 89.23,-707.5 89.23,-707.5 89.23,-707.5 89.23,-733.44 105.5,-752.65 127.25,-766.75"/>
<polygon fill="black" stroke="black" points="125.19,-769.6 135.58,-771.71 128.78,-763.58 125.19,-769.6"/>
</g>
<!-- trace&#45;&gt;wake -->
<g id="edge12" class="edge">
<title>trace&#45;&gt;wake</title>
<path fill="none" stroke="black" d="M2220.64,-31.09C2432.07,-41.9 2811.23,-69.5 2811.23,-128.5 2811.23,-707.5 2811.23,-707.5 2811.23,-707.5 2811.23,-765.33 1129.83,-791.93 484.92,-800.01"/>
<polygon fill="black" stroke="black" points="485.1,-796.5 475.14,-800.13 485.18,-803.5 485.1,-796.5"/>
</g>
</g>
</svg>
