<?xml version="1.0" encoding="UTF-8" standalone="no"?>
<!DOCTYPE svg PUBLIC "-//W3C//DTD SVG 1.1//EN"
 "http://www.w3.org/Graphics/SVG/1.1/DTD/svg11.dtd">
<!-- Generated by graphviz version 13.1.2 (20250809.0930)
 -->
<!-- Title: work_loop Pages: 1 -->
<svg width="2335pt" height="1066pt"
 viewBox="0.00 0.00 2335.00 1066.00" xmlns="http://www.w3.org/2000/svg" xmlns:xlink="http://www.w3.org/1999/xlink">
<g id="graph0" class="graph" transform="scale(1 1) rotate(0) translate(4 1061.59)">
<title>work_loop</title>
<polygon fill="white" stroke="none" points="-4,4 -4,-1061.59 2331.02,-1061.59 2331.02,4 -4,4"/>
<text xml:space="preserve" text-anchor="middle" x="1163.51" y="-1043.14" font-family="Helvetica,sans-Serif" font-size="11.00">Work loop: act until the predicate holds; leave the record; wake</text>
<!-- wake -->
<g id="node1" class="node">
<title>wake</title>
<ellipse fill="none" stroke="black" cx="251.02" cy="-1001.79" rx="251.02" ry="34.29"/>
<text xml:space="preserve" text-anchor="middle" x="251.02" y="-1011.59" font-family="Helvetica,sans-Serif" font-size="11.00">sudus wake is read&#45;only:</text>
<text xml:space="preserve" text-anchor="middle" x="251.02" y="-998.09" font-family="Helvetica,sans-Serif" font-size="11.00">print verdict, action or party, reason and predicate</text>
<text xml:space="preserve" text-anchor="middle" x="251.02" y="-984.59" font-family="Helvetica,sans-Serif" font-size="11.00">(missing refs, pending transition or recovery: one line, exit 3)</text>
</g>
<!-- verdict -->
<g id="node2" class="node">
<title>verdict</title>
<path fill="none" stroke="black" d="M569.67,-918.61C569.67,-918.61 539.92,-908.39 539.92,-908.39 534.24,-906.45 534.24,-902.55 539.92,-900.61 539.92,-900.61 569.67,-890.39 569.67,-890.39 575.35,-888.45 586.7,-888.45 592.37,-890.39 592.37,-890.39 622.13,-900.61 622.13,-900.61 627.8,-902.55 627.8,-906.45 622.13,-908.39 622.13,-908.39 592.37,-918.61 592.37,-918.61 586.7,-920.55 575.35,-920.55 569.67,-918.61"/>
<text xml:space="preserve" text-anchor="middle" x="581.02" y="-900.8" font-family="Helvetica,sans-Serif" font-size="11.00">Verdict?</text>
</g>
<!-- wake&#45;&gt;verdict -->
<g id="edge1" class="edge">
<title>wake&#45;&gt;verdict</title>
<path fill="none" stroke="black" d="M356.8,-970.25C420.41,-951.88 497.56,-929.6 542.77,-916.55"/>
<polygon fill="black" stroke="black" points="543.46,-919.99 552.1,-913.85 541.52,-913.26 543.46,-919.99"/>
</g>
<!-- waiting -->
<g id="node3" class="node">
<title>waiting</title>
<path fill="none" stroke="black" d="M754.77,-644.25C754.77,-644.25 407.27,-644.25 407.27,-644.25 401.27,-644.25 395.27,-638.25 395.27,-632.25 395.27,-632.25 395.27,-594.25 395.27,-594.25 395.27,-588.25 401.27,-582.25 407.27,-582.25 407.27,-582.25 754.77,-582.25 754.77,-582.25 760.77,-582.25 766.77,-588.25 766.77,-594.25 766.77,-594.25 766.77,-632.25 766.77,-632.25 766.77,-638.25 760.77,-644.25 754.77,-644.25"/>
<text xml:space="preserve" text-anchor="middle" x="581.02" y="-629.8" font-family="Helvetica,sans-Serif" font-size="11.00">Waiting: print the escalation&#39;s five fields verbatim;</text>
<text xml:space="preserve" text-anchor="middle" x="581.02" y="-616.3" font-family="Helvetica,sans-Serif" font-size="11.00">the agent adds nothing to the work, asks the developer in prose</text>
<text xml:space="preserve" text-anchor="middle" x="581.02" y="-602.8" font-family="Helvetica,sans-Serif" font-size="11.00">and records their answer with sudus answer</text>
<text xml:space="preserve" text-anchor="middle" x="581.02" y="-589.3" font-family="Helvetica,sans-Serif" font-size="11.00">(developer: absent: same print, exit 4)</text>
</g>
<!-- verdict&#45;&gt;waiting -->
<g id="edge2" class="edge">
<title>verdict&#45;&gt;waiting</title>
<path fill="none" stroke="black" d="M581.02,-886.27C581.02,-841.5 581.02,-720.51 581.02,-656.03"/>
<polygon fill="black" stroke="black" points="584.52,-656.19 581.02,-646.19 577.52,-656.19 584.52,-656.19"/>
<text xml:space="preserve" text-anchor="middle" x="599.77" y="-855" font-family="Helvetica,sans-Serif" font-size="10.00">Waiting</text>
</g>
<!-- reply -->
<g id="node5" class="node">
<title>reply</title>
<path fill="none" stroke="black" d="M346.77,-631.25C346.77,-631.25 155.27,-631.25 155.27,-631.25 149.27,-631.25 143.27,-625.25 143.27,-619.25 143.27,-619.25 143.27,-607.25 143.27,-607.25 143.27,-601.25 149.27,-595.25 155.27,-595.25 155.27,-595.25 346.77,-595.25 346.77,-595.25 352.77,-595.25 358.77,-601.25 358.77,-607.25 358.77,-607.25 358.77,-619.25 358.77,-619.25 358.77,-625.25 352.77,-631.25 346.77,-631.25"/>
<text xml:space="preserve" text-anchor="middle" x="251.02" y="-616.3" font-family="Helvetica,sans-Serif" font-size="11.00">reply after ask:</text>
<text xml:space="preserve" text-anchor="middle" x="251.02" y="-602.8" font-family="Helvetica,sans-Serif" font-size="11.00">a reply record names the escalation</text>
</g>
<!-- verdict&#45;&gt;reply -->
<g id="edge5" class="edge">
<title>verdict&#45;&gt;reply</title>
<path fill="none" stroke="black" d="M545.62,-898.28C501.78,-890.24 426.8,-871.2 377.02,-829.75 315.13,-778.22 276.7,-687.95 260.28,-642.34"/>
<polygon fill="black" stroke="black" points="263.6,-641.21 257,-632.92 256.99,-643.52 263.6,-641.21"/>
<text xml:space="preserve" text-anchor="middle" x="474.42" y="-855" font-family="Helvetica,sans-Serif" font-size="10.00">Resolvable: reply</text>
</g>
<!-- stop -->
<g id="node6" class="node">
<title>stop</title>
<path fill="none" stroke="black" d="M1065.52,-637.5C1065.52,-637.5 818.52,-637.5 818.52,-637.5 812.52,-637.5 806.52,-631.5 806.52,-625.5 806.52,-625.5 806.52,-601 806.52,-601 806.52,-595 812.52,-589 818.52,-589 818.52,-589 1065.52,-589 1065.52,-589 1071.52,-589 1077.52,-595 1077.52,-601 1077.52,-601 1077.52,-625.5 1077.52,-625.5 1077.52,-631.5 1071.52,-637.5 1065.52,-637.5"/>
<path fill="none" stroke="black" d="M1069.52,-641.5C1069.52,-641.5 814.52,-641.5 814.52,-641.5 808.52,-641.5 802.52,-635.5 802.52,-629.5 802.52,-629.5 802.52,-597 802.52,-597 802.52,-591 808.52,-585 814.52,-585 814.52,-585 1069.52,-585 1069.52,-585 1075.52,-585 1081.52,-591 1081.52,-597 1081.52,-597 1081.52,-629.5 1081.52,-629.5 1081.52,-635.5 1075.52,-641.5 1069.52,-641.5"/>
<text xml:space="preserve" text-anchor="middle" x="942.02" y="-623.05" font-family="Helvetica,sans-Serif" font-size="11.00">Done: a done record exists and nothing waits;</text>
<text xml:space="preserve" text-anchor="middle" x="942.02" y="-609.55" font-family="Helvetica,sans-Serif" font-size="11.00">render unread queue and stop</text>
<text xml:space="preserve" text-anchor="middle" x="942.02" y="-596.05" font-family="Helvetica,sans-Serif" font-size="11.00">(backlog waiting: wake names promote)</text>
</g>
<!-- verdict&#45;&gt;stop -->
<g id="edge7" class="edge">
<title>verdict&#45;&gt;stop</title>
<path fill="none" stroke="black" d="M614.65,-897.68C657.64,-888.91 732.77,-868.98 785.02,-829.75 849.2,-781.56 898.47,-699.79 923.58,-652.04"/>
<polygon fill="black" stroke="black" points="926.68,-653.65 928.16,-643.16 920.46,-650.44 926.68,-653.65"/>
<text xml:space="preserve" text-anchor="middle" x="757.67" y="-855" font-family="Helvetica,sans-Serif" font-size="10.00">Done</text>
</g>
<!-- act -->
<g id="node7" class="node">
<title>act</title>
<path fill="none" stroke="black" d="M1370.52,-631.25C1370.52,-631.25 1129.52,-631.25 1129.52,-631.25 1123.52,-631.25 1117.52,-625.25 1117.52,-619.25 1117.52,-619.25 1117.52,-607.25 1117.52,-607.25 1117.52,-601.25 1123.52,-595.25 1129.52,-595.25 1129.52,-595.25 1370.52,-595.25 1370.52,-595.25 1376.52,-595.25 1382.52,-601.25 1382.52,-607.25 1382.52,-607.25 1382.52,-619.25 1382.52,-619.25 1382.52,-625.25 1376.52,-631.25 1370.52,-631.25"/>
<text xml:space="preserve" text-anchor="middle" x="1250.02" y="-616.3" font-family="Helvetica,sans-Serif" font-size="11.00">Do the named action until its predicate holds</text>
<text xml:space="preserve" text-anchor="middle" x="1250.02" y="-602.8" font-family="Helvetica,sans-Serif" font-size="11.00">(the table below is in precedence order)</text>
</g>
<!-- verdict&#45;&gt;act -->
<g id="edge8" class="edge">
<title>verdict&#45;&gt;act</title>
<path fill="none" stroke="black" d="M626.37,-901.65C737.65,-896.4 1020.88,-878.48 1100.02,-829.75 1173.15,-784.72 1219.88,-689.26 1239.47,-641.98"/>
<polygon fill="black" stroke="black" points="1242.6,-643.57 1243.09,-632.99 1236.1,-640.96 1242.6,-643.57"/>
<text xml:space="preserve" text-anchor="middle" x="1068.54" y="-855" font-family="Helvetica,sans-Serif" font-size="10.00">Resolvable</text>
</g>
<!-- answer -->
<g id="node4" class="node">
<title>answer</title>
<path fill="none" stroke="black" d="M602.02,-340C602.02,-340 226.02,-340 226.02,-340 220.02,-340 214.02,-334 214.02,-328 214.02,-328 214.02,-303.5 214.02,-303.5 214.02,-297.5 220.02,-291.5 226.02,-291.5 226.02,-291.5 602.02,-291.5 602.02,-291.5 608.02,-291.5 614.02,-297.5 614.02,-303.5 614.02,-303.5 614.02,-328 614.02,-328 614.02,-334 608.02,-340 602.02,-340"/>
<text xml:space="preserve" text-anchor="middle" x="414.02" y="-325.55" font-family="Helvetica,sans-Serif" font-size="11.00">The agent asks the developer in conversation and records the words:</text>
<text xml:space="preserve" text-anchor="middle" x="414.02" y="-312.05" font-family="Helvetica,sans-Serif" font-size="11.00">sudus answer ok | instead | ask &#45;&#45;quote;</text>
<text xml:space="preserve" text-anchor="middle" x="414.02" y="-298.55" font-family="Helvetica,sans-Serif" font-size="11.00">signed when a key exists, attested otherwise</text>
</g>
<!-- waiting&#45;&gt;answer -->
<g id="edge3" class="edge">
<title>waiting&#45;&gt;answer</title>
<path fill="none" stroke="black" d="M563.94,-582.02C532.49,-526.37 465.67,-408.15 432.92,-350.19"/>
<polygon fill="black" stroke="black" points="436.12,-348.73 428.15,-341.75 430.02,-352.18 436.12,-348.73"/>
</g>
<!-- answer&#45;&gt;wake -->
<g id="edge4" class="edge">
<title>answer&#45;&gt;wake</title>
<path fill="none" stroke="black" d="M267.25,-340.46C205.41,-353.72 143.46,-372.51 125.02,-396.75 8.5,-549.91 64.95,-646.92 125.02,-829.75 141.46,-879.77 178.74,-927.19 208.51,-959.35"/>
<polygon fill="black" stroke="black" points="205.84,-961.63 215.25,-966.5 210.94,-956.82 205.84,-961.63"/>
</g>
<!-- reply&#45;&gt;wake -->
<g id="edge6" class="edge">
<title>reply&#45;&gt;wake</title>
<path fill="none" stroke="black" d="M251.02,-631.59C251.02,-688.45 251.02,-870.42 251.02,-955.79"/>
<polygon fill="black" stroke="black" points="247.52,-955.65 251.02,-965.65 254.52,-955.65 247.52,-955.65"/>
</g>
<!-- cannot -->
<g id="node8" class="node">
<title>cannot</title>
<path fill="none" stroke="black" d="M1309.07,-146.38C1309.07,-146.38 1140.34,-130.62 1140.34,-130.62 1134.37,-130.06 1134.37,-128.94 1140.34,-128.38 1140.34,-128.38 1309.07,-112.62 1309.07,-112.62 1315.05,-112.06 1327,-112.06 1332.97,-112.62 1332.97,-112.62 1501.7,-128.38 1501.7,-128.38 1507.68,-128.94 1507.68,-130.06 1501.7,-130.62 1501.7,-130.62 1332.97,-146.38 1332.97,-146.38 1327,-146.94 1315.05,-146.94 1309.07,-146.38"/>
<text xml:space="preserve" text-anchor="middle" x="1321.02" y="-125.8" font-family="Helvetica,sans-Serif" font-size="11.00">Cannot act, or cycle bound reached?</text>
</g>
<!-- act&#45;&gt;cannot -->
<g id="edge9" class="edge">
<title>act&#45;&gt;cannot</title>
<path fill="none" stroke="black" d="M1252.59,-594.82C1263.19,-522.88 1303.61,-248.67 1316.82,-159.04"/>
<polygon fill="black" stroke="black" points="1320.28,-159.56 1318.27,-149.15 1313.35,-158.54 1320.28,-159.56"/>
</g>
<!-- measure -->
<g id="node10" class="node">
<title>measure</title>
<path fill="none" stroke="black" d="M1177.77,-340C1177.77,-340 812.27,-340 812.27,-340 806.27,-340 800.27,-334 800.27,-328 800.27,-328 800.27,-303.5 800.27,-303.5 800.27,-297.5 806.27,-291.5 812.27,-291.5 812.27,-291.5 1177.77,-291.5 1177.77,-291.5 1183.77,-291.5 1189.77,-297.5 1189.77,-303.5 1189.77,-303.5 1189.77,-328 1189.77,-328 1189.77,-334 1183.77,-340 1177.77,-340"/>
<text xml:space="preserve" text-anchor="middle" x="995.02" y="-325.55" font-family="Helvetica,sans-Serif" font-size="11.00">Consequential decision while acting:</text>
<text xml:space="preserve" text-anchor="middle" x="995.02" y="-312.05" font-family="Helvetica,sans-Serif" font-size="11.00">sudus measure the draft first</text>
<text xml:space="preserve" text-anchor="middle" x="995.02" y="-298.55" font-family="Helvetica,sans-Serif" font-size="11.00">(five Score levels, composite, veto, suggested: advice, not a route)</text>
</g>
<!-- act&#45;&gt;measure -->
<g id="edge14" class="edge">
<title>act&#45;&gt;measure</title>
<path fill="none" stroke="black" d="M1240.52,-594.99C1218.89,-556.61 1162.93,-462.42 1100.02,-396.75 1082.31,-378.26 1060.06,-360.67 1040.61,-346.72"/>
<polygon fill="black" stroke="black" points="1042.74,-343.94 1032.55,-341.05 1038.71,-349.67 1042.74,-343.94"/>
<text xml:space="preserve" text-anchor="middle" x="1124.31" y="-365.25" font-family="Helvetica,sans-Serif" font-size="10.00">Consequential draft</text>
</g>
<!-- actions -->
<g id="node14" class="node">
<title>actions</title>
<polygon fill="#eeeeee" stroke="none" points="1462.27,-804.5 1462.27,-825.75 1578.77,-825.75 1578.77,-804.5 1462.27,-804.5"/>
<polygon fill="none" stroke="black" points="1462.27,-804.5 1462.27,-825.75 1578.77,-825.75 1578.77,-804.5 1462.27,-804.5"/>
<text xml:space="preserve" text-anchor="start" x="1504.4" y="-813.2" font-family="Helvetica,sans-Serif" font-weight="bold" font-size="9.00">Action</text>
<polygon fill="#eeeeee" stroke="none" points="1578.77,-804.5 1578.77,-825.75 2263.77,-825.75 2263.77,-804.5 1578.77,-804.5"/>
<polygon fill="none" stroke="black" points="1578.77,-804.5 1578.77,-825.75 2263.77,-825.75 2263.77,-804.5 1578.77,-804.5"/>
<text xml:space="preserve" text-anchor="start" x="1901.4" y="-813.2" font-family="Helvetica,sans-Serif" font-weight="bold" font-size="9.00">done :=</text>
<polygon fill="none" stroke="black" points="1462.27,-783.25 1462.27,-804.5 1578.77,-804.5 1578.77,-783.25 1462.27,-783.25"/>
<text xml:space="preserve" text-anchor="start" x="1467.27" y="-790.95" font-family="Helvetica,sans-Serif" font-size="9.00">repair PATH</text>
<polygon fill="none" stroke="black" points="1578.77,-783.25 1578.77,-804.5 2263.77,-804.5 2263.77,-783.25 1578.77,-783.25"/>
<text xml:space="preserve" text-anchor="start" x="1583.77" y="-790.95" font-family="Helvetica,sans-Serif" font-size="9.00">hand&#45;written input parses; no unrelated byte changed</text>
<polygon fill="none" stroke="black" points="1462.27,-762 1462.27,-783.25 1578.77,-783.25 1578.77,-762 1462.27,-762"/>
<text xml:space="preserve" text-anchor="start" x="1467.27" y="-769.7" font-family="Helvetica,sans-Serif" font-size="9.00">recover TRANSACTION</text>
<polygon fill="none" stroke="black" points="1578.77,-762 1578.77,-783.25 2263.77,-783.25 2263.77,-762 1578.77,-762"/>
<text xml:space="preserve" text-anchor="start" x="1583.77" y="-769.7" font-family="Helvetica,sans-Serif" font-size="9.00">intent has a terminal domain or abort record; every store matches its result</text>
<polygon fill="none" stroke="black" points="1462.27,-740.75 1462.27,-762 1578.77,-762 1578.77,-740.75 1462.27,-740.75"/>
<text xml:space="preserve" text-anchor="start" x="1467.27" y="-748.45" font-family="Helvetica,sans-Serif" font-size="9.00">reconcile ACTION</text>
<polygon fill="none" stroke="black" points="1578.77,-740.75 1578.77,-762 2263.77,-762 2263.77,-740.75 1578.77,-740.75"/>
<text xml:space="preserve" text-anchor="start" x="1583.77" y="-748.45" font-family="Helvetica,sans-Serif" font-size="9.00">local action lease is gone; action finished or was abandoned</text>
<polygon fill="none" stroke="black" points="1462.27,-719.5 1462.27,-740.75 1578.77,-740.75 1578.77,-719.5 1462.27,-719.5"/>
<text xml:space="preserve" text-anchor="start" x="1467.27" y="-727.2" font-family="Helvetica,sans-Serif" font-size="9.00">scope PATH</text>
<polygon fill="none" stroke="black" points="1578.77,-719.5 1578.77,-740.75 2263.77,-740.75 2263.77,-719.5 1578.77,-719.5"/>
<text xml:space="preserve" text-anchor="start" x="1583.77" y="-727.2" font-family="Helvetica,sans-Serif" font-size="9.00">each durable breach is developer&#45;kept or restored to its allowed base; later declaration never clears it</text>
<polygon fill="none" stroke="black" points="1462.27,-698.25 1462.27,-719.5 1578.77,-719.5 1578.77,-698.25 1462.27,-698.25"/>
<text xml:space="preserve" text-anchor="start" x="1467.27" y="-705.95" font-family="Helvetica,sans-Serif" font-size="9.00">fix ITEM</text>
<polygon fill="none" stroke="black" points="1578.77,-698.25 1578.77,-719.5 2263.77,-719.5 2263.77,-698.25 1578.77,-698.25"/>
<text xml:space="preserve" text-anchor="start" x="1583.77" y="-705.95" font-family="Helvetica,sans-Serif" font-size="9.00">fix snapshot changes no protected contract; requirement has a current pass</text>
<polygon fill="none" stroke="black" points="1462.27,-677 1462.27,-698.25 1578.77,-698.25 1578.77,-677 1462.27,-677"/>
<text xml:space="preserve" text-anchor="start" x="1467.27" y="-684.7" font-family="Helvetica,sans-Serif" font-size="9.00">record PATH</text>
<polygon fill="none" stroke="black" points="1578.77,-677 1578.77,-698.25 2263.77,-698.25 2263.77,-677 1578.77,-677"/>
<text xml:space="preserve" text-anchor="start" x="1583.77" y="-684.7" font-family="Helvetica,sans-Serif" font-size="9.00">action lease covers the path, or it is clean</text>
<polygon fill="none" stroke="black" points="1462.27,-655.75 1462.27,-677 1578.77,-677 1578.77,-655.75 1462.27,-655.75"/>
<text xml:space="preserve" text-anchor="start" x="1467.27" y="-663.45" font-family="Helvetica,sans-Serif" font-size="9.00">commit PATH</text>
<polygon fill="none" stroke="black" points="1578.77,-655.75 1578.77,-677 2263.77,-677 2263.77,-655.75 1578.77,-655.75"/>
<text xml:space="preserve" text-anchor="start" x="1583.77" y="-663.45" font-family="Helvetica,sans-Serif" font-size="9.00">path is clean, or the action lease covers it</text>
<polygon fill="none" stroke="black" points="1462.27,-634.5 1462.27,-655.75 1578.77,-655.75 1578.77,-634.5 1462.27,-634.5"/>
<text xml:space="preserve" text-anchor="start" x="1467.27" y="-642.2" font-family="Helvetica,sans-Serif" font-size="9.00">declare REQ</text>
<polygon fill="none" stroke="black" points="1578.77,-634.5 1578.77,-655.75 2263.77,-655.75 2263.77,-634.5 1578.77,-634.5"/>
<text xml:space="preserve" text-anchor="start" x="1583.77" y="-642.2" font-family="Helvetica,sans-Serif" font-size="9.00">mechanism definition names REQ; no prior undeclared delta was legalized</text>
<polygon fill="none" stroke="black" points="1462.27,-613.25 1462.27,-634.5 1578.77,-634.5 1578.77,-613.25 1462.27,-613.25"/>
<text xml:space="preserve" text-anchor="start" x="1467.27" y="-620.95" font-family="Helvetica,sans-Serif" font-size="9.00">run REQ</text>
<polygon fill="none" stroke="black" points="1578.77,-613.25 1578.77,-634.5 2263.77,-634.5 2263.77,-613.25 1578.77,-613.25"/>
<text xml:space="preserve" text-anchor="start" x="1583.77" y="-620.95" font-family="Helvetica,sans-Serif" font-size="9.00">current receipt matches input snapshot, definition, text and declared execution identity</text>
<polygon fill="none" stroke="black" points="1462.27,-592 1462.27,-613.25 1578.77,-613.25 1578.77,-592 1462.27,-592"/>
<text xml:space="preserve" text-anchor="start" x="1467.27" y="-599.7" font-family="Helvetica,sans-Serif" font-size="9.00">implement REQ</text>
<polygon fill="none" stroke="black" points="1578.77,-592 1578.77,-613.25 2263.77,-613.25 2263.77,-592 1578.77,-592"/>
<text xml:space="preserve" text-anchor="start" x="1583.77" y="-599.7" font-family="Helvetica,sans-Serif" font-size="9.00">current pass plus review metadata bound to current definition and frozen text, with fail receipt</text>
<polygon fill="none" stroke="black" points="1462.27,-570.75 1462.27,-592 1578.77,-592 1578.77,-570.75 1462.27,-570.75"/>
<text xml:space="preserve" text-anchor="start" x="1467.27" y="-578.45" font-family="Helvetica,sans-Serif" font-size="9.00">escalate REQ</text>
<polygon fill="none" stroke="black" points="1578.77,-570.75 1578.77,-592 2263.77,-592 2263.77,-570.75 1578.77,-570.75"/>
<text xml:space="preserve" text-anchor="start" x="1583.77" y="-578.45" font-family="Helvetica,sans-Serif" font-size="9.00">after three failing attempts, an escalation exists before a fourth</text>
<polygon fill="none" stroke="black" points="1462.27,-549.5 1462.27,-570.75 1578.77,-570.75 1578.77,-549.5 1462.27,-549.5"/>
<text xml:space="preserve" text-anchor="start" x="1467.27" y="-557.2" font-family="Helvetica,sans-Serif" font-size="9.00">review mechanism REQ</text>
<polygon fill="none" stroke="black" points="1578.77,-549.5 1578.77,-570.75 2263.77,-570.75 2263.77,-549.5 1578.77,-549.5"/>
<text xml:space="preserve" text-anchor="start" x="1583.77" y="-557.2" font-family="Helvetica,sans-Serif" font-size="9.00">review metadata binds definition and text to a fail receipt; product inputs unchanged</text>
<polygon fill="none" stroke="black" points="1462.27,-528.25 1462.27,-549.5 1578.77,-549.5 1578.77,-528.25 1462.27,-528.25"/>
<text xml:space="preserve" text-anchor="start" x="1467.27" y="-535.95" font-family="Helvetica,sans-Serif" font-size="9.00">capture ITEM</text>
<polygon fill="none" stroke="black" points="1578.77,-528.25 1578.77,-549.5 2263.77,-549.5 2263.77,-528.25 1578.77,-528.25"/>
<text xml:space="preserve" text-anchor="start" x="1583.77" y="-535.95" font-family="Helvetica,sans-Serif" font-size="9.00">outside record or escalation names it</text>
<polygon fill="none" stroke="black" points="1462.27,-507 1462.27,-528.25 1578.77,-528.25 1578.77,-507 1462.27,-507"/>
<text xml:space="preserve" text-anchor="start" x="1467.27" y="-514.7" font-family="Helvetica,sans-Serif" font-size="9.00">review SLUG</text>
<polygon fill="none" stroke="black" points="1578.77,-507 1578.77,-528.25 2263.77,-528.25 2263.77,-507 1578.77,-507"/>
<text xml:space="preserve" text-anchor="start" x="1583.77" y="-514.7" font-family="Helvetica,sans-Serif" font-size="9.00">current workspace snapshot; every fixed question answered for each target</text>
<polygon fill="none" stroke="black" points="1462.27,-485.75 1462.27,-507 1578.77,-507 1578.77,-485.75 1462.27,-485.75"/>
<text xml:space="preserve" text-anchor="start" x="1467.27" y="-493.45" font-family="Helvetica,sans-Serif" font-size="9.00">report SLUG</text>
<polygon fill="none" stroke="black" points="1578.77,-485.75 1578.77,-507 2263.77,-507 2263.77,-485.75 1578.77,-485.75"/>
<text xml:space="preserve" text-anchor="start" x="1583.77" y="-493.45" font-family="Helvetica,sans-Serif" font-size="9.00">a report at the reviewed snapshot through the latest brief; every lens, decision and interface attempted; a report stopped on a Sudus bug is not one</text>
<polygon fill="none" stroke="black" points="1462.27,-464.5 1462.27,-485.75 1578.77,-485.75 1578.77,-464.5 1462.27,-464.5"/>
<text xml:space="preserve" text-anchor="start" x="1467.27" y="-472.2" font-family="Helvetica,sans-Serif" font-size="9.00">resolve SLUG N</text>
<polygon fill="none" stroke="black" points="1578.77,-464.5 1578.77,-485.75 2263.77,-485.75 2263.77,-464.5 1578.77,-464.5"/>
<text xml:space="preserve" text-anchor="start" x="1583.77" y="-472.2" font-family="Helvetica,sans-Serif" font-size="9.00">a resolution, or a decline with its reason, names N on its exact source record</text>
<polygon fill="none" stroke="black" points="1462.27,-443.25 1462.27,-464.5 1578.77,-464.5 1578.77,-443.25 1462.27,-443.25"/>
<text xml:space="preserve" text-anchor="start" x="1467.27" y="-450.95" font-family="Helvetica,sans-Serif" font-size="9.00">build DECISION</text>
<polygon fill="none" stroke="black" points="1578.77,-443.25 1578.77,-464.5 2263.77,-464.5 2263.77,-443.25 1578.77,-443.25"/>
<text xml:space="preserve" text-anchor="start" x="1583.77" y="-450.95" font-family="Helvetica,sans-Serif" font-size="9.00">realized line names base and result snapshots; actual delta passes protected&#45;category check</text>
<polygon fill="none" stroke="black" points="1462.27,-422 1462.27,-443.25 1578.77,-443.25 1578.77,-422 1462.27,-422"/>
<text xml:space="preserve" text-anchor="start" x="1467.27" y="-429.7" font-family="Helvetica,sans-Serif" font-size="9.00">done SLUG</text>
<polygon fill="none" stroke="black" points="1578.77,-422 1578.77,-443.25 2263.77,-443.25 2263.77,-422 1578.77,-422"/>
<text xml:space="preserve" text-anchor="start" x="1583.77" y="-429.7" font-family="Helvetica,sans-Serif" font-size="9.00">Done rule holds; sudus done writes the final record</text>
<polygon fill="none" stroke="black" points="1462.27,-400.75 1462.27,-422 1578.77,-422 1578.77,-400.75 1462.27,-400.75"/>
<text xml:space="preserve" text-anchor="start" x="1467.27" y="-408.45" font-family="Helvetica,sans-Serif" font-size="9.00">promote</text>
<polygon fill="none" stroke="black" points="1578.77,-400.75 1578.77,-422 2263.77,-422 2263.77,-400.75 1578.77,-400.75"/>
<text xml:space="preserve" text-anchor="start" x="1583.77" y="-408.45" font-family="Helvetica,sans-Serif" font-size="9.00">one backlog item, decision, roadmap move and successor start are one transaction</text>
</g>
<!-- act&#45;&gt;actions -->
<g id="edge20" class="edge">
<title>act&#45;&gt;actions</title>
<path fill="none" stroke="black" stroke-dasharray="5,2" d="M1382.92,-613.25C1406.83,-613.25 1430.74,-613.25 1454.65,-613.25"/>
</g>
<!-- escalate -->
<g id="node9" class="node">
<title>escalate</title>
<path fill="none" stroke="black" d="M843.27,-48.5C843.27,-48.5 534.77,-48.5 534.77,-48.5 528.77,-48.5 522.77,-42.5 522.77,-36.5 522.77,-36.5 522.77,-12 522.77,-12 522.77,-6 528.77,0 534.77,0 534.77,0 843.27,0 843.27,0 849.27,0 855.27,-6 855.27,-12 855.27,-12 855.27,-36.5 855.27,-36.5 855.27,-42.5 849.27,-48.5 843.27,-48.5"/>
<text xml:space="preserve" text-anchor="middle" x="689.02" y="-34.05" font-family="Helvetica,sans-Serif" font-size="11.00">Write one evidence&#45;backed escalation;</text>
<text xml:space="preserve" text-anchor="middle" x="689.02" y="-20.55" font-family="Helvetica,sans-Serif" font-size="11.00">cycle guard: fourth same&#45;target or 28th admin transition,</text>
<text xml:space="preserve" text-anchor="middle" x="689.02" y="-7.05" font-family="Helvetica,sans-Serif" font-size="11.00">or third unsuccessful recovery</text>
</g>
<!-- cannot&#45;&gt;escalate -->
<g id="edge11" class="edge">
<title>cannot&#45;&gt;escalate</title>
<path fill="none" stroke="black" d="M1285.09,-114.42C1249.19,-100.96 1192.13,-81.17 1141.02,-70.5 1051.71,-51.86 950.82,-40.83 867.05,-34.33"/>
<polygon fill="black" stroke="black" points="867.36,-30.84 857.12,-33.58 866.83,-37.82 867.36,-30.84"/>
<text xml:space="preserve" text-anchor="middle" x="1236.71" y="-73.75" font-family="Helvetica,sans-Serif" font-size="10.00">cannot or bounded</text>
</g>
<!-- trace -->
<g id="node13" class="node">
<title>trace</title>
<path fill="none" stroke="black" d="M1469.65,-42.25C1469.65,-42.25 1172.4,-42.25 1172.4,-42.25 1166.4,-42.25 1160.4,-36.25 1160.4,-30.25 1160.4,-30.25 1160.4,-18.25 1160.4,-18.25 1160.4,-12.25 1166.4,-6.25 1172.4,-6.25 1172.4,-6.25 1469.65,-6.25 1469.65,-6.25 1475.65,-6.25 1481.65,-12.25 1481.65,-18.25 1481.65,-18.25 1481.65,-30.25 1481.65,-30.25 1481.65,-36.25 1475.65,-42.25 1469.65,-42.25"/>
<text xml:space="preserve" text-anchor="middle" x="1321.02" y="-27.3" font-family="Helvetica,sans-Serif" font-size="11.00">Leave the required trace:</text>
<text xml:space="preserve" text-anchor="middle" x="1321.02" y="-13.8" font-family="Helvetica,sans-Serif" font-size="11.00">branch commit, typed snapshot or canonical log record</text>
</g>
<!-- cannot&#45;&gt;trace -->
<g id="edge10" class="edge">
<title>cannot&#45;&gt;trace</title>
<path fill="none" stroke="black" d="M1321.02,-111.45C1321.02,-95.85 1321.02,-72.46 1321.02,-53.98"/>
<polygon fill="black" stroke="black" points="1324.52,-54.18 1321.02,-44.18 1317.52,-54.18 1324.52,-54.18"/>
<text xml:space="preserve" text-anchor="middle" x="1338.65" y="-73.75" font-family="Helvetica,sans-Serif" font-size="10.00">can act</text>
</g>
<!-- escalate&#45;&gt;wake -->
<g id="edge13" class="edge">
<title>escalate&#45;&gt;wake</title>
<path fill="none" stroke="black" d="M522.6,-34.57C322.73,-48.06 14.02,-77.19 14.02,-128.5 14.02,-905.5 14.02,-905.5 14.02,-905.5 14.02,-930.7 60.75,-952.31 112.7,-968.55"/>
<polygon fill="black" stroke="black" points="111.47,-971.84 122.06,-971.39 113.5,-965.14 111.47,-971.84"/>
</g>
<!-- gate -->
<g id="node11" class="node">
<title>gate</title>
<path fill="none" stroke="black" d="M938.3,-243.91C938.3,-243.91 880.19,-231.09 880.19,-231.09 874.33,-229.79 874.33,-227.21 880.19,-225.91 880.19,-225.91 938.3,-213.09 938.3,-213.09 944.16,-211.79 955.88,-211.79 961.74,-213.09 961.74,-213.09 1019.85,-225.91 1019.85,-225.91 1025.71,-227.21 1025.71,-229.79 1019.85,-231.09 1019.85,-231.09 961.74,-243.91 961.74,-243.91 955.88,-245.21 944.16,-245.21 938.3,-243.91"/>
<text xml:space="preserve" text-anchor="middle" x="950.02" y="-224.8" font-family="Helvetica,sans-Serif" font-size="11.00">Floor or veto?</text>
</g>
<!-- measure&#45;&gt;gate -->
<g id="edge15" class="edge">
<title>measure&#45;&gt;gate</title>
<path fill="none" stroke="black" d="M982.49,-291C976.61,-279.88 969.61,-266.6 963.61,-255.24"/>
<polygon fill="black" stroke="black" points="966.7,-253.61 958.94,-246.4 960.51,-256.87 966.7,-253.61"/>
</g>
<!-- gate&#45;&gt;escalate -->
<g id="edge16" class="edge">
<title>gate&#45;&gt;escalate</title>
<path fill="none" stroke="black" d="M894.99,-222.15C816.12,-213.21 677.07,-192.3 646.77,-153.75 624.83,-125.84 643.54,-86.08 662.54,-58.2"/>
<polygon fill="black" stroke="black" points="665.36,-60.28 668.32,-50.11 659.66,-56.21 665.36,-60.28"/>
<text xml:space="preserve" text-anchor="middle" x="718.4" y="-126.38" font-family="Helvetica,sans-Serif" font-size="10.00">yes: escalate &#45;&#45;consequential</text>
</g>
<!-- decide -->
<g id="node12" class="node">
<title>decide</title>
<path fill="none" stroke="black" d="M1080.27,-153.75C1080.27,-153.75 819.77,-153.75 819.77,-153.75 813.77,-153.75 807.77,-147.75 807.77,-141.75 807.77,-141.75 807.77,-117.25 807.77,-117.25 807.77,-111.25 813.77,-105.25 819.77,-105.25 819.77,-105.25 1080.27,-105.25 1080.27,-105.25 1086.27,-105.25 1092.27,-111.25 1092.27,-117.25 1092.27,-117.25 1092.27,-141.75 1092.27,-141.75 1092.27,-147.75 1086.27,-153.75 1080.27,-153.75"/>
<text xml:space="preserve" text-anchor="middle" x="950.02" y="-139.3" font-family="Helvetica,sans-Serif" font-size="11.00">The agent decides: sudus decide &#45;&#45;consequential</text>
<text xml:space="preserve" text-anchor="middle" x="950.02" y="-125.8" font-family="Helvetica,sans-Serif" font-size="11.00">(composite outcome, whatever the suggestion),</text>
<text xml:space="preserve" text-anchor="middle" x="950.02" y="-112.3" font-family="Helvetica,sans-Serif" font-size="11.00">or escalates anyway</text>
</g>
<!-- gate&#45;&gt;decide -->
<g id="edge17" class="edge">
<title>gate&#45;&gt;decide</title>
<path fill="none" stroke="black" d="M950.02,-210.16C950.02,-197.65 950.02,-180.35 950.02,-165.07"/>
<polygon fill="black" stroke="black" points="953.52,-165.4 950.02,-155.4 946.52,-165.4 953.52,-165.4"/>
<text xml:space="preserve" text-anchor="middle" x="956.02" y="-179" font-family="Helvetica,sans-Serif" font-size="10.00">no</text>
</g>
<!-- decide&#45;&gt;escalate -->
<g id="edge19" class="edge">
<title>decide&#45;&gt;escalate</title>
<path fill="none" stroke="black" stroke-dasharray="5,2" d="M886.64,-104.86C868.48,-97.99 848.68,-90.41 830.52,-83.25 806.21,-73.67 779.68,-62.88 756.22,-53.23"/>
<polygon fill="black" stroke="black" points="757.66,-50.04 747.08,-49.46 754.99,-56.51 757.66,-50.04"/>
<text xml:space="preserve" text-anchor="middle" x="871.77" y="-73.75" font-family="Helvetica,sans-Serif" font-size="10.00">escalate anyway</text>
</g>
<!-- decide&#45;&gt;trace -->
<g id="edge18" class="edge">
<title>decide&#45;&gt;trace</title>
<path fill="none" stroke="black" d="M952.11,-104.81C954.45,-92.73 959.34,-78.86 969.52,-70.5 997.51,-47.53 1074.08,-36.11 1148.63,-30.49"/>
<polygon fill="black" stroke="black" points="1148.85,-33.98 1158.57,-29.77 1148.35,-27 1148.85,-33.98"/>
<text xml:space="preserve" text-anchor="middle" x="1052.77" y="-73.75" font-family="Helvetica,sans-Serif" font-size="10.00">decision names the measurement</text>
</g>
<!-- trace&#45;&gt;wake -->
<g id="edge12" class="edge">
<title>trace&#45;&gt;wake</title>
<path fill="none" stroke="black" d="M1482.1,-25.62C1766.29,-28.43 2327.02,-44.61 2327.02,-128.5 2327.02,-905.5 2327.02,-905.5 2327.02,-905.5 2327.02,-950.48 1066.63,-983.22 510,-995.49"/>
<polygon fill="black" stroke="black" points="510.04,-991.98 500.12,-995.7 510.19,-998.98 510.04,-991.98"/>
</g>
</g>
</svg>
