<?xml version="1.0" encoding="UTF-8" standalone="no"?>
<!DOCTYPE svg PUBLIC "-//W3C//DTD SVG 1.1//EN"
 "http://www.w3.org/Graphics/SVG/1.1/DTD/svg11.dtd">
<!-- Generated by graphviz version 13.1.2 (20250809.0930)
 -->
<!-- Title: work_loop Pages: 1 -->
<svg width="2144pt" height="1087pt"
 viewBox="0.00 0.00 2144.00 1087.00" xmlns="http://www.w3.org/2000/svg" xmlns:xlink="http://www.w3.org/1999/xlink">
<g id="graph0" class="graph" transform="scale(1 1) rotate(0) translate(4 1082.84)">
<title>work_loop</title>
<polygon fill="white" stroke="none" points="-4,4 -4,-1082.84 2140.02,-1082.84 2140.02,4 -4,4"/>
<text xml:space="preserve" text-anchor="middle" x="1068.01" y="-1064.39" font-family="Helvetica,sans-Serif" font-size="11.00">Work loop: act until the predicate holds; leave the record; wake</text>
<!-- wake -->
<g id="node1" class="node">
<title>wake</title>
<ellipse fill="none" stroke="black" cx="251.02" cy="-1023.04" rx="251.02" ry="34.29"/>
<text xml:space="preserve" text-anchor="middle" x="251.02" y="-1032.84" font-family="Helvetica,sans-Serif" font-size="11.00">cairn wake is read&#45;only:</text>
<text xml:space="preserve" text-anchor="middle" x="251.02" y="-1019.34" font-family="Helvetica,sans-Serif" font-size="11.00">print verdict, action or party, reason and predicate</text>
<text xml:space="preserve" text-anchor="middle" x="251.02" y="-1005.84" font-family="Helvetica,sans-Serif" font-size="11.00">(missing refs, pending transition or recovery: one line, exit 3)</text>
</g>
<!-- verdict -->
<g id="node2" class="node">
<title>verdict</title>
<path fill="none" stroke="black" d="M581.67,-939.86C581.67,-939.86 551.92,-929.64 551.92,-929.64 546.24,-927.7 546.24,-923.8 551.92,-921.86 551.92,-921.86 581.67,-911.64 581.67,-911.64 587.35,-909.7 598.7,-909.7 604.37,-911.64 604.37,-911.64 634.13,-921.86 634.13,-921.86 639.8,-923.8 639.8,-927.7 634.13,-929.64 634.13,-929.64 604.37,-939.86 604.37,-939.86 598.7,-941.8 587.35,-941.8 581.67,-939.86"/>
<text xml:space="preserve" text-anchor="middle" x="593.02" y="-922.05" font-family="Helvetica,sans-Serif" font-size="11.00">Verdict?</text>
</g>
<!-- wake&#45;&gt;verdict -->
<g id="edge1" class="edge">
<title>wake&#45;&gt;verdict</title>
<path fill="none" stroke="black" d="M359.7,-991.76C426.2,-973.23 507.26,-950.65 554.22,-937.56"/>
<polygon fill="black" stroke="black" points="554.97,-940.99 563.66,-934.93 553.09,-934.24 554.97,-940.99"/>
</g>
<!-- waiting -->
<g id="node3" class="node">
<title>waiting</title>
<path fill="none" stroke="black" d="M779.52,-654.88C779.52,-654.88 406.52,-654.88 406.52,-654.88 400.52,-654.88 394.52,-648.88 394.52,-642.88 394.52,-642.88 394.52,-604.88 394.52,-604.88 394.52,-598.88 400.52,-592.88 406.52,-592.88 406.52,-592.88 779.52,-592.88 779.52,-592.88 785.52,-592.88 791.52,-598.88 791.52,-604.88 791.52,-604.88 791.52,-642.88 791.52,-642.88 791.52,-648.88 785.52,-654.88 779.52,-654.88"/>
<text xml:space="preserve" text-anchor="middle" x="593.02" y="-640.42" font-family="Helvetica,sans-Serif" font-size="11.00">Waiting: print the escalation&#39;s five fields verbatim;</text>
<text xml:space="preserve" text-anchor="middle" x="593.02" y="-626.92" font-family="Helvetica,sans-Serif" font-size="11.00">the agent adds nothing to the work, asks the developer in prose</text>
<text xml:space="preserve" text-anchor="middle" x="593.02" y="-613.42" font-family="Helvetica,sans-Serif" font-size="11.00">and records their answer with cairn answer</text>
<text xml:space="preserve" text-anchor="middle" x="593.02" y="-599.92" font-family="Helvetica,sans-Serif" font-size="11.00">(developer: absent and a floor or veto escalation: same print, exit 4)</text>
</g>
<!-- verdict&#45;&gt;waiting -->
<g id="edge2" class="edge">
<title>verdict&#45;&gt;waiting</title>
<path fill="none" stroke="black" d="M593.02,-907.33C593.02,-860.87 593.02,-733.01 593.02,-666.42"/>
<polygon fill="black" stroke="black" points="596.52,-666.63 593.02,-656.63 589.52,-666.63 596.52,-666.63"/>
<text xml:space="preserve" text-anchor="middle" x="611.77" y="-876.25" font-family="Helvetica,sans-Serif" font-size="10.00">Waiting</text>
</g>
<!-- reply -->
<g id="node5" class="node">
<title>reply</title>
<path fill="none" stroke="black" d="M346.77,-641.88C346.77,-641.88 155.27,-641.88 155.27,-641.88 149.27,-641.88 143.27,-635.88 143.27,-629.88 143.27,-629.88 143.27,-617.88 143.27,-617.88 143.27,-611.88 149.27,-605.88 155.27,-605.88 155.27,-605.88 346.77,-605.88 346.77,-605.88 352.77,-605.88 358.77,-611.88 358.77,-617.88 358.77,-617.88 358.77,-629.88 358.77,-629.88 358.77,-635.88 352.77,-641.88 346.77,-641.88"/>
<text xml:space="preserve" text-anchor="middle" x="251.02" y="-626.92" font-family="Helvetica,sans-Serif" font-size="11.00">reply after ask:</text>
<text xml:space="preserve" text-anchor="middle" x="251.02" y="-613.42" font-family="Helvetica,sans-Serif" font-size="11.00">a reply record names the escalation</text>
</g>
<!-- verdict&#45;&gt;reply -->
<g id="edge5" class="edge">
<title>verdict&#45;&gt;reply</title>
<path fill="none" stroke="black" d="M555.22,-920.32C508.43,-913.11 428.51,-894.92 376.02,-851 311.48,-797 274.41,-700.71 259.2,-653.11"/>
<polygon fill="black" stroke="black" points="262.55,-652.08 256.25,-643.56 255.86,-654.15 262.55,-652.08"/>
<text xml:space="preserve" text-anchor="middle" x="470.97" y="-876.25" font-family="Helvetica,sans-Serif" font-size="10.00">Resolvable: reply</text>
</g>
<!-- stop -->
<g id="node6" class="node">
<title>stop</title>
<path fill="none" stroke="black" d="M1090.52,-648.12C1090.52,-648.12 843.52,-648.12 843.52,-648.12 837.52,-648.12 831.52,-642.12 831.52,-636.12 831.52,-636.12 831.52,-611.62 831.52,-611.62 831.52,-605.62 837.52,-599.62 843.52,-599.62 843.52,-599.62 1090.52,-599.62 1090.52,-599.62 1096.52,-599.62 1102.52,-605.62 1102.52,-611.62 1102.52,-611.62 1102.52,-636.12 1102.52,-636.12 1102.52,-642.12 1096.52,-648.12 1090.52,-648.12"/>
<path fill="none" stroke="black" d="M1094.52,-652.12C1094.52,-652.12 839.52,-652.12 839.52,-652.12 833.52,-652.12 827.52,-646.12 827.52,-640.12 827.52,-640.12 827.52,-607.62 827.52,-607.62 827.52,-601.62 833.52,-595.62 839.52,-595.62 839.52,-595.62 1094.52,-595.62 1094.52,-595.62 1100.52,-595.62 1106.52,-601.62 1106.52,-607.62 1106.52,-607.62 1106.52,-640.12 1106.52,-640.12 1106.52,-646.12 1100.52,-652.12 1094.52,-652.12"/>
<text xml:space="preserve" text-anchor="middle" x="967.02" y="-633.67" font-family="Helvetica,sans-Serif" font-size="11.00">Done: a done record exists and nothing waits;</text>
<text xml:space="preserve" text-anchor="middle" x="967.02" y="-620.17" font-family="Helvetica,sans-Serif" font-size="11.00">render unread queue and stop</text>
<text xml:space="preserve" text-anchor="middle" x="967.02" y="-606.67" font-family="Helvetica,sans-Serif" font-size="11.00">(backlog waiting: wake names promote)</text>
</g>
<!-- verdict&#45;&gt;stop -->
<g id="edge7" class="edge">
<title>verdict&#45;&gt;stop</title>
<path fill="none" stroke="black" d="M628.75,-919.59C674.4,-911.51 754.08,-892.33 809.02,-851 876.23,-800.44 925.58,-712.84 949.95,-662.8"/>
<polygon fill="black" stroke="black" points="953.1,-664.33 954.26,-653.79 946.79,-661.31 953.1,-664.33"/>
<text xml:space="preserve" text-anchor="middle" x="785.08" y="-876.25" font-family="Helvetica,sans-Serif" font-size="10.00">Done</text>
</g>
<!-- act -->
<g id="node7" class="node">
<title>act</title>
<path fill="none" stroke="black" d="M1395.52,-641.88C1395.52,-641.88 1154.52,-641.88 1154.52,-641.88 1148.52,-641.88 1142.52,-635.88 1142.52,-629.88 1142.52,-629.88 1142.52,-617.88 1142.52,-617.88 1142.52,-611.88 1148.52,-605.88 1154.52,-605.88 1154.52,-605.88 1395.52,-605.88 1395.52,-605.88 1401.52,-605.88 1407.52,-611.88 1407.52,-617.88 1407.52,-617.88 1407.52,-629.88 1407.52,-629.88 1407.52,-635.88 1401.52,-641.88 1395.52,-641.88"/>
<text xml:space="preserve" text-anchor="middle" x="1275.02" y="-626.92" font-family="Helvetica,sans-Serif" font-size="11.00">Do the named action until its predicate holds</text>
<text xml:space="preserve" text-anchor="middle" x="1275.02" y="-613.42" font-family="Helvetica,sans-Serif" font-size="11.00">(the table below is in precedence order)</text>
</g>
<!-- verdict&#45;&gt;act -->
<g id="edge8" class="edge">
<title>verdict&#45;&gt;act</title>
<path fill="none" stroke="black" d="M639.15,-923.16C753.07,-918.48 1044.32,-901.76 1125.02,-851 1200.71,-803.4 1246.61,-702.1 1265.3,-652.88"/>
<polygon fill="black" stroke="black" points="1268.57,-654.11 1268.75,-643.52 1262.01,-651.7 1268.57,-654.11"/>
<text xml:space="preserve" text-anchor="middle" x="1092.28" y="-876.25" font-family="Helvetica,sans-Serif" font-size="10.00">Resolvable</text>
</g>
<!-- answer -->
<g id="node4" class="node">
<title>answer</title>
<path fill="none" stroke="black" d="M538.02,-340C538.02,-340 162.02,-340 162.02,-340 156.02,-340 150.02,-334 150.02,-328 150.02,-328 150.02,-303.5 150.02,-303.5 150.02,-297.5 156.02,-291.5 162.02,-291.5 162.02,-291.5 538.02,-291.5 538.02,-291.5 544.02,-291.5 550.02,-297.5 550.02,-303.5 550.02,-303.5 550.02,-328 550.02,-328 550.02,-334 544.02,-340 538.02,-340"/>
<text xml:space="preserve" text-anchor="middle" x="350.02" y="-325.55" font-family="Helvetica,sans-Serif" font-size="11.00">The agent asks the developer in conversation and records the words:</text>
<text xml:space="preserve" text-anchor="middle" x="350.02" y="-312.05" font-family="Helvetica,sans-Serif" font-size="11.00">cairn answer ok | instead | ask &#45;&#45;quote;</text>
<text xml:space="preserve" text-anchor="middle" x="350.02" y="-298.55" font-family="Helvetica,sans-Serif" font-size="11.00">signed when a key exists, attested otherwise</text>
</g>
<!-- waiting&#45;&gt;answer -->
<g id="edge3" class="edge">
<title>waiting&#45;&gt;answer</title>
<path fill="none" stroke="black" d="M568.83,-592.4C522.8,-534.41 422.97,-408.65 375.76,-349.17"/>
<polygon fill="black" stroke="black" points="378.55,-347.06 369.59,-341.4 373.07,-351.41 378.55,-347.06"/>
</g>
<!-- answer&#45;&gt;wake -->
<g id="edge4" class="edge">
<title>answer&#45;&gt;wake</title>
<path fill="none" stroke="black" d="M202.58,-340.45C172.2,-352.36 143.79,-370.16 125.02,-396.75 8.61,-561.7 62,-659.2 125.02,-851 141.46,-901.02 178.74,-948.44 208.51,-980.6"/>
<polygon fill="black" stroke="black" points="205.84,-982.88 215.25,-987.75 210.94,-978.07 205.84,-982.88"/>
</g>
<!-- reply&#45;&gt;wake -->
<g id="edge6" class="edge">
<title>reply&#45;&gt;wake</title>
<path fill="none" stroke="black" d="M251.02,-641.97C251.02,-699.84 251.02,-889.63 251.02,-977.13"/>
<polygon fill="black" stroke="black" points="247.52,-977.01 251.02,-987.01 254.52,-977.01 247.52,-977.01"/>
</g>
<!-- cannot -->
<g id="node8" class="node">
<title>cannot</title>
<path fill="none" stroke="black" d="M1385.07,-146.38C1385.07,-146.38 1216.34,-130.62 1216.34,-130.62 1210.37,-130.06 1210.37,-128.94 1216.34,-128.38 1216.34,-128.38 1385.07,-112.62 1385.07,-112.62 1391.05,-112.06 1403,-112.06 1408.97,-112.62 1408.97,-112.62 1577.7,-128.38 1577.7,-128.38 1583.68,-128.94 1583.68,-130.06 1577.7,-130.62 1577.7,-130.62 1408.97,-146.38 1408.97,-146.38 1403,-146.94 1391.05,-146.94 1385.07,-146.38"/>
<text xml:space="preserve" text-anchor="middle" x="1397.02" y="-125.8" font-family="Helvetica,sans-Serif" font-size="11.00">Cannot act, or cycle bound reached?</text>
</g>
<!-- act&#45;&gt;cannot -->
<g id="edge9" class="edge">
<title>act&#45;&gt;cannot</title>
<path fill="none" stroke="black" d="M1279.29,-605.64C1297.36,-532.74 1367.57,-249.35 1390.06,-158.62"/>
<polygon fill="black" stroke="black" points="1393.42,-159.61 1392.42,-149.06 1386.62,-157.93 1393.42,-159.61"/>
</g>
<!-- measure -->
<g id="node10" class="node">
<title>measure</title>
<path fill="none" stroke="black" d="M1299.77,-340C1299.77,-340 934.27,-340 934.27,-340 928.27,-340 922.27,-334 922.27,-328 922.27,-328 922.27,-303.5 922.27,-303.5 922.27,-297.5 928.27,-291.5 934.27,-291.5 934.27,-291.5 1299.77,-291.5 1299.77,-291.5 1305.77,-291.5 1311.77,-297.5 1311.77,-303.5 1311.77,-303.5 1311.77,-328 1311.77,-328 1311.77,-334 1305.77,-340 1299.77,-340"/>
<text xml:space="preserve" text-anchor="middle" x="1117.02" y="-325.55" font-family="Helvetica,sans-Serif" font-size="11.00">Consequential decision while acting:</text>
<text xml:space="preserve" text-anchor="middle" x="1117.02" y="-312.05" font-family="Helvetica,sans-Serif" font-size="11.00">cairn measure the draft first</text>
<text xml:space="preserve" text-anchor="middle" x="1117.02" y="-298.55" font-family="Helvetica,sans-Serif" font-size="11.00">(five Score levels, composite, veto, suggested: advice, not a route)</text>
</g>
<!-- act&#45;&gt;measure -->
<g id="edge14" class="edge">
<title>act&#45;&gt;measure</title>
<path fill="none" stroke="black" d="M1266.08,-605.54C1240.72,-556.42 1168.07,-415.65 1134.46,-350.54"/>
<polygon fill="black" stroke="black" points="1137.62,-349.02 1129.92,-341.74 1131.4,-352.23 1137.62,-349.02"/>
<text xml:space="preserve" text-anchor="middle" x="1191.51" y="-365.25" font-family="Helvetica,sans-Serif" font-size="10.00">Consequential draft</text>
</g>
<!-- actions -->
<g id="node14" class="node">
<title>actions</title>
<polygon fill="#eeeeee" stroke="none" points="1487.27,-825.75 1487.27,-847 1603.77,-847 1603.77,-825.75 1487.27,-825.75"/>
<polygon fill="none" stroke="black" points="1487.27,-825.75 1487.27,-847 1603.77,-847 1603.77,-825.75 1487.27,-825.75"/>
<text xml:space="preserve" text-anchor="start" x="1529.4" y="-834.45" font-family="Helvetica,sans-Serif" font-weight="bold" font-size="9.00">Action</text>
<polygon fill="#eeeeee" stroke="none" points="1603.77,-825.75 1603.77,-847 2072.77,-847 2072.77,-825.75 1603.77,-825.75"/>
<polygon fill="none" stroke="black" points="1603.77,-825.75 1603.77,-847 2072.77,-847 2072.77,-825.75 1603.77,-825.75"/>
<text xml:space="preserve" text-anchor="start" x="1818.4" y="-834.45" font-family="Helvetica,sans-Serif" font-weight="bold" font-size="9.00">done :=</text>
<polygon fill="none" stroke="black" points="1487.27,-804.5 1487.27,-825.75 1603.77,-825.75 1603.77,-804.5 1487.27,-804.5"/>
<text xml:space="preserve" text-anchor="start" x="1492.27" y="-812.2" font-family="Helvetica,sans-Serif" font-size="9.00">repair PATH</text>
<polygon fill="none" stroke="black" points="1603.77,-804.5 1603.77,-825.75 2072.77,-825.75 2072.77,-804.5 1603.77,-804.5"/>
<text xml:space="preserve" text-anchor="start" x="1608.77" y="-812.2" font-family="Helvetica,sans-Serif" font-size="9.00">hand&#45;written input parses; no unrelated byte changed</text>
<polygon fill="none" stroke="black" points="1487.27,-783.25 1487.27,-804.5 1603.77,-804.5 1603.77,-783.25 1487.27,-783.25"/>
<text xml:space="preserve" text-anchor="start" x="1492.27" y="-790.95" font-family="Helvetica,sans-Serif" font-size="9.00">recover TRANSACTION</text>
<polygon fill="none" stroke="black" points="1603.77,-783.25 1603.77,-804.5 2072.77,-804.5 2072.77,-783.25 1603.77,-783.25"/>
<text xml:space="preserve" text-anchor="start" x="1608.77" y="-790.95" font-family="Helvetica,sans-Serif" font-size="9.00">intent has a terminal domain or abort record; every store matches its result</text>
<polygon fill="none" stroke="black" points="1487.27,-762 1487.27,-783.25 1603.77,-783.25 1603.77,-762 1487.27,-762"/>
<text xml:space="preserve" text-anchor="start" x="1492.27" y="-769.7" font-family="Helvetica,sans-Serif" font-size="9.00">reconcile ACTION</text>
<polygon fill="none" stroke="black" points="1603.77,-762 1603.77,-783.25 2072.77,-783.25 2072.77,-762 1603.77,-762"/>
<text xml:space="preserve" text-anchor="start" x="1608.77" y="-769.7" font-family="Helvetica,sans-Serif" font-size="9.00">local action lease is gone; action finished or was abandoned</text>
<polygon fill="none" stroke="black" points="1487.27,-740.75 1487.27,-762 1603.77,-762 1603.77,-740.75 1487.27,-740.75"/>
<text xml:space="preserve" text-anchor="start" x="1492.27" y="-748.45" font-family="Helvetica,sans-Serif" font-size="9.00">scope PATH</text>
<polygon fill="none" stroke="black" points="1603.77,-740.75 1603.77,-762 2072.77,-762 2072.77,-740.75 1603.77,-740.75"/>
<text xml:space="preserve" text-anchor="start" x="1608.77" y="-748.45" font-family="Helvetica,sans-Serif" font-size="9.00">each durable breach is developer&#45;kept or restored to its allowed base; later declaration never clears it</text>
<polygon fill="none" stroke="black" points="1487.27,-719.5 1487.27,-740.75 1603.77,-740.75 1603.77,-719.5 1487.27,-719.5"/>
<text xml:space="preserve" text-anchor="start" x="1492.27" y="-727.2" font-family="Helvetica,sans-Serif" font-size="9.00">fix ITEM</text>
<polygon fill="none" stroke="black" points="1603.77,-719.5 1603.77,-740.75 2072.77,-740.75 2072.77,-719.5 1603.77,-719.5"/>
<text xml:space="preserve" text-anchor="start" x="1608.77" y="-727.2" font-family="Helvetica,sans-Serif" font-size="9.00">fix snapshot changes no protected contract; requirement has a current pass</text>
<polygon fill="none" stroke="black" points="1487.27,-698.25 1487.27,-719.5 1603.77,-719.5 1603.77,-698.25 1487.27,-698.25"/>
<text xml:space="preserve" text-anchor="start" x="1492.27" y="-705.95" font-family="Helvetica,sans-Serif" font-size="9.00">record PATH</text>
<polygon fill="none" stroke="black" points="1603.77,-698.25 1603.77,-719.5 2072.77,-719.5 2072.77,-698.25 1603.77,-698.25"/>
<text xml:space="preserve" text-anchor="start" x="1608.77" y="-705.95" font-family="Helvetica,sans-Serif" font-size="9.00">action lease covers the path, or it is clean</text>
<polygon fill="none" stroke="black" points="1487.27,-677 1487.27,-698.25 1603.77,-698.25 1603.77,-677 1487.27,-677"/>
<text xml:space="preserve" text-anchor="start" x="1492.27" y="-684.7" font-family="Helvetica,sans-Serif" font-size="9.00">commit PATH</text>
<polygon fill="none" stroke="black" points="1603.77,-677 1603.77,-698.25 2072.77,-698.25 2072.77,-677 1603.77,-677"/>
<text xml:space="preserve" text-anchor="start" x="1608.77" y="-684.7" font-family="Helvetica,sans-Serif" font-size="9.00">path is clean, or the action lease covers it</text>
<polygon fill="none" stroke="black" points="1487.27,-655.75 1487.27,-677 1603.77,-677 1603.77,-655.75 1487.27,-655.75"/>
<text xml:space="preserve" text-anchor="start" x="1492.27" y="-663.45" font-family="Helvetica,sans-Serif" font-size="9.00">declare REQ</text>
<polygon fill="none" stroke="black" points="1603.77,-655.75 1603.77,-677 2072.77,-677 2072.77,-655.75 1603.77,-655.75"/>
<text xml:space="preserve" text-anchor="start" x="1608.77" y="-663.45" font-family="Helvetica,sans-Serif" font-size="9.00">mechanism definition names REQ; no prior undeclared delta was legalized</text>
<polygon fill="none" stroke="black" points="1487.27,-634.5 1487.27,-655.75 1603.77,-655.75 1603.77,-634.5 1487.27,-634.5"/>
<text xml:space="preserve" text-anchor="start" x="1492.27" y="-642.2" font-family="Helvetica,sans-Serif" font-size="9.00">run REQ</text>
<polygon fill="none" stroke="black" points="1603.77,-634.5 1603.77,-655.75 2072.77,-655.75 2072.77,-634.5 1603.77,-634.5"/>
<text xml:space="preserve" text-anchor="start" x="1608.77" y="-642.2" font-family="Helvetica,sans-Serif" font-size="9.00">current receipt matches input snapshot, definition, text and declared execution identity</text>
<polygon fill="none" stroke="black" points="1487.27,-613.25 1487.27,-634.5 1603.77,-634.5 1603.77,-613.25 1487.27,-613.25"/>
<text xml:space="preserve" text-anchor="start" x="1492.27" y="-620.95" font-family="Helvetica,sans-Serif" font-size="9.00">implement REQ</text>
<polygon fill="none" stroke="black" points="1603.77,-613.25 1603.77,-634.5 2072.77,-634.5 2072.77,-613.25 1603.77,-613.25"/>
<text xml:space="preserve" text-anchor="start" x="1608.77" y="-620.95" font-family="Helvetica,sans-Serif" font-size="9.00">current pass plus review metadata bound to current definition and frozen text, with fail receipt</text>
<polygon fill="none" stroke="black" points="1487.27,-592 1487.27,-613.25 1603.77,-613.25 1603.77,-592 1487.27,-592"/>
<text xml:space="preserve" text-anchor="start" x="1492.27" y="-599.7" font-family="Helvetica,sans-Serif" font-size="9.00">escalate REQ</text>
<polygon fill="none" stroke="black" points="1603.77,-592 1603.77,-613.25 2072.77,-613.25 2072.77,-592 1603.77,-592"/>
<text xml:space="preserve" text-anchor="start" x="1608.77" y="-599.7" font-family="Helvetica,sans-Serif" font-size="9.00">after three failing attempts, an escalation exists before a fourth</text>
<polygon fill="none" stroke="black" points="1487.27,-570.75 1487.27,-592 1603.77,-592 1603.77,-570.75 1487.27,-570.75"/>
<text xml:space="preserve" text-anchor="start" x="1492.27" y="-578.45" font-family="Helvetica,sans-Serif" font-size="9.00">review mechanism REQ</text>
<polygon fill="none" stroke="black" points="1603.77,-570.75 1603.77,-592 2072.77,-592 2072.77,-570.75 1603.77,-570.75"/>
<text xml:space="preserve" text-anchor="start" x="1608.77" y="-578.45" font-family="Helvetica,sans-Serif" font-size="9.00">review metadata binds definition and text to a fail receipt; product inputs unchanged</text>
<polygon fill="none" stroke="black" points="1487.27,-549.5 1487.27,-570.75 1603.77,-570.75 1603.77,-549.5 1487.27,-549.5"/>
<text xml:space="preserve" text-anchor="start" x="1492.27" y="-557.2" font-family="Helvetica,sans-Serif" font-size="9.00">capture ITEM</text>
<polygon fill="none" stroke="black" points="1603.77,-549.5 1603.77,-570.75 2072.77,-570.75 2072.77,-549.5 1603.77,-549.5"/>
<text xml:space="preserve" text-anchor="start" x="1608.77" y="-557.2" font-family="Helvetica,sans-Serif" font-size="9.00">outside record or escalation names it</text>
<polygon fill="none" stroke="black" points="1487.27,-528.25 1487.27,-549.5 1603.77,-549.5 1603.77,-528.25 1487.27,-528.25"/>
<text xml:space="preserve" text-anchor="start" x="1492.27" y="-535.95" font-family="Helvetica,sans-Serif" font-size="9.00">review SLUG</text>
<polygon fill="none" stroke="black" points="1603.77,-528.25 1603.77,-549.5 2072.77,-549.5 2072.77,-528.25 1603.77,-528.25"/>
<text xml:space="preserve" text-anchor="start" x="1608.77" y="-535.95" font-family="Helvetica,sans-Serif" font-size="9.00">current workspace snapshot; every fixed question answered for each target</text>
<polygon fill="none" stroke="black" points="1487.27,-507 1487.27,-528.25 1603.77,-528.25 1603.77,-507 1487.27,-507"/>
<text xml:space="preserve" text-anchor="start" x="1492.27" y="-514.7" font-family="Helvetica,sans-Serif" font-size="9.00">report SLUG</text>
<polygon fill="none" stroke="black" points="1603.77,-507 1603.77,-528.25 2072.77,-528.25 2072.77,-507 1603.77,-507"/>
<text xml:space="preserve" text-anchor="start" x="1608.77" y="-514.7" font-family="Helvetica,sans-Serif" font-size="9.00">isolated projection; current brief and report; all question and interface attempts present</text>
<polygon fill="none" stroke="black" points="1487.27,-485.75 1487.27,-507 1603.77,-507 1603.77,-485.75 1487.27,-485.75"/>
<text xml:space="preserve" text-anchor="start" x="1492.27" y="-493.45" font-family="Helvetica,sans-Serif" font-size="9.00">resolve SLUG N</text>
<polygon fill="none" stroke="black" points="1603.77,-485.75 1603.77,-507 2072.77,-507 2072.77,-485.75 1603.77,-485.75"/>
<text xml:space="preserve" text-anchor="start" x="1608.77" y="-493.45" font-family="Helvetica,sans-Serif" font-size="9.00">resolution or developer dispute names N on its exact source record</text>
<polygon fill="none" stroke="black" points="1487.27,-464.5 1487.27,-485.75 1603.77,-485.75 1603.77,-464.5 1487.27,-464.5"/>
<text xml:space="preserve" text-anchor="start" x="1492.27" y="-472.2" font-family="Helvetica,sans-Serif" font-size="9.00">accept SLUG</text>
<polygon fill="none" stroke="black" points="1603.77,-464.5 1603.77,-485.75 2072.77,-485.75 2072.77,-464.5 1603.77,-464.5"/>
<text xml:space="preserve" text-anchor="start" x="1608.77" y="-472.2" font-family="Helvetica,sans-Serif" font-size="9.00">current acceptance examines cumulative delta and every submitted resolution; it may add findings</text>
<polygon fill="none" stroke="black" points="1487.27,-443.25 1487.27,-464.5 1603.77,-464.5 1603.77,-443.25 1487.27,-443.25"/>
<text xml:space="preserve" text-anchor="start" x="1492.27" y="-450.95" font-family="Helvetica,sans-Serif" font-size="9.00">build DECISION</text>
<polygon fill="none" stroke="black" points="1603.77,-443.25 1603.77,-464.5 2072.77,-464.5 2072.77,-443.25 1603.77,-443.25"/>
<text xml:space="preserve" text-anchor="start" x="1608.77" y="-450.95" font-family="Helvetica,sans-Serif" font-size="9.00">realized line names base and result snapshots; actual delta passes protected&#45;category check</text>
<polygon fill="none" stroke="black" points="1487.27,-422 1487.27,-443.25 1603.77,-443.25 1603.77,-422 1487.27,-422"/>
<text xml:space="preserve" text-anchor="start" x="1492.27" y="-429.7" font-family="Helvetica,sans-Serif" font-size="9.00">done SLUG</text>
<polygon fill="none" stroke="black" points="1603.77,-422 1603.77,-443.25 2072.77,-443.25 2072.77,-422 1603.77,-422"/>
<text xml:space="preserve" text-anchor="start" x="1608.77" y="-429.7" font-family="Helvetica,sans-Serif" font-size="9.00">Done rule holds; cairn done writes the final record</text>
<polygon fill="none" stroke="black" points="1487.27,-400.75 1487.27,-422 1603.77,-422 1603.77,-400.75 1487.27,-400.75"/>
<text xml:space="preserve" text-anchor="start" x="1492.27" y="-408.45" font-family="Helvetica,sans-Serif" font-size="9.00">promote</text>
<polygon fill="none" stroke="black" points="1603.77,-400.75 1603.77,-422 2072.77,-422 2072.77,-400.75 1603.77,-400.75"/>
<text xml:space="preserve" text-anchor="start" x="1608.77" y="-408.45" font-family="Helvetica,sans-Serif" font-size="9.00">one backlog item, decision, roadmap move and successor start are one transaction</text>
</g>
<!-- act&#45;&gt;actions -->
<g id="edge20" class="edge">
<title>act&#45;&gt;actions</title>
<path fill="none" stroke="black" stroke-dasharray="5,2" d="M1407.68,-623.88C1431.56,-623.88 1455.44,-623.88 1479.32,-623.88"/>
</g>
<!-- escalate -->
<g id="node9" class="node">
<title>escalate</title>
<path fill="none" stroke="black" d="M922.27,-48.5C922.27,-48.5 613.77,-48.5 613.77,-48.5 607.77,-48.5 601.77,-42.5 601.77,-36.5 601.77,-36.5 601.77,-12 601.77,-12 601.77,-6 607.77,0 613.77,0 613.77,0 922.27,0 922.27,0 928.27,0 934.27,-6 934.27,-12 934.27,-12 934.27,-36.5 934.27,-36.5 934.27,-42.5 928.27,-48.5 922.27,-48.5"/>
<text xml:space="preserve" text-anchor="middle" x="768.02" y="-34.05" font-family="Helvetica,sans-Serif" font-size="11.00">Write one evidence&#45;backed escalation;</text>
<text xml:space="preserve" text-anchor="middle" x="768.02" y="-20.55" font-family="Helvetica,sans-Serif" font-size="11.00">cycle guard: fourth same&#45;target or 28th admin transition,</text>
<text xml:space="preserve" text-anchor="middle" x="768.02" y="-7.05" font-family="Helvetica,sans-Serif" font-size="11.00">or third unsuccessful recovery</text>
</g>
<!-- cannot&#45;&gt;escalate -->
<g id="edge11" class="edge">
<title>cannot&#45;&gt;escalate</title>
<path fill="none" stroke="black" d="M1361.3,-114.42C1325.6,-100.96 1268.86,-81.16 1218.02,-70.5 1129.4,-51.91 1029.3,-40.88 946.05,-34.38"/>
<polygon fill="black" stroke="black" points="946.43,-30.9 936.19,-33.63 945.9,-37.88 946.43,-30.9"/>
<text xml:space="preserve" text-anchor="middle" x="1313.44" y="-73.75" font-family="Helvetica,sans-Serif" font-size="10.00">cannot or bounded</text>
</g>
<!-- trace -->
<g id="node13" class="node">
<title>trace</title>
<path fill="none" stroke="black" d="M1545.65,-42.25C1545.65,-42.25 1248.4,-42.25 1248.4,-42.25 1242.4,-42.25 1236.4,-36.25 1236.4,-30.25 1236.4,-30.25 1236.4,-18.25 1236.4,-18.25 1236.4,-12.25 1242.4,-6.25 1248.4,-6.25 1248.4,-6.25 1545.65,-6.25 1545.65,-6.25 1551.65,-6.25 1557.65,-12.25 1557.65,-18.25 1557.65,-18.25 1557.65,-30.25 1557.65,-30.25 1557.65,-36.25 1551.65,-42.25 1545.65,-42.25"/>
<text xml:space="preserve" text-anchor="middle" x="1397.02" y="-27.3" font-family="Helvetica,sans-Serif" font-size="11.00">Leave the required trace:</text>
<text xml:space="preserve" text-anchor="middle" x="1397.02" y="-13.8" font-family="Helvetica,sans-Serif" font-size="11.00">branch commit, typed snapshot or canonical log record</text>
</g>
<!-- cannot&#45;&gt;trace -->
<g id="edge10" class="edge">
<title>cannot&#45;&gt;trace</title>
<path fill="none" stroke="black" d="M1397.02,-111.45C1397.02,-95.85 1397.02,-72.46 1397.02,-53.98"/>
<polygon fill="black" stroke="black" points="1400.52,-54.18 1397.02,-44.18 1393.52,-54.18 1400.52,-54.18"/>
<text xml:space="preserve" text-anchor="middle" x="1414.65" y="-73.75" font-family="Helvetica,sans-Serif" font-size="10.00">can act</text>
</g>
<!-- escalate&#45;&gt;wake -->
<g id="edge13" class="edge">
<title>escalate&#45;&gt;wake</title>
<path fill="none" stroke="black" d="M601.62,-31.74C379.58,-42.68 14.02,-69.62 14.02,-128.5 14.02,-926.75 14.02,-926.75 14.02,-926.75 14.02,-951.95 60.75,-973.56 112.7,-989.8"/>
<polygon fill="black" stroke="black" points="111.47,-993.09 122.06,-992.64 113.5,-986.39 111.47,-993.09"/>
</g>
<!-- gate -->
<g id="node11" class="node">
<title>gate</title>
<path fill="none" stroke="black" d="M1015.3,-243.91C1015.3,-243.91 957.19,-231.09 957.19,-231.09 951.33,-229.79 951.33,-227.21 957.19,-225.91 957.19,-225.91 1015.3,-213.09 1015.3,-213.09 1021.16,-211.79 1032.88,-211.79 1038.74,-213.09 1038.74,-213.09 1096.85,-225.91 1096.85,-225.91 1102.71,-227.21 1102.71,-229.79 1096.85,-231.09 1096.85,-231.09 1038.74,-243.91 1038.74,-243.91 1032.88,-245.21 1021.16,-245.21 1015.3,-243.91"/>
<text xml:space="preserve" text-anchor="middle" x="1027.02" y="-224.8" font-family="Helvetica,sans-Serif" font-size="11.00">Floor or veto?</text>
</g>
<!-- measure&#45;&gt;gate -->
<g id="edge15" class="edge">
<title>measure&#45;&gt;gate</title>
<path fill="none" stroke="black" d="M1091.95,-291C1078.85,-278.59 1062.93,-263.51 1050.13,-251.39"/>
<polygon fill="black" stroke="black" points="1052.6,-248.91 1042.94,-244.57 1047.79,-253.99 1052.6,-248.91"/>
</g>
<!-- gate&#45;&gt;escalate -->
<g id="edge16" class="edge">
<title>gate&#45;&gt;escalate</title>
<path fill="none" stroke="black" d="M972.17,-222.12C893.56,-213.14 754.96,-192.19 724.77,-153.75 702.7,-125.64 722.02,-85.67 741.4,-57.8"/>
<polygon fill="black" stroke="black" points="743.98,-60.21 747.03,-50.07 738.32,-56.1 743.98,-60.21"/>
<text xml:space="preserve" text-anchor="middle" x="796.4" y="-126.38" font-family="Helvetica,sans-Serif" font-size="10.00">yes: escalate &#45;&#45;consequential</text>
</g>
<!-- decide -->
<g id="node12" class="node">
<title>decide</title>
<path fill="none" stroke="black" d="M1156.15,-153.75C1156.15,-153.75 897.9,-153.75 897.9,-153.75 891.9,-153.75 885.9,-147.75 885.9,-141.75 885.9,-141.75 885.9,-117.25 885.9,-117.25 885.9,-111.25 891.9,-105.25 897.9,-105.25 897.9,-105.25 1156.15,-105.25 1156.15,-105.25 1162.15,-105.25 1168.15,-111.25 1168.15,-117.25 1168.15,-117.25 1168.15,-141.75 1168.15,-141.75 1168.15,-147.75 1162.15,-153.75 1156.15,-153.75"/>
<text xml:space="preserve" text-anchor="middle" x="1027.02" y="-139.3" font-family="Helvetica,sans-Serif" font-size="11.00">The agent decides: cairn decide &#45;&#45;consequential</text>
<text xml:space="preserve" text-anchor="middle" x="1027.02" y="-125.8" font-family="Helvetica,sans-Serif" font-size="11.00">(composite outcome, whatever the suggestion),</text>
<text xml:space="preserve" text-anchor="middle" x="1027.02" y="-112.3" font-family="Helvetica,sans-Serif" font-size="11.00">or escalates anyway</text>
</g>
<!-- gate&#45;&gt;decide -->
<g id="edge17" class="edge">
<title>gate&#45;&gt;decide</title>
<path fill="none" stroke="black" d="M1027.02,-210.16C1027.02,-197.65 1027.02,-180.35 1027.02,-165.07"/>
<polygon fill="black" stroke="black" points="1030.52,-165.4 1027.02,-155.4 1023.52,-165.4 1030.52,-165.4"/>
<text xml:space="preserve" text-anchor="middle" x="1033.02" y="-179" font-family="Helvetica,sans-Serif" font-size="10.00">no</text>
</g>
<!-- decide&#45;&gt;escalate -->
<g id="edge19" class="edge">
<title>decide&#45;&gt;escalate</title>
<path fill="none" stroke="black" stroke-dasharray="5,2" d="M963.31,-104.81C945.23,-97.97 925.56,-90.41 907.52,-83.25 883.53,-73.72 857.36,-62.95 834.25,-53.29"/>
<polygon fill="black" stroke="black" points="835.83,-50.16 825.25,-49.53 833.13,-56.62 835.83,-50.16"/>
<text xml:space="preserve" text-anchor="middle" x="948.77" y="-73.75" font-family="Helvetica,sans-Serif" font-size="10.00">escalate anyway</text>
</g>
<!-- decide&#45;&gt;trace -->
<g id="edge18" class="edge">
<title>decide&#45;&gt;trace</title>
<path fill="none" stroke="black" d="M1029.11,-104.81C1031.45,-92.73 1036.34,-78.86 1046.52,-70.5 1074.38,-47.63 1150.47,-36.22 1224.66,-30.57"/>
<polygon fill="black" stroke="black" points="1224.84,-34.07 1234.56,-29.86 1224.33,-27.09 1224.84,-34.07"/>
<text xml:space="preserve" text-anchor="middle" x="1129.77" y="-73.75" font-family="Helvetica,sans-Serif" font-size="10.00">decision names the measurement</text>
</g>
<!-- trace&#45;&gt;wake -->
<g id="edge12" class="edge">
<title>trace&#45;&gt;wake</title>
<path fill="none" stroke="black" d="M1557.83,-31.94C1775.23,-43.19 2136.02,-70.57 2136.02,-128.5 2136.02,-926.75 2136.02,-926.75 2136.02,-926.75 2136.02,-1007 1031.87,-1020.23 513.68,-1022.02"/>
<polygon fill="black" stroke="black" points="513.81,-1018.52 503.82,-1022.05 513.84,-1025.52 513.81,-1018.52"/>
</g>
</g>
</svg>
