<?xml version="1.0" encoding="UTF-8" standalone="no"?>
<!DOCTYPE svg PUBLIC "-//W3C//DTD SVG 1.1//EN"
 "http://www.w3.org/Graphics/SVG/1.1/DTD/svg11.dtd">
<!-- Generated by graphviz version 13.1.2 (20250809.0930)
 -->
<!-- Title: work_loop Pages: 1 -->
<svg width="2553pt" height="813pt"
 viewBox="0.00 0.00 2553.00 813.00" xmlns="http://www.w3.org/2000/svg" xmlns:xlink="http://www.w3.org/1999/xlink">
<g id="graph0" class="graph" transform="scale(1 1) rotate(0) translate(4 808.59)">
<title>work_loop</title>
<polygon fill="white" stroke="none" points="-4,4 -4,-808.59 2549,-808.59 2549,4 -4,4"/>
<text xml:space="preserve" text-anchor="middle" x="1272.5" y="-790.14" font-family="Helvetica,sans-Serif" font-size="11.00">The work loop: do the action until its predicate holds; leave the trace; wake</text>
<!-- wake -->
<g id="node1" class="node">
<title>wake</title>
<ellipse fill="none" stroke="black" cx="267" cy="-748.79" rx="200.11" ry="34.29"/>
<text xml:space="preserve" text-anchor="middle" x="267" y="-758.59" font-family="Helvetica,sans-Serif" font-size="11.00">cairn wake</text>
<text xml:space="preserve" text-anchor="middle" x="267" y="-745.09" font-family="Helvetica,sans-Serif" font-size="11.00">prints verdict, action or party, reason, predicate</text>
<text xml:space="preserve" text-anchor="middle" x="267" y="-731.59" font-family="Helvetica,sans-Serif" font-size="11.00">(outside a project: one line, exit 3)</text>
</g>
<!-- verdict -->
<g id="node2" class="node">
<title>verdict</title>
<path fill="none" stroke="black" d="M1634.65,-665.61C1634.65,-665.61 1604.9,-655.39 1604.9,-655.39 1599.22,-653.45 1599.22,-649.55 1604.9,-647.61 1604.9,-647.61 1634.65,-637.39 1634.65,-637.39 1640.32,-635.45 1651.68,-635.45 1657.35,-637.39 1657.35,-637.39 1687.1,-647.61 1687.1,-647.61 1692.78,-649.55 1692.78,-653.45 1687.1,-655.39 1687.1,-655.39 1657.35,-665.61 1657.35,-665.61 1651.68,-667.55 1640.32,-667.55 1634.65,-665.61"/>
<text xml:space="preserve" text-anchor="middle" x="1646" y="-647.8" font-family="Helvetica,sans-Serif" font-size="11.00">Verdict?</text>
</g>
<!-- wake&#45;&gt;verdict -->
<g id="edge1" class="edge">
<title>wake&#45;&gt;verdict</title>
<path fill="none" stroke="black" d="M451.19,-735.07C768.97,-713.11 1404.29,-669.2 1592.36,-656.21"/>
<polygon fill="black" stroke="black" points="1592.34,-659.72 1602.07,-655.54 1591.85,-652.73 1592.34,-659.72"/>
</g>
<!-- waiting -->
<g id="node3" class="node">
<title>waiting</title>
<path fill="none" stroke="black" d="M1984,-141.25C1984,-141.25 1716,-141.25 1716,-141.25 1710,-141.25 1704,-135.25 1704,-129.25 1704,-129.25 1704,-117.25 1704,-117.25 1704,-111.25 1710,-105.25 1716,-105.25 1716,-105.25 1984,-105.25 1984,-105.25 1990,-105.25 1996,-111.25 1996,-117.25 1996,-117.25 1996,-129.25 1996,-129.25 1996,-135.25 1990,-141.25 1984,-141.25"/>
<text xml:space="preserve" text-anchor="middle" x="1850" y="-126.3" font-family="Helvetica,sans-Serif" font-size="11.00">Waiting: the developer&#39;s turn;</text>
<text xml:space="preserve" text-anchor="middle" x="1850" y="-112.8" font-family="Helvetica,sans-Serif" font-size="11.00">the agent stops; the hooks print it and do not nag</text>
</g>
<!-- verdict&#45;&gt;waiting -->
<g id="edge2" class="edge">
<title>verdict&#45;&gt;waiting</title>
<path fill="none" stroke="black" d="M1678.26,-644.14C1713.35,-635.4 1768.16,-616.06 1796,-576.75 1890.85,-442.85 1867.45,-228.9 1855.15,-152.5"/>
<polygon fill="black" stroke="black" points="1858.66,-152.23 1853.55,-142.95 1851.75,-153.39 1858.66,-152.23"/>
<text xml:space="preserve" text-anchor="middle" x="1885.72" y="-378.38" font-family="Helvetica,sans-Serif" font-size="10.00">Waiting</text>
</g>
<!-- present -->
<g id="node5" class="node">
<title>present</title>
<path fill="none" stroke="black" d="M2478,-399.5C2478,-399.5 2276,-399.5 2276,-399.5 2270,-399.5 2264,-393.5 2264,-387.5 2264,-387.5 2264,-375.5 2264,-375.5 2264,-369.5 2270,-363.5 2276,-363.5 2276,-363.5 2478,-363.5 2478,-363.5 2484,-363.5 2490,-369.5 2490,-375.5 2490,-375.5 2490,-387.5 2490,-387.5 2490,-393.5 2484,-399.5 2478,-399.5"/>
<text xml:space="preserve" text-anchor="middle" x="2377" y="-384.55" font-family="Helvetica,sans-Serif" font-size="11.00">Escalate SLUG: present the escalation</text>
<text xml:space="preserve" text-anchor="middle" x="2377" y="-371.05" font-family="Helvetica,sans-Serif" font-size="11.00">in its own words; stop</text>
</g>
<!-- verdict&#45;&gt;present -->
<g id="edge5" class="edge">
<title>verdict&#45;&gt;present</title>
<path fill="none" stroke="black" d="M1694.26,-649.65C1819.87,-646.64 2153.61,-633.38 2246,-576.75 2309.83,-537.63 2349.59,-454.35 2366.9,-410.63"/>
<polygon fill="black" stroke="black" points="2370.15,-411.93 2370.46,-401.33 2363.62,-409.42 2370.15,-411.93"/>
<text xml:space="preserve" text-anchor="middle" x="2210.85" y="-602" font-family="Helvetica,sans-Serif" font-size="10.00">Escalate</text>
</g>
<!-- reply -->
<g id="node6" class="node">
<title>reply</title>
<path fill="none" stroke="black" d="M392.75,-399.5C392.75,-399.5 141.25,-399.5 141.25,-399.5 135.25,-399.5 129.25,-393.5 129.25,-387.5 129.25,-387.5 129.25,-375.5 129.25,-375.5 129.25,-369.5 135.25,-363.5 141.25,-363.5 141.25,-363.5 392.75,-363.5 392.75,-363.5 398.75,-363.5 404.75,-369.5 404.75,-375.5 404.75,-375.5 404.75,-387.5 404.75,-387.5 404.75,-393.5 398.75,-399.5 392.75,-399.5"/>
<text xml:space="preserve" text-anchor="middle" x="267" y="-384.55" font-family="Helvetica,sans-Serif" font-size="11.00">reply SLUG (after ask): append the explanation</text>
<text xml:space="preserve" text-anchor="middle" x="267" y="-371.05" font-family="Helvetica,sans-Serif" font-size="11.00">done := the escalation carries it</text>
</g>
<!-- verdict&#45;&gt;reply -->
<g id="edge7" class="edge">
<title>verdict&#45;&gt;reply</title>
<path fill="none" stroke="black" d="M1596.55,-650C1380.69,-647.46 527.15,-633.87 423,-576.75 352.73,-538.21 302.45,-453.69 280.04,-409.95"/>
<polygon fill="black" stroke="black" points="283.23,-408.49 275.63,-401.11 276.97,-411.62 283.23,-408.49"/>
<text xml:space="preserve" text-anchor="middle" x="638.4" y="-602" font-family="Helvetica,sans-Serif" font-size="10.00">Resolvable: reply</text>
</g>
<!-- stop -->
<g id="node7" class="node">
<title>stop</title>
<path fill="none" stroke="black" d="M2212.25,-399.5C2212.25,-399.5 1939.75,-399.5 1939.75,-399.5 1933.75,-399.5 1927.75,-393.5 1927.75,-387.5 1927.75,-387.5 1927.75,-375.5 1927.75,-375.5 1927.75,-369.5 1933.75,-363.5 1939.75,-363.5 1939.75,-363.5 2212.25,-363.5 2212.25,-363.5 2218.25,-363.5 2224.25,-369.5 2224.25,-375.5 2224.25,-375.5 2224.25,-387.5 2224.25,-387.5 2224.25,-393.5 2218.25,-399.5 2212.25,-399.5"/>
<path fill="none" stroke="black" d="M2216.25,-403.5C2216.25,-403.5 1935.75,-403.5 1935.75,-403.5 1929.75,-403.5 1923.75,-397.5 1923.75,-391.5 1923.75,-391.5 1923.75,-371.5 1923.75,-371.5 1923.75,-365.5 1929.75,-359.5 1935.75,-359.5 1935.75,-359.5 2216.25,-359.5 2216.25,-359.5 2222.25,-359.5 2228.25,-365.5 2228.25,-371.5 2228.25,-371.5 2228.25,-391.5 2228.25,-391.5 2228.25,-397.5 2222.25,-403.5 2216.25,-403.5"/>
<text xml:space="preserve" text-anchor="middle" x="2076" y="-384.55" font-family="Helvetica,sans-Serif" font-size="11.00">Done: nothing waits; the queue is presented; stop.</text>
<text xml:space="preserve" text-anchor="middle" x="2076" y="-371.05" font-family="Helvetica,sans-Serif" font-size="11.00">The developer opens /next&#45;feature.</text>
</g>
<!-- verdict&#45;&gt;stop -->
<g id="edge9" class="edge">
<title>verdict&#45;&gt;stop</title>
<path fill="none" stroke="black" d="M1686.73,-646.99C1744.28,-641.48 1845.96,-629.52 1878,-611.5 1963.29,-563.54 2029.25,-464.23 2058.88,-413.61"/>
<polygon fill="black" stroke="black" points="2061.77,-415.6 2063.73,-405.19 2055.71,-412.11 2061.77,-415.6"/>
<text xml:space="preserve" text-anchor="middle" x="1904.65" y="-602" font-family="Helvetica,sans-Serif" font-size="10.00">Done</text>
</g>
<!-- act -->
<g id="node8" class="node">
<title>act</title>
<path fill="none" stroke="black" d="M657.12,-405.75C657.12,-405.75 452.88,-405.75 452.88,-405.75 446.88,-405.75 440.88,-399.75 440.88,-393.75 440.88,-393.75 440.88,-369.25 440.88,-369.25 440.88,-363.25 446.88,-357.25 452.88,-357.25 452.88,-357.25 657.12,-357.25 657.12,-357.25 663.12,-357.25 669.12,-363.25 669.12,-369.25 669.12,-369.25 669.12,-393.75 669.12,-393.75 669.12,-399.75 663.12,-405.75 657.12,-405.75"/>
<text xml:space="preserve" text-anchor="middle" x="555" y="-391.3" font-family="Helvetica,sans-Serif" font-size="11.00">Do the named action</text>
<text xml:space="preserve" text-anchor="middle" x="555" y="-377.8" font-family="Helvetica,sans-Serif" font-size="11.00">until its predicate holds</text>
<text xml:space="preserve" text-anchor="middle" x="555" y="-364.3" font-family="Helvetica,sans-Serif" font-size="11.00">(the table below, in precedence order)</text>
</g>
<!-- verdict&#45;&gt;act -->
<g id="edge10" class="edge">
<title>verdict&#45;&gt;act</title>
<path fill="none" stroke="black" d="M1599.81,-648.87C1423.75,-642.38 800.73,-616.76 722,-576.75 651.56,-540.95 598.46,-461.29 572.56,-415.88"/>
<polygon fill="black" stroke="black" points="575.67,-414.28 567.74,-407.25 569.56,-417.69 575.67,-414.28"/>
<text xml:space="preserve" text-anchor="middle" x="965.74" y="-602" font-family="Helvetica,sans-Serif" font-size="10.00">Resolvable</text>
</g>
<!-- answer -->
<g id="node4" class="node">
<title>answer</title>
<path fill="none" stroke="black" d="M1378.25,-48.5C1378.25,-48.5 1195.75,-48.5 1195.75,-48.5 1189.75,-48.5 1183.75,-42.5 1183.75,-36.5 1183.75,-36.5 1183.75,-12 1183.75,-12 1183.75,-6 1189.75,0 1195.75,0 1195.75,0 1378.25,0 1378.25,0 1384.25,0 1390.25,-6 1390.25,-12 1390.25,-12 1390.25,-36.5 1390.25,-36.5 1390.25,-42.5 1384.25,-48.5 1378.25,-48.5"/>
<text xml:space="preserve" text-anchor="middle" x="1287" y="-34.05" font-family="Helvetica,sans-Serif" font-size="11.00">Developer runs cairn answer SLUG</text>
<text xml:space="preserve" text-anchor="middle" x="1287" y="-20.55" font-family="Helvetica,sans-Serif" font-size="11.00">ok | instead &lt;text&gt; | ask &lt;text&gt;</text>
<text xml:space="preserve" text-anchor="middle" x="1287" y="-7.05" font-family="Helvetica,sans-Serif" font-size="11.00">(the agent never does)</text>
</g>
<!-- waiting&#45;&gt;answer -->
<g id="edge3" class="edge">
<title>waiting&#45;&gt;answer</title>
<path fill="none" stroke="black" d="M1748.7,-104.8C1651.05,-87.97 1503.5,-62.55 1401.61,-45"/>
<polygon fill="black" stroke="black" points="1402.29,-41.56 1391.84,-43.31 1401.1,-48.46 1402.29,-41.56"/>
</g>
<!-- answer&#45;&gt;wake -->
<g id="edge4" class="edge">
<title>answer&#45;&gt;wake</title>
<path fill="none" stroke="black" d="M1183.44,-24.86C1006.82,-25.38 636.32,-31.57 326,-70.5 212.55,-84.73 74,-7.91 74,-122.25 74,-652.5 74,-652.5 74,-652.5 74,-683.37 94.1,-704.24 121.32,-718.35"/>
<polygon fill="black" stroke="black" points="119.74,-721.47 130.28,-722.6 122.74,-715.15 119.74,-721.47"/>
</g>
<!-- present&#45;&gt;waiting -->
<g id="edge6" class="edge">
<title>present&#45;&gt;waiting</title>
<path fill="none" stroke="black" d="M2370.9,-363.24C2356.2,-324.38 2314.82,-230.01 2246,-186.25 2206.71,-161.27 2100.3,-145.46 2007.68,-136.07"/>
<polygon fill="black" stroke="black" points="2008.26,-132.61 1997.96,-135.1 2007.56,-139.57 2008.26,-132.61"/>
</g>
<!-- reply&#45;&gt;wake -->
<g id="edge8" class="edge">
<title>reply&#45;&gt;wake</title>
<path fill="none" stroke="black" d="M267,-399.84C267,-454.06 267,-621.56 267,-702.75"/>
<polygon fill="black" stroke="black" points="263.5,-702.57 267,-712.57 270.5,-702.57 263.5,-702.57"/>
</g>
<!-- cannot -->
<g id="node9" class="node">
<title>cannot</title>
<path fill="none" stroke="black" d="M543.2,-139.07C543.2,-139.07 469.38,-125.43 469.38,-125.43 463.48,-124.34 463.48,-122.16 469.38,-121.07 469.38,-121.07 543.2,-107.43 543.2,-107.43 549.1,-106.34 560.9,-106.34 566.8,-107.43 566.8,-107.43 640.62,-121.07 640.62,-121.07 646.52,-122.16 646.52,-124.34 640.62,-125.43 640.62,-125.43 566.8,-139.07 566.8,-139.07 560.9,-140.16 549.1,-140.16 543.2,-139.07"/>
<text xml:space="preserve" text-anchor="middle" x="555" y="-119.55" font-family="Helvetica,sans-Serif" font-size="11.00">Cannot act on it?</text>
</g>
<!-- act&#45;&gt;cannot -->
<g id="edge11" class="edge">
<title>act&#45;&gt;cannot</title>
<path fill="none" stroke="black" d="M555,-356.85C555,-309.69 555,-204.11 555,-153.02"/>
<polygon fill="black" stroke="black" points="558.5,-153.07 555,-143.07 551.5,-153.07 558.5,-153.07"/>
</g>
<!-- actions -->
<g id="node12" class="node">
<title>actions</title>
<polygon fill="#eeeeee" stroke="none" points="748.38,-551.5 748.38,-572.75 900.12,-572.75 900.12,-551.5 748.38,-551.5"/>
<polygon fill="none" stroke="black" points="748.38,-551.5 748.38,-572.75 900.12,-572.75 900.12,-551.5 748.38,-551.5"/>
<text xml:space="preserve" text-anchor="start" x="753.38" y="-560.2" font-family="Helvetica,sans-Serif" font-weight="bold" font-size="9.00">Action, in precedence order</text>
<polygon fill="#eeeeee" stroke="none" points="900.12,-551.5 900.12,-572.75 1769.62,-572.75 1769.62,-551.5 900.12,-551.5"/>
<polygon fill="none" stroke="black" points="900.12,-551.5 900.12,-572.75 1769.62,-572.75 1769.62,-551.5 900.12,-551.5"/>
<text xml:space="preserve" text-anchor="start" x="1315" y="-560.2" font-family="Helvetica,sans-Serif" font-weight="bold" font-size="9.00">done :=</text>
<polygon fill="none" stroke="black" points="748.38,-530.25 748.38,-551.5 900.12,-551.5 900.12,-530.25 748.38,-530.25"/>
<text xml:space="preserve" text-anchor="start" x="753.38" y="-537.95" font-family="Helvetica,sans-Serif" font-size="9.00">reconcile ACTION</text>
<polygon fill="none" stroke="black" points="900.12,-530.25 900.12,-551.5 1769.62,-551.5 1769.62,-530.25 900.12,-530.25"/>
<text xml:space="preserve" text-anchor="start" x="905.12" y="-537.95" font-family="Helvetica,sans-Serif" font-size="9.00">the in&#45;progress record is gone; the action finished or was abandoned</text>
<polygon fill="none" stroke="black" points="748.38,-509 748.38,-530.25 900.12,-530.25 900.12,-509 748.38,-509"/>
<text xml:space="preserve" text-anchor="start" x="753.38" y="-516.7" font-family="Helvetica,sans-Serif" font-size="9.00">scope PATH</text>
<polygon fill="none" stroke="black" points="900.12,-509 900.12,-530.25 1769.62,-530.25 1769.62,-509 900.12,-509"/>
<text xml:space="preserve" text-anchor="start" x="905.12" y="-516.7" font-family="Helvetica,sans-Serif" font-size="9.00">the path is declared, listed under outside:, or an approved retention or restoration names it</text>
<polygon fill="none" stroke="black" points="748.38,-487.75 748.38,-509 900.12,-509 900.12,-487.75 748.38,-487.75"/>
<text xml:space="preserve" text-anchor="start" x="753.38" y="-495.45" font-family="Helvetica,sans-Serif" font-size="9.00">fix ITEM</text>
<polygon fill="none" stroke="black" points="900.12,-487.75 900.12,-509 1769.62,-509 1769.62,-487.75 900.12,-487.75"/>
<text xml:space="preserve" text-anchor="start" x="905.12" y="-495.45" font-family="Helvetica,sans-Serif" font-size="9.00">Fixed by names a commit that changes no Agreed text; REQ has a current passing receipt after it</text>
<polygon fill="none" stroke="black" points="748.38,-466.5 748.38,-487.75 900.12,-487.75 900.12,-466.5 748.38,-466.5"/>
<text xml:space="preserve" text-anchor="start" x="753.38" y="-474.2" font-family="Helvetica,sans-Serif" font-size="9.00">record PATH</text>
<polygon fill="none" stroke="black" points="900.12,-466.5 900.12,-487.75 1769.62,-487.75 1769.62,-466.5 900.12,-466.5"/>
<text xml:space="preserve" text-anchor="start" x="905.12" y="-474.2" font-family="Helvetica,sans-Serif" font-size="9.00">the in&#45;progress record names the action, or PATH is clean</text>
<polygon fill="none" stroke="black" points="748.38,-445.25 748.38,-466.5 900.12,-466.5 900.12,-445.25 748.38,-445.25"/>
<text xml:space="preserve" text-anchor="start" x="753.38" y="-452.95" font-family="Helvetica,sans-Serif" font-size="9.00">commit PATH</text>
<polygon fill="none" stroke="black" points="900.12,-445.25 900.12,-466.5 1769.62,-466.5 1769.62,-445.25 900.12,-445.25"/>
<text xml:space="preserve" text-anchor="start" x="905.12" y="-452.95" font-family="Helvetica,sans-Serif" font-size="9.00">PATH is clean</text>
<polygon fill="none" stroke="black" points="748.38,-424 748.38,-445.25 900.12,-445.25 900.12,-424 748.38,-424"/>
<text xml:space="preserve" text-anchor="start" x="753.38" y="-431.7" font-family="Helvetica,sans-Serif" font-size="9.00">repair PATH</text>
<polygon fill="none" stroke="black" points="900.12,-424 900.12,-445.25 1769.62,-445.25 1769.62,-424 900.12,-424"/>
<text xml:space="preserve" text-anchor="start" x="905.12" y="-431.7" font-family="Helvetica,sans-Serif" font-size="9.00">the named record reads under its grammar; nothing else changed</text>
<polygon fill="none" stroke="black" points="748.38,-402.75 748.38,-424 900.12,-424 900.12,-402.75 748.38,-402.75"/>
<text xml:space="preserve" text-anchor="start" x="753.38" y="-410.45" font-family="Helvetica,sans-Serif" font-size="9.00">declare REQ</text>
<polygon fill="none" stroke="black" points="900.12,-402.75 900.12,-424 1769.62,-424 1769.62,-402.75 900.12,-402.75"/>
<text xml:space="preserve" text-anchor="start" x="905.12" y="-410.45" font-family="Helvetica,sans-Serif" font-size="9.00">a mechanism names REQ (cairn declare)</text>
<polygon fill="none" stroke="black" points="748.38,-381.5 748.38,-402.75 900.12,-402.75 900.12,-381.5 748.38,-381.5"/>
<text xml:space="preserve" text-anchor="start" x="753.38" y="-389.2" font-family="Helvetica,sans-Serif" font-size="9.00">run REQ</text>
<polygon fill="none" stroke="black" points="900.12,-381.5 900.12,-402.75 1769.62,-402.75 1769.62,-381.5 900.12,-381.5"/>
<text xml:space="preserve" text-anchor="start" x="905.12" y="-389.2" font-family="Helvetica,sans-Serif" font-size="9.00">a current receipt for REQ exists: input set, declaration and text digests equal now</text>
<polygon fill="none" stroke="black" points="748.38,-360.25 748.38,-381.5 900.12,-381.5 900.12,-360.25 748.38,-360.25"/>
<text xml:space="preserve" text-anchor="start" x="753.38" y="-367.95" font-family="Helvetica,sans-Serif" font-size="9.00">implement REQ</text>
<polygon fill="none" stroke="black" points="900.12,-360.25 900.12,-381.5 1769.62,-381.5 1769.62,-360.25 900.12,-360.25"/>
<text xml:space="preserve" text-anchor="start" x="905.12" y="-367.95" font-family="Helvetica,sans-Serif" font-size="9.00">a current passing receipt for REQ; the reviewed list carries REQ with a fail receipt</text>
<polygon fill="none" stroke="black" points="748.38,-339 748.38,-360.25 900.12,-360.25 900.12,-339 748.38,-339"/>
<text xml:space="preserve" text-anchor="start" x="753.38" y="-346.7" font-family="Helvetica,sans-Serif" font-size="9.00">escalate REQ</text>
<polygon fill="none" stroke="black" points="900.12,-339 900.12,-360.25 1769.62,-360.25 1769.62,-339 900.12,-339"/>
<text xml:space="preserve" text-anchor="start" x="905.12" y="-346.7" font-family="Helvetica,sans-Serif" font-size="9.00">three attempts without a pass: an escalation names REQ before a fourth</text>
<polygon fill="none" stroke="black" points="748.38,-317.75 748.38,-339 900.12,-339 900.12,-317.75 748.38,-317.75"/>
<text xml:space="preserve" text-anchor="start" x="753.38" y="-325.45" font-family="Helvetica,sans-Serif" font-size="9.00">review mechanism REQ</text>
<polygon fill="none" stroke="black" points="900.12,-317.75 900.12,-339 1769.62,-339 1769.62,-317.75 900.12,-317.75"/>
<text xml:space="preserve" text-anchor="start" x="905.12" y="-325.45" font-family="Helvetica,sans-Serif" font-size="9.00">the reviewed list carries REQ with the current text digest and a fail receipt; no code changed</text>
<polygon fill="none" stroke="black" points="748.38,-296.5 748.38,-317.75 900.12,-317.75 900.12,-296.5 748.38,-296.5"/>
<text xml:space="preserve" text-anchor="start" x="753.38" y="-304.2" font-family="Helvetica,sans-Serif" font-size="9.00">capture PATH</text>
<polygon fill="none" stroke="black" points="900.12,-296.5 900.12,-317.75 1769.62,-317.75 1769.62,-296.5 900.12,-296.5"/>
<text xml:space="preserve" text-anchor="start" x="905.12" y="-304.2" font-family="Helvetica,sans-Serif" font-size="9.00">the item carries Outside because:, or an escalation names it</text>
<polygon fill="none" stroke="black" points="748.38,-275.25 748.38,-296.5 900.12,-296.5 900.12,-275.25 748.38,-275.25"/>
<text xml:space="preserve" text-anchor="start" x="753.38" y="-282.95" font-family="Helvetica,sans-Serif" font-size="9.00">review SLUG</text>
<polygon fill="none" stroke="black" points="900.12,-275.25 900.12,-296.5 1769.62,-296.5 1769.62,-275.25 900.12,-275.25"/>
<text xml:space="preserve" text-anchor="start" x="905.12" y="-282.95" font-family="Helvetica,sans-Serif" font-size="9.00">the review names the current input set digest, answers every fixed question, no finding open</text>
<polygon fill="none" stroke="black" points="748.38,-254 748.38,-275.25 900.12,-275.25 900.12,-254 748.38,-254"/>
<text xml:space="preserve" text-anchor="start" x="753.38" y="-261.7" font-family="Helvetica,sans-Serif" font-size="9.00">resolve SLUG</text>
<polygon fill="none" stroke="black" points="900.12,-254 900.12,-275.25 1769.62,-275.25 1769.62,-254 900.12,-254"/>
<text xml:space="preserve" text-anchor="start" x="905.12" y="-261.7" font-family="Helvetica,sans-Serif" font-size="9.00">no finding is open; each resolution its own commit</text>
<polygon fill="none" stroke="black" points="748.38,-232.75 748.38,-254 900.12,-254 900.12,-232.75 748.38,-232.75"/>
<text xml:space="preserve" text-anchor="start" x="753.38" y="-240.45" font-family="Helvetica,sans-Serif" font-size="9.00">report SLUG</text>
<polygon fill="none" stroke="black" points="900.12,-232.75 900.12,-254 1769.62,-254 1769.62,-232.75 900.12,-232.75"/>
<text xml:space="preserve" text-anchor="start" x="905.12" y="-240.45" font-family="Helvetica,sans-Serif" font-size="9.00">brief issued (cairn brief); the agent starts the adversary and waits; a report names the review&#39;s and the brief&#39;s digests, answers every claim by name, and every answer and finding is carried</text>
<polygon fill="none" stroke="black" points="748.38,-211.5 748.38,-232.75 900.12,-232.75 900.12,-211.5 748.38,-211.5"/>
<text xml:space="preserve" text-anchor="start" x="753.38" y="-219.2" font-family="Helvetica,sans-Serif" font-size="9.00">build DECISION</text>
<polygon fill="none" stroke="black" points="900.12,-211.5 900.12,-232.75 1769.62,-232.75 1769.62,-211.5 900.12,-211.5"/>
<text xml:space="preserve" text-anchor="start" x="905.12" y="-219.2" font-family="Helvetica,sans-Serif" font-size="9.00">Realized by names a commit that resolves</text>
<polygon fill="none" stroke="black" points="748.38,-190.25 748.38,-211.5 900.12,-211.5 900.12,-190.25 748.38,-190.25"/>
<text xml:space="preserve" text-anchor="start" x="753.38" y="-197.95" font-family="Helvetica,sans-Serif" font-size="9.00">promote</text>
<polygon fill="none" stroke="black" points="900.12,-190.25 900.12,-211.5 1769.62,-211.5 1769.62,-190.25 900.12,-190.25"/>
<text xml:space="preserve" text-anchor="start" x="905.12" y="-197.95" font-family="Helvetica,sans-Serif" font-size="9.00">a Consequential decision names the item; a commitment naming only Agreed requirements; Current: moved; the item stamped</text>
</g>
<!-- act&#45;&gt;actions -->
<g id="edge16" class="edge">
<title>act&#45;&gt;actions</title>
<path fill="none" stroke="black" stroke-dasharray="5,2" d="M669.47,-381.5C693.17,-381.5 716.87,-381.5 740.57,-381.5"/>
</g>
<!-- escalate -->
<g id="node10" class="node">
<title>escalate</title>
<path fill="none" stroke="black" d="M252.75,-42.25C252.75,-42.25 25.25,-42.25 25.25,-42.25 19.25,-42.25 13.25,-36.25 13.25,-30.25 13.25,-30.25 13.25,-18.25 13.25,-18.25 13.25,-12.25 19.25,-6.25 25.25,-6.25 25.25,-6.25 252.75,-6.25 252.75,-6.25 258.75,-6.25 264.75,-12.25 264.75,-18.25 264.75,-18.25 264.75,-30.25 264.75,-30.25 264.75,-36.25 258.75,-42.25 252.75,-42.25"/>
<text xml:space="preserve" text-anchor="middle" x="139" y="-27.3" font-family="Helvetica,sans-Serif" font-size="11.00">cairn escalate with the evidence;</text>
<text xml:space="preserve" text-anchor="middle" x="139" y="-13.8" font-family="Helvetica,sans-Serif" font-size="11.00">the next wake says Escalate, then Waiting</text>
</g>
<!-- cannot&#45;&gt;escalate -->
<g id="edge13" class="edge">
<title>cannot&#45;&gt;escalate</title>
<path fill="none" stroke="black" d="M513.21,-112.51C446.13,-96.86 313.04,-65.83 225.03,-45.31"/>
<polygon fill="black" stroke="black" points="226,-41.94 215.46,-43.08 224.41,-48.76 226,-41.94"/>
<text xml:space="preserve" text-anchor="middle" x="392.89" y="-73.75" font-family="Helvetica,sans-Serif" font-size="10.00">yes</text>
</g>
<!-- trace -->
<g id="node11" class="node">
<title>trace</title>
<path fill="none" stroke="black" d="M1962.38,-42.25C1962.38,-42.25 1825.62,-42.25 1825.62,-42.25 1819.62,-42.25 1813.62,-36.25 1813.62,-30.25 1813.62,-30.25 1813.62,-18.25 1813.62,-18.25 1813.62,-12.25 1819.62,-6.25 1825.62,-6.25 1825.62,-6.25 1962.38,-6.25 1962.38,-6.25 1968.38,-6.25 1974.38,-12.25 1974.38,-18.25 1974.38,-18.25 1974.38,-30.25 1974.38,-30.25 1974.38,-36.25 1968.38,-42.25 1962.38,-42.25"/>
<text xml:space="preserve" text-anchor="middle" x="1894" y="-27.3" font-family="Helvetica,sans-Serif" font-size="11.00">Leave the trace:</text>
<text xml:space="preserve" text-anchor="middle" x="1894" y="-13.8" font-family="Helvetica,sans-Serif" font-size="11.00">commit, receipt, or record</text>
</g>
<!-- cannot&#45;&gt;trace -->
<g id="edge12" class="edge">
<title>cannot&#45;&gt;trace</title>
<path fill="none" stroke="black" d="M622.78,-117.34C844.52,-101.28 1548.59,-50.27 1802.01,-31.91"/>
<polygon fill="black" stroke="black" points="1802.14,-35.41 1811.86,-31.2 1801.63,-28.43 1802.14,-35.41"/>
<text xml:space="preserve" text-anchor="middle" x="1270.65" y="-73.75" font-family="Helvetica,sans-Serif" font-size="10.00">no</text>
</g>
<!-- escalate&#45;&gt;wake -->
<g id="edge15" class="edge">
<title>escalate&#45;&gt;wake</title>
<path fill="none" stroke="black" d="M76.41,-42.67C39.52,-57.17 0,-82.08 0,-122.25 0,-652.5 0,-652.5 0,-652.5 0,-681.93 58.26,-704.66 120.35,-720.52"/>
<polygon fill="black" stroke="black" points="119.14,-723.83 129.68,-722.84 120.82,-717.03 119.14,-723.83"/>
</g>
<!-- trace&#45;&gt;wake -->
<g id="edge14" class="edge">
<title>trace&#45;&gt;wake</title>
<path fill="none" stroke="black" d="M1974.81,-28.99C2149.15,-38.15 2545,-65.22 2545,-122.25 2545,-652.5 2545,-652.5 2545,-652.5 2545,-703.96 1041.08,-734.71 477.18,-744.43"/>
<polygon fill="black" stroke="black" points="477.12,-740.93 467.18,-744.6 477.24,-747.93 477.12,-740.93"/>
</g>
</g>
</svg>
